<svg width="18" height="16" viewBox="0 0 18 16" fill="none" xmlns="http://www.w3.org/2000/svg">
<path d="M8.14321 0.5C12.197 0.5 15.4871 3.524 15.4871 7.25C15.4871 10.976 12.197 14 8.14321 14C4.08938 14 0.799316 10.976 0.799316 7.25C0.799316 3.524 4.08938 0.5 8.14321 0.5ZM8.14321 12.5C11.2986 12.5 13.8551 10.1502 13.8551 7.25C13.8551 4.349 11.2986 2 8.14321 2C4.98697 2 2.43129 4.349 2.43129 7.25C2.43129 10.1502 4.98697 12.5 8.14321 12.5ZM15.0669 12.5532L17.3753 14.6742L16.2207 15.7355L13.9131 13.6137L15.0669 12.5532Z" fill="#243591"/>
</svg>
