<svg xmlns="http://www.w3.org/2000/svg" fill="none" viewBox="0 0 545 545"><path d="m116.728 382.59-15.358.327c-5.167.087-10.377.174-15.587.174h-.49v-13.243h.544l15.457.065c5.155 0 10.311.131 15.456.186h.305v.283l-.327 12.208Zm0 0-.283-12.197.283.294c-5.145.055-10.3.175-15.456.186l-15.456.065.545-.545v12.197l-.49-.48c5.09 0 10.19.088 15.325.175l15.532.305Zm-17.244 15.391-15.336.316c-5.156.087-10.366.174-15.587.174h-.48v-.49l-.054-12.197v-.545h.545l15.467.065c5.156 0 10.3.131 15.456.185h.294v.284l-.305 12.208Zm0 0-.294-12.197.283.294c-5.155.055-10.3.174-15.456.185l-15.467.066.545-.545v12.197l-.49-.48c5.1 0 10.191.087 15.336.175l15.543.305Zm271.912-98.013-15.326.305c-5.166.088-10.376.175-15.587.186h-.49v-.491l-.055-12.208v-.545h.556l15.457.065c5.155 0 10.3.131 15.456.186h.283v.294l-.294 12.208Zm0 0-.284-12.208.284.283c-5.156.066-10.301.175-15.456.186l-15.457.076.535-.545-.055 12.197-.48-.49c5.091 0 10.181.098 15.326.185l15.587.316Zm-34.848 0-15.336.305c-5.156.088-10.366.175-15.587.186h-.425v-.491l-.12-12.208v-.545h.545l15.467.065c5.156 0 10.301.131 15.456.186h.262v.294l-.262 12.208Zm0 0-.283-12.208.283.283c-5.155.066-10.3.175-15.456.186l-15.467.076.545-.545-.054 12.197-.491-.49c5.101 0 10.192.098 15.336.185l15.587.316Zm17.462 15.38-15.336.305c-5.167.087-10.366.174-15.587.185h-.447v-13.232h.545l15.467.065c5.145 0 10.301.131 15.456.185h.295v.284l-.393 12.208Zm0 0-.294-12.197.294.283c-5.155.066-10.311.175-15.456.185l-15.467.077.545-.545-.054 12.197-.491-.491c5.101 0 10.192.098 15.336.186l15.587.305Zm122.429 82.633-15.336.316c-5.167.087-10.377.174-15.587.174h-.491v-13.232h.545l15.457.065c5.155 0 10.311.131 15.467.185h.294v.284l-.349 12.208Zm0 0-.294-12.197.294.294c-5.156.055-10.311.174-15.467.185l-15.456.066.545-.545-.055 12.197-.49-.48c5.09 0 10.191.087 15.336.175l15.587.305ZM459.184 88.606l-15.325.305c-5.167.087-10.377.175-15.587.175h-.491V75.853h.556l15.456.065c5.156 0 10.301.131 15.457.186h.294v.294l-.36 12.208Zm0 0-.294-12.197.283.283c-5.155 0-10.3.175-15.456.186l-15.456.065.534-.534v12.186l-.48-.48c5.091 0 10.181.088 15.326.175l15.543.316Zm17.255 15.369-15.369.316c-5.166.087-10.377.175-15.587.175h-.49V91.233h.545l15.456.065c5.156 0 10.311.131 15.467.186h.294v.294l-.316 12.197Zm0 0-.294-12.186.294.283c-5.156 0-10.311.175-15.467.185l-15.456.066.545-.534-.055 12.186-.49-.48c5.09 0 10.191.088 15.336.175l15.587.305ZM99.484 88.606l-15.336.305c-5.156.087-10.366.175-15.587.175h-.48v-.49l-.054-12.187v-.556h.545l15.467.065c5.156 0 10.3.131 15.456.186h.294v.294l-.305 12.208Zm0 0-.294-12.197.283.283c-5.155 0-10.3.175-15.456.186l-15.467.065.545-.534v12.186l-.49-.48c5.1 0 10.191.088 15.336.175l15.543.316Zm157.113 103.681-15.326.305c-5.166.087-10.376.175-15.587.186h-.49v-13.233h.545l15.456.065c5.156 0 10.311.131 15.456.186h.295v.283l-.349 12.208Zm0 0-.284-12.197.284.283c-5.145.066-10.301.175-15.456.186l-15.457.076.545-.545-.054 12.197-.491-.49c5.091 0 10.192.087 15.326.174l15.587.316ZM115.322 0h-1.09v151.085h1.09V0Zm52.418 202.141-4.262 9.363H66.065l-4.24-9.363 41.463-28.711h22.978l41.474 28.711Z" fill="#FBBA0C"/><path d="m129.143 145.777-2.878 27.653h-22.977l-2.877-27.653h28.732Zm38.586 56.364-4.262 9.363H66.065l-4.251-9.363h105.915ZM229.064 0h-1.09v90.655h1.09V0Zm52.407 141.711-4.251 9.363h-97.413l-4.241-9.363L217.03 113h22.977l41.464 28.711Z" fill="#FBBA0C"/><path d="M242.885 85.347 240.007 113H217.03l-2.878-27.653h28.733Zm38.586 56.364-4.262 9.363h-97.402l-4.251-9.363h105.915Z" fill="#FBBA0C"/><path d="m483.186 496.092-52.68.261-52.668.098-105.338.175-105.338-.175-52.679-.098-52.669-.261 52.669-.273 52.679-.098 105.338-.174 105.338.174 52.668.098 52.68.273Z" fill="#263238"/><path d="M256.368 496.081H151.445c-.862-3.379-1.701-6.704-2.54-9.974-.959-3.76-1.908-7.434-2.812-11.009-.197-.795-.404-1.602-.611-2.387a1287.21 1287.21 0 0 0-2.027-8l-1.188-4.677c-.414-1.569-.796-3.117-1.177-4.621-.109-.393-.208-.796-.306-1.177l-.327-1.297-.392-1.548c-.153-.545-.283-1.09-.414-1.613a149.527 149.527 0 0 1-.763-2.976c-.371-1.439-.731-2.845-1.09-4.218-.153-.6-.316-1.199-.458-1.777a772.88 772.88 0 0 1-.719-2.812c-.153-.611-.306-1.21-.447-1.799-.633-2.398-1.199-4.665-1.733-6.78l-.426-1.635c-.228-.915-.446-1.787-.664-2.637-.142-.535-.284-1.09-.404-1.559-.458-1.81-.883-3.455-1.242-4.905-.109-.393-.207-.763-.295-1.09-.239-.959-.468-1.81-.654-2.562-.076-.305-.141-.599-.229-.872-.087-.272-.141-.577-.207-.828a11.412 11.412 0 0 1-.13-.534c-.033-.153-.131-.512-.186-.72-.054-.207-.054-.228-.087-.316-.153-.632-.24-.948-.24-.948H231.81s3.368 11.598 8.72 30.291c1.09 3.804 2.267 7.914 3.532 12.274 3.63 12.415 7.804 26.955 12.306 42.706Z" fill="#286EB6"/><path d="M168.623 496.081h-2.616a3233.646 3233.646 0 0 1-11.292-48.309c-.887-3.924-1.755-7.852-2.605-11.783-.077-.371-.164-.73-.24-1.09a.156.156 0 0 1 .018-.119.155.155 0 0 1 .215-.054.157.157 0 0 1 .072.097c0 .12.066.24.109.359 1.177 4.208 2.365 8.437 3.521 12.666a2962.66 2962.66 0 0 1 12.818 48.233Z" fill="#263238"/><path d="m228.519 410.767-4.502 22.563-3.695 18.53-6.289 31.544-.654 3.27-1.091 5.385-.806 4.087h-60.059c-.85-3.39-1.711-6.714-2.529-9.973-.959-3.761-1.907-7.434-2.812-11.009a148.46 148.46 0 0 0-.61-2.387c-.684-2.733-1.359-5.399-2.028-8.001l-1.188-4.676c-.414-1.57-.796-3.117-1.177-4.622-.109-.392-.207-.795-.305-1.177l-.327-1.297-.393-1.548c-.152-.545-.283-1.09-.414-1.613a156.744 156.744 0 0 1-.763-2.976c-.371-1.438-.73-2.844-1.09-4.218a90.882 90.882 0 0 1-.458-1.777c-.247-.959-.487-1.896-.719-2.812-.153-.61-.305-1.21-.447-1.798-.632-2.398-1.199-4.666-1.733-6.78l-.425-1.635c-.229-.916-.447-1.788-.665-2.638-.142-.534-.284-1.09-.403-1.559-.458-1.809-.883-3.455-1.243-4.905-.109-.392-.207-.763-.294-1.09-.24-.959-.469-1.809-.654-2.561-.077-.305-.142-.6-.229-.872-.087-.273-.142-.578-.207-.828a11.338 11.338 0 0 1-.131-.535c-.033-.152-.131-.512-.185-.719-.055-.207-.055-.229-.088-.316a33.668 33.668 0 0 0-.239-.948l98.852-.109Z" fill="#263238"/><path d="M228.54 410.723c0 .556-.425 6.649-1.417 15.947-.272 2.714-.61 5.689-.992 8.883a436.98 436.98 0 0 1-2.267 16.47c-1.569 10.246-3.608 21.429-6.267 32.362a272.634 272.634 0 0 1-3.085 11.652H82.622a25307.39 25307.39 0 0 1 4.11-52.581c1.634-20.067 2.648-32.689 2.648-32.689h119.584l19.576-.044Z" fill="#286EB6"/><path d="M228.257 422.844a405.088 405.088 0 0 1-.654 14.115c-.316 5.09-.785 10.17-1.45 15.26-.011.19-.033.379-.065.567a319.169 319.169 0 0 1-2.18 14.235c-.763 4.415-1.319 9.178-3.27 13.255a13.014 13.014 0 0 1-3.085 4.164 9.085 9.085 0 0 1-4.218 2.18c-.258.065-.52.109-.785.13h-.229a.285.285 0 0 1 .152.273c-.054 1.58 0 3.194-.185 4.763a1.282 1.282 0 0 0 0 .196c-.152 1.374-.414 2.725-.665 4.088h-2.256v-.087c.403-1.483.73-2.987 1.09-4.491.36-1.504.905-3.03 1.264-4.589a.3.3 0 0 1 .109-.142 7.043 7.043 0 0 1-6.801-4.273c-.763-2.016-.414-4.12-.109-6.191.414-2.703.806-5.45 1.221-8.098.773-4.96 1.765-9.865 2.648-14.803l.393-2.245c1.776-10.039 3.618-20.078 5.842-30.019.076-.414.174-.828.262-1.242.087-.414.512-.196.479.065-.065.665-.131 1.341-.207 2.006-.392 3.826-.839 7.63-1.373 11.412-.643 4.458-1.09 8.938-1.701 13.385-.218 1.526-.425 3.041-.654 4.556-1.024 7.325-2.082 14.65-3.335 21.953-.589 3.39-2.703 9.461 2.18 10.519a5.014 5.014 0 0 0 3.27-.415 10.394 10.394 0 0 0 4.534-5.733c1.385-3.88 1.875-8.164 2.595-12.208a378.113 378.113 0 0 0 2.125-13.418c.799-5.588 1.631-11.176 2.496-16.764.436-2.845.894-5.69 1.341-8.535.218-1.319.425-2.638.643-3.957.131-.272.578-.196.578.088Zm-116.663 35.043a66.09 66.09 0 0 0 16.263-2.18c2.453-.621 4.872-1.406 7.27-2.18a18.588 18.588 0 0 0 6.54-3.27c3.706-3.183 5.45-8.207 7.031-12.666a121.333 121.333 0 0 0 4.262-15.379c.054-.262.436-.175.436.065a59.455 59.455 0 0 1-2.18 17.44c-1.319 4.829-3.107 10.202-6.998 13.581-4.098 3.554-9.668 4.807-14.911 5.45a68.827 68.827 0 0 1-17.713-.239.31.31 0 0 1 0-.622Zm-9.134-35.577a5780.12 5780.12 0 0 1-.938 22.148 4352.11 4352.11 0 0 1-2.485 51.623h-2.474a7183.207 7183.207 0 0 1 3.586-51.699c.545-7.368 1.09-14.715 1.668-22.083a.325.325 0 0 1 .326-.263.327.327 0 0 1 .317.274Z" fill="#263238"/><path d="M198.38 280.653c20.83 31.425 71.82 89.228 97.533 97.588 14.824 4.829 77.39-5.908 91.876-10.039 7.696-2.18-21.615-65.019-29.899-62.904-8.491 2.18-47.665 10.279-54.042 10.573-6.376.294-56.276-36.766-82.273-53.606-32.787-21.233-40.243-7.347-23.195 18.388Z" fill="#AD6359"/><path d="M377.794 370.022c8.055-1.003 45.039-8.72 54.696-13.178 9.657-4.458 36.537-19.304 33.866-27.054-2.67-7.75-10.9-4.022-10.9-4.022s10.355-8.066 6.965-15.62c-3.389-7.553-15.979-1.351-15.979-1.351s10.028-9.058 6.104-16.35c-3.924-7.292-15.543 1.09-15.543 1.09s9.559-7.859 3.804-12.502c-6.933-5.592-22.89 10.9-33.943 14.998-2.507.937-52.135 15.369-52.135 15.369l23.065 58.62Z" fill="#AD6359"/><path d="M438.038 292.829c-11.782 12.077-19.02 15.336-35.174 19.205-.316.077-.283.556 0 .513 16.176-2.355 25.844-5.123 35.741-19.184.534-.687 0-1.112-.567-.534Zm9.342 14.998c-13.331 11.543-21.19 15.075-37.78 20.383-.24.065-.131.48.109.425 16.743-3.837 26.335-6.823 38.15-20.045.523-.6.131-1.286-.479-.763Zm7.248 18.181c-13.712 10.192-22.127 14.497-38.924 17.571a.32.32 0 0 0-.18.128.318.318 0 0 0 .257.493c17.44-1.46 27.969-6.769 39.109-17.745.73-.741.599-1.09-.262-.447Z" fill="#263238"/><path d="M344.44 313.68s11.707-17.614 18.53-24.22c6.823-6.605 41.42-21.8 45.137-14.529 4.796 9.395-13.44 22.116-23.184 27.173 0 0 11.096 21.735 0 33.692-11.097 11.958-40.483-22.116-40.483-22.116Z" fill="#AD6359"/><path d="M408.543 277.95c-1.81 11.728-15.031 17.549-24.122 23.163a.973.973 0 0 0-.152 1.591c4.043 9.428 6.997 23.893 1.275 33.081a.255.255 0 0 0-.031.179.253.253 0 0 0 .273.199.25.25 0 0 0 .161-.083c7.467-9.015 5.723-23.468.632-33.507 9.407-5.613 22.411-11.99 22.084-24.612 0-.076-.109-.098-.12-.011Z" fill="#263238"/><path d="m264.271 285.209-24.536 59.885s-40.058-52.789-52.615-77.772c-13.08-26.029-7.564-35.414 25.594-15.685 33.364 19.849 51.557 33.572 51.557 33.572Z" fill="#FBBA0C"/><path d="m264.27 285.209-11.652 28.438-12.884 31.447s-40.046-52.789-52.614-77.772c-6.649-13.199-8.491-22.116-4.36-25.124 4.131-3.008 13.647-.283 29.986 9.439 33.332 19.86 51.524 33.572 51.524 33.572Z" fill="#FBBA0C"/><path d="M191.142 241.642c.382.087.774.185 1.178.305l-1.025.72c-3.543 2.539-7.02 5.177-10.475 7.869 0-.305-.098-.599-.12-.882 3.412-2.725 6.834-5.494 10.442-8.012Zm35.218 18.29a41.977 41.977 0 0 1-5.068 9.091 53.65 53.65 0 0 1-15.02 13.919 55.674 55.674 0 0 1-7.63 4c.196.317.414.633.61.96a60.774 60.774 0 0 0 7.881-4.219 54.927 54.927 0 0 0 14.573-13.494 42.25 42.25 0 0 0 5.504-9.723l-.85-.534Zm5.102 74.12 1.09 1.526c.185.077.381.186.566.273a63.75 63.75 0 0 1 8.35 4.937l.403-.97a65.68 65.68 0 0 0-2.899-1.896 56.103 56.103 0 0 0-7.51-3.913v.043Zm23.086-31.348c-8.895-2.006-17.037-6.442-26.03-8.121-7.324-1.373-15.151-.555-20.949 4.502-.186.175-.382.338-.556.534.185.273.392.567.577.861a19.945 19.945 0 0 1 9.865-5.112c9.091-1.798 18.181 2.017 26.552 5.112a71.195 71.195 0 0 0 12.514 3.63l.414-1.014c-.785-.076-1.603-.261-2.387-.436v.044Z" fill="#243591"/><path d="M252.313 285.024c-.752 1.352-1.308 2.823-1.929 4.24-.621 1.417-1.275 2.91-1.918 4.36a430.102 430.102 0 0 0-3.772 8.894c-2.463 5.952-4.948 11.892-7.303 17.887-.654 1.646-1.297 3.27-1.896 4.96-.6 1.689-1.156 3.553-1.788 5.286 0 .109.12.164.164.055.654-1.45 1.427-2.856 2.092-4.36.665-1.504 1.33-2.987 1.973-4.502a692.876 692.876 0 0 0 3.706-8.916c2.376-5.886 4.774-11.75 7.031-17.68.632-1.657 1.242-3.27 1.875-4.97.632-1.701 1.427-3.466 1.918-5.243.033-.033-.109-.098-.153-.011Z" fill="#263238"/><path d="m252.618 313.648-12.884 31.446s-40.046-52.789-52.614-77.771c-6.649-13.2-8.491-22.117-4.36-25.125 6.638.185 11.238.294 11.238.294l58.62 71.156Z" fill="#000" opacity=".1"/><path d="m247.561 451.707-169.081.49s14.748-127.235 76.845-202.402c14.366-17.44 37.507-7.935 47.262 1.297 24.743 23.446 45.453 200.004 44.974 200.615Z" fill="#FBBA0C"/><path d="M190.412 243.299c-7.227 5.221-14.17 10.9-21.201 16.35-3.629 2.801-7.161 5.777-10.954 8.338-3.041 2.05-6.54 3.75-10.268 3.543a11.885 11.885 0 0 1-6.725-2.714c.12-.196.261-.403.392-.6a12.334 12.334 0 0 0 2.551 1.592c3.738 1.711 7.804.861 11.281-1.09 3.848-2.115 7.238-5.112 10.704-7.794l11.347-8.807c3.913-3.03 7.793-6.3 11.859-9.265l1.014.447Zm-25.07 87.135c3.739-5.352 5.559-12.535 3.27-18.814-2.104-5.613-7.129-9.308-12.829-10.682a25.912 25.912 0 0 0-17.637 2.082c-7.117 3.608-12.295 10.017-18.693 14.65a30.551 30.551 0 0 1-5.788 3.27c-.185.447-.36.883-.545 1.319 6.889-2.606 11.99-8.099 17.516-12.786a37.403 37.403 0 0 1 9.69-6.377 25.412 25.412 0 0 1 9.418-1.864c6.191-.065 12.797 2.246 16.35 7.63 4.011 6.05 2.834 13.898-.818 19.817-9.254 14.998-29.735 14.039-45.038 14.322a89.077 89.077 0 0 0-15.664 1.472c-.163.403-.305.795-.436 1.199a96.08 96.08 0 0 1 17.833-1.581c14.9-.174 33.822.066 43.414-13.657h-.043Zm3.739-37.911a58.22 58.22 0 0 0 38.019-8.84 56.477 56.477 0 0 0 8.425-6.54 12.38 12.38 0 0 0-.381-1.09 53.92 53.92 0 0 1-8.916 6.944 56.848 56.848 0 0 1-39.262 8.033c-11.238-1.918-21.32-8.829-32.231-11.881-.218.338-.415.676-.633 1.014a98.906 98.906 0 0 1 13.8 5.45c6.878 3.117 13.712 5.973 21.222 6.91h-.043Zm-12.546 102.613a26.163 26.163 0 0 0 7.63-16.95c.327-5.853-1.537-11.99-6.192-15.859-5.341-4.36-12.6-4.556-18.922-2.507-7.292 2.365-12.949 7.412-17.898 13.08-5.384 6.202-10.104 13.265-16.655 18.334-4.458 3.444-10.072 6.267-15.816 6.638-.087.338-.163.676-.25 1.014a25.664 25.664 0 0 0 8.578-1.973c7.194-3.031 12.644-8.448 17.571-14.345 5.188-6.18 10.028-13.08 16.796-17.745 5.908-4.044 13.789-6.682 20.874-4.436 6.605 2.082 10.42 8.197 10.9 14.9a24.605 24.605 0 0 1-6.54 18.203c-5.265 5.733-12.382 9.298-19.62 11.99a219.635 219.635 0 0 1-25.604 7.434c-9.232 2.18-20.34 4.033-28.079 9.93-.109.577-.229 1.09-.327 1.678 7.75-6.485 19.62-8.414 29.212-10.671a212.265 212.265 0 0 0 25.506-7.434c6.867-2.605 13.658-5.995 18.879-11.281h-.043Zm-10.9 27.98c-7.445-.501-13.789 4.153-17.996 9.887-4.36 5.951-6.954 12.949-10.987 19.085h1.22c1.646-2.583 3.063-5.33 4.437-7.978 3.575-6.922 7.499-14.683 14.845-18.269a15.902 15.902 0 0 1 11.238-1.264 12.254 12.254 0 0 1 7.532 6.998c2.834 6.42 1.766 13.581 2.18 20.372h1.09c-.327-5.548.251-11.162-.959-16.655-1.384-6.344-5.635-11.718-12.513-12.176h-.087Zm76.725 24.351c-2.529-6.878-2.562-14.355-2.18-21.571.85-18.116 4.414-36.395 1.569-54.5-2.18-13.865-8.131-27.926-19.87-36.308-5.974-4.251-14.17-6.987-20.95-2.954-5.755 3.401-8.775 10.29-8.851 16.786-.098 8.415 3.826 16.295 7.946 23.402 4.12 7.107 8.72 13.691 12.862 20.71 4.142 7.02 7.63 14.247 9.145 22.171a51.008 51.008 0 0 1-.708 22.192 52.68 52.68 0 0 1-6.039 14.475h1.232a51.9 51.9 0 0 0 1.58-2.855 53.003 53.003 0 0 0 2.704-42.118c-5.559-15.26-16.743-27.588-23.643-42.216-3.531-7.477-5.809-16.35-2.114-24.241a16.501 16.501 0 0 1 7.019-7.728 15.26 15.26 0 0 1 11.925-.556c7.281 2.387 13.353 8.262 17.538 14.519a59.4 59.4 0 0 1 8.262 20.23c3.881 17.582.818 35.654-.436 53.345-.545 7.63-1.013 15.445.622 22.988a29.157 29.157 0 0 0 3.193 8.556h1.374a21.994 21.994 0 0 1-2.18-4.327ZM204.048 317.07c3.531 7.172 10.693 11.075 17.799 13.985 2.638 1.09 5.298 2.082 7.903 3.194-.065-.371-.142-.731-.207-1.09-4.131-1.755-8.339-3.27-12.372-5.341-6.856-3.445-13.952-9.658-13.854-18.007.088-7.63 7.151-13.08 14.17-14.497a25.432 25.432 0 0 1 3.379-.414 22.691 22.691 0 0 1-.25-.916 21.488 21.488 0 0 0-13.015 5.047 14.69 14.69 0 0 0-3.553 18.039Z" fill="#243591"/><path d="M148.763 294.747c0 41.496 13.178 128.751 37.06 147.76 31.349 24.95 96.716 29.572 117.415 30.073 9.025.218 14.028-59.666 6.998-66.282-7.031-6.617-82.284-20.231-88.792-23.348-6.507-3.118-27.588-63.994-44.439-94.634-21.255-38.651-28.242-28.438-28.242 6.431Z" fill="#AD6359"/><path d="M338.434 418.211c-3.946-2.365-2.736-4.447 5.385-5.45 8.12-1.003 41.114 1.766 41.114-9.81s-46.608-14.878-59.95-12.121c-13.341 2.758-34.062 11.892-34.062 11.892 8.894 2.42 30.029 10.442 47.513 15.489Z" fill="#AD6359"/><path d="M280.13 470.128c25.451 6.006 56.756 15.02 84.933 6.289a14.617 14.617 0 0 0 7.848-5.45c12.698-3.695 14.769-10.791 14.769-10.791 10.78-7.063 11.903-14.617 11.903-14.617s14.857-4.491 13.636-13.93c-1.341-10.584-21.953-2.18-36.101-4.524-32.427-5.319-77.019-21.952-86.219-24.416l-10.769 67.439Z" fill="#AD6359"/><path d="M339.197 445.407c9.57 1.373 18.944 2.975 28.656 3.041 10.649.076 20.906-1.635 31.403-3.107a.262.262 0 0 1 .109.502c-18.53 5.679-41.605 5.341-60.233 0-.458-.131-.415-.513.065-.436Zm-6.05 19.096c9.385.818 25.899 2.18 54.446-4.654.087 0 .163.131.065.175-17.952 6.888-35.773 8.175-54.5 4.926-.632-.098-.643-.501-.011-.447Zm-3.063 10.323c16.013.796 26.215-.741 42.728-3.924.099 0 .153.131.055.163-18.388 5.603-25.702 5.548-42.892 4.36-.588-.087-.523-.621.109-.599Z" fill="#263238"/><path d="m201.181 335.349-52.614 37.682s-5.864-66-3.27-93.838c2.747-29.005 12.415-34.019 30.008.316 17.756 34.553 25.876 55.84 25.876 55.84Z" fill="#FBBA0C"/><path d="m160.306 364.638-.926.654a14.687 14.687 0 0 0-7.129-4.905 17.798 17.798 0 0 0-4.763-.807l-.066-1.003c3.859.03 7.596 1.35 10.617 3.75a15.15 15.15 0 0 1 2.267 2.311Zm-2.049-96.661c2.376-1.614 4.665-3.379 6.921-5.178-.152-.229-.338-.436-.501-.654a67.134 67.134 0 0 1-9.189 6.595 13.382 13.382 0 0 1-8.992 1.776c0 .251-.098.513-.142.774.539.114 1.085.191 1.635.229 3.739.207 7.227-1.493 10.268-3.542Zm-2.485 32.961a25.784 25.784 0 0 0-11.107-.163v1.09a24.735 24.735 0 0 1 5.068-.545c6.191-.066 12.797 2.245 16.35 7.63 4.011 6.049 2.834 13.897-.817 19.816-4.36 7.118-11.326 10.638-19.021 12.415l.065 1.09c7.554-1.722 14.421-5.09 19.086-11.761 3.739-5.352 5.559-12.535 3.27-18.814-2.169-5.689-7.194-9.384-12.894-10.758Zm25.615-9.439a53.27 53.27 0 0 1-14.421-.458c-7.63-1.308-14.737-4.916-21.931-8.044l-.065 1.319 2.932 1.319c6.834 3.095 13.712 5.951 21.222 6.888 4.249.514 8.544.533 12.797.055l-.534-1.079Zm19.423 42.88c-5.842-3.826-13.483-6.027-19.87-2.18-5.755 3.401-8.775 10.29-8.851 16.786a29.342 29.342 0 0 0 .73 6.715l.981-.687a22.672 22.672 0 0 1 1.254-14.551 16.508 16.508 0 0 1 7.019-7.729 15.26 15.26 0 0 1 11.925-.555 26.778 26.778 0 0 1 6.856 3.444l.327-.229s-.12-.371-.371-1.014Z" fill="#243591"/><path d="M191.153 328.831c-1.352.752-2.616 1.701-3.891 2.573l-3.946 2.681a392.804 392.804 0 0 0-7.924 5.537c-5.254 3.728-10.508 7.445-15.696 11.26-1.428 1.09-2.845 2.104-4.24 3.194-1.396 1.09-2.856 2.398-4.36 3.531-.099.066 0 .196.109.131 1.329-.883 2.735-1.657 4.065-2.54 1.33-.883 2.725-1.82 4.066-2.757a739.523 739.523 0 0 0 7.881-5.592c5.134-3.717 10.289-7.412 15.347-11.227l4.229-3.27c1.482-1.09 3.052-2.18 4.36-3.423.164-.011.087-.141 0-.098Zm-5.406-34.531c0-.131-.24-.066-.218.065.38 2.486.952 4.939 1.711 7.336-.501-1.036-.981-2.082-1.493-3.117-1.646-3.336-3.347-6.649-4.982-9.985a.107.107 0 0 0-.06-.044.11.11 0 0 0-.136.131c2.453 6.006 4.665 12.132 7.303 18.073 2.638 5.94 5.265 11.87 7.99 17.767 1.504 3.27 3.608 7.15 5.123 10.398-1.363 1.308-3.368 2.627-4.862 4.011-.13.12.077.316.229.218 1.733-1.231 4.044-2.387 5.745-3.858.218-.186-9.069-21.419-13.8-31.37-.763-3.281-1.591-6.508-2.55-9.625Z" fill="#263238"/><path d="M156.742 367.679a40.591 40.591 0 0 0-4.36 2.245c-1.166.687-2.256 1.472-3.368 2.18 0-1.875-.229-3.76-.349-5.624-.152-2.224-.301-4.447-.447-6.671-.294-4.447-.599-8.894-.872-13.342-.272-4.447-.588-8.894-.85-13.352s-.458-8.905-.817-13.353c-.404-5.003-.774-10.017-1.156-15.02a.173.173 0 0 0-.174-.174.174.174 0 0 0-.175.174 552.43 552.43 0 0 0 0 13.865c-.675-2.649-1.569-5.254-2.114-7.935a.168.168 0 0 0-.067-.108.167.167 0 0 0-.232.039.164.164 0 0 0-.028.123c.229 3.456.741 7.151 2.496 10.192.087 3.608.196 7.227.381 10.845.447 8.906.992 17.8 1.755 26.694.218 2.497.436 4.993.676 7.5.24 2.507.371 4.948.839 7.357a.572.572 0 0 0 .409.385.563.563 0 0 0 .54-.156 36.418 36.418 0 0 1 3.924-3.019 97.956 97.956 0 0 1 4-2.703c.207-.011.098-.186-.011-.142Zm51.078-111.322a76.902 76.902 0 0 1-.131 8.077 38.541 38.541 0 0 1-.959 7.205c-1.09 4.283-3.696 8.436-8.306 10.137a16.936 16.936 0 0 1-13.08-1.09c-4.262-2.093-7.794-5.385-11.053-8.6a100.618 100.618 0 0 1-5.788-6.213c-.926-1.09-1.853-2.18-2.725-3.27-.872-1.09-1.689-2.3-2.627-3.379-.076-.088-.261 0-.196.109 1.875 2.583 7.63 10.791 9.407 12.774 3.27 3.608 6.867 7.271 11.314 9.691a18.97 18.97 0 0 0 14.17 1.983 13.952 13.952 0 0 0 9.581-9.635 28.965 28.965 0 0 0 1.003-8.404c0-3.118-.185-6.235-.447-9.32-.098-.109-.163-.098-.163-.065Z" fill="#263238"/><path d="M193.628 274.571c-10.388 1.025-25.583-16.655-30.727-30.008-.349-.915 7.782-34.564 8.72-41.42.174-1.395 41.518 16.187 41.518 16.187s-6.148 13.756-7.63 25.68c-.175 1.025-1.853 28.58-11.881 29.561Z" fill="#AD6359"/><path d="M213.128 219.352s-6.148 13.755-7.685 25.68c0 .24-.142 1.962-.425 4.458-20.143-4.621-31.436-18.879-37.06-28.798 1.7-7.63 3.27-14.747 3.619-17.516.218-1.406 41.551 16.176 41.551 16.176Zm-1.581-83.037c2.496-.305 16.241 16.263 17.593 24.929 1.351 8.665.785 26.4-1.722 27.075-2.507.676-17.8-51.764-15.871-52.004Z" fill="#263238"/><path d="M156.644 160.96c-4.284 15.446 4.992 59.514 16.165 69.106 16.208 13.887 42.15 14.574 53.835-4.752 11.314-18.726-1.777-75.951-14.17-84.595-18.345-12.742-49.508-2.594-55.83 20.241Z" fill="#AD6359"/><path d="M194.336 177.604a39.048 39.048 0 0 1-3.629 1.69c-1.407.643-2.453 1.297-4.033 1.035a2.058 2.058 0 0 1-1.516-2.016c.142-1.951 1.657-3.161 3.27-4a7.5 7.5 0 0 1 5.374-.709c.419.11.796.341 1.083.665a2.186 2.186 0 0 1 .321 2.41 2.17 2.17 0 0 1-.87.925Zm1.689 9.8c0-.098-.196.196-.152.316.828 2.932 1.297 6.409-1.09 8.066-.076 0 0 .196.065.152 3.096-1.275 2.442-5.896 1.177-8.534Z" fill="#263238"/><path d="M192.625 184.995c-4.829.828-2.813 10.42 1.667 9.657 4.48-.763 2.376-10.355-1.667-9.657Zm20.426-1.602c0-.12.262.087.284.207.534 2.997 1.646 6.333 4.545 6.758.087 0 .109.163 0 .163-3.368.229-4.807-4.207-4.829-7.128Z" fill="#263238"/><path d="M215.057 179.73c4.698-1.373 7.096 8.142 2.736 9.407-4.36 1.264-6.682-8.262-2.736-9.407Zm2.398-6.42a38.303 38.303 0 0 1-4.022-.185c-1.548-.098-2.78 0-4.066-.981a2.074 2.074 0 0 1-.403-2.496c1.035-1.668 2.943-2.028 4.807-2.006a7.627 7.627 0 0 1 5.112 1.886 2.186 2.186 0 0 1 .562 2.373 2.18 2.18 0 0 1-1.99 1.409Zm-18.127 41.42c.851.545 1.766 1.352 2.867 1.21a8.05 8.05 0 0 0 3.03-1.417.108.108 0 0 1 .131.004.108.108 0 0 1 .033.127 4.12 4.12 0 0 1-3.434 2.409 3.268 3.268 0 0 1-2.888-2.18c-.087-.077.131-.153.261-.153Z" fill="#263238"/><path d="M200.56 205.214a10.378 10.378 0 0 0 7.706 3.085 13.201 13.201 0 0 0 3.674-.599c.236-.052.466-.129.686-.229l.622-.24a.738.738 0 0 0 .457-.785 1.55 1.55 0 0 0-.098-.305l-.065-.262c-.414-2.3-1.373-5.733-1.373-5.733.926.251 5.591 1.264 5.275.087-2.67-9.81-5.646-20.645-10.366-29.801a.283.283 0 0 0-.534.186c2.18 9.494 6.05 18.53 8.415 28.045-1.472-.239-3.891-.719-5.079-.446-.306.163 1.962 6.605 2.06 7.63a.497.497 0 0 1 0 .109c-3.75 1.308-6.889.752-11.162-1.09-.218-.099-.436.152-.218.348Z" fill="#263238"/><path d="M210.37 206.817a12.22 12.22 0 0 1-4.022 4.741 5.56 5.56 0 0 1-3.27.894c-2.507-.12-3.02-2.289-2.976-4.24.027-1.043.181-2.079.458-3.085a15.885 15.885 0 0 0 9.81 1.69Z" fill="#263238"/><path d="M206.337 211.558a5.557 5.557 0 0 1-3.27.894c-2.507-.12-3.019-2.289-2.976-4.24 2.649-.284 5.505.915 6.246 3.346Z" fill="#FBBA0C"/><path d="M162.748 199.339c8-.578 10.453-9.962 11.172-22.672.425-7.423-3.782-21.386-3.782-21.386s21.669 6.181 32.929 3.27c11.26-2.91 19.424-14.268 17.44-23.14-1.69-7.63-16.263-15.522-33.441-13.484-11.99 1.417-30.52 14.17-37.322 28.438 0 0-13.81 9.571-9.755 20.525 4.054 10.955 13.701 29.103 22.759 28.449Z" fill="#263238"/><path d="M163.162 198.38c10.737.523 13.702-16.001 12.644-24.187-1.09-8.502-5.744-16.535-8.545-24.558 0 0 0-.065.065 0 5.134 9.451 10.976 21.517 9.265 32.548-1.09 6.943-4.164 18.639-13.461 16.818-.317-.13-.306-.621.032-.621Zm-25.986-30.52c.338-7.194 7.162-15.347 13.56-18.061.054 0 .098.076 0 .109-7.488 4.196-15.26 14.878-11.314 23.402 3.139 6.812 8.088 15.663 13.875 20.535.153.131 0 .338-.196.229-4.447-3.204-6.932-7.924-9.733-12.535-2.398-3.978-6.421-8.665-6.192-13.679Z" fill="#263238"/><path d="M148.415 151.706c7.194-14.987 24.993-33.572 42.978-32.242v.087c-18.824.175-32.874 18.53-42.27 32.624-.283.425-.883-.044-.708-.469Z" fill="#263238"/><path d="M167.86 199.001s-10.562-13.941-16.938-10.126c-6.377 3.815 1.951 24.285 9.69 26.836a7.766 7.766 0 0 0 6.094-.094 7.782 7.782 0 0 0 4.152-4.462l-2.998-12.154Z" fill="#AD6359"/><path d="M153.439 194.685c-.12 0-.131.163 0 .207 5.45 1.962 8.448 6.812 10.606 11.881-1.657-1.918-3.87-2.921-6.453-.927-.142.109 0 .317.153.284a4.762 4.762 0 0 1 5.319 1.46 23.078 23.078 0 0 1 2.681 4.153c.262.469 1.09.186.916-.359v-.12c-.196-6.824-5.864-16.154-13.222-16.579Z" fill="#263238"/><path d="M382.982 95.157a89.775 89.775 0 0 1-.741-10.388c-.087-3.47.034-6.942.36-10.398a87.37 87.37 0 0 1 .73 10.387 89.564 89.564 0 0 1-.349 10.399Zm-47.447 13.233a87.954 87.954 0 0 1-5.831-8.622 88.94 88.94 0 0 1-4.884-9.178 85.937 85.937 0 0 1 5.821 8.6 86.905 86.905 0 0 1 4.894 9.2Zm-34.466 35.185a88.318 88.318 0 0 1-9.363-4.546 86.35 86.35 0 0 1-8.829-5.515 89.566 89.566 0 0 1 9.363 4.556 88.248 88.248 0 0 1 8.829 5.505Zm-12.219 47.709a89.587 89.587 0 0 1-10.377.741 87.184 87.184 0 0 1-10.398-.36 100.263 100.263 0 0 1 20.775-.381Zm13.2 47.426a89.222 89.222 0 0 1-8.622 5.821 86.174 86.174 0 0 1-9.189 4.894 87.312 87.312 0 0 1 8.622-5.821 86.27 86.27 0 0 1 9.189-4.894Zm164.797-1.679a97.867 97.867 0 0 1 18.203 10.061 100.503 100.503 0 0 1-18.192-10.061h-.011Zm12.262-47.709a87.429 87.429 0 0 1 10.377-.73c3.47-.096 6.943.02 10.399.348a87.22 87.22 0 0 1-10.377.731 85.144 85.144 0 0 1-10.399-.349Zm-13.232-47.448a87.795 87.795 0 0 1 8.611-5.82 85.994 85.994 0 0 1 9.189-4.894 85.978 85.978 0 0 1-8.622 5.82 87.037 87.037 0 0 1-9.178 4.894Zm-35.196-34.465a90.13 90.13 0 0 1 4.556-9.309 87.057 87.057 0 0 1 5.504-8.829 87.963 87.963 0 0 1-4.545 9.352 88.404 88.404 0 0 1-5.515 8.786Z" fill="#A6A6A6"/><path d="m289.002 126.952 9.102-1.689 2.038-9.592 2.039 9.592 9.101 1.689-9.069 2.224-2.071 9.058-2.071-9.058-9.069-2.224Zm146.714 159.576 9.102-1.679 2.038-9.602 2.028 9.602 9.112 1.69-9.069 2.213-2.071 9.068-2.071-9.068-9.069-2.224Zm-120.608-20.132 5.09-.937 1.134-5.363 1.144 5.363 5.091.937-5.069 1.243-1.166 5.068-1.156-5.068-5.068-1.243Zm27.697-164.23 5.079-.949 1.145-5.362 1.133 5.362 5.091.949-5.069 1.231-1.155 5.069-1.167-5.069-5.057-1.231Zm-21.473 189.311a1.48 1.48 0 0 0 1.355-1.477 1.48 1.48 0 0 0-1.355-1.477 1.48 1.48 0 0 0-1.355 1.477 1.48 1.48 0 0 0 1.355 1.477Zm143.586-18.77a1.09 1.09 0 0 0 0-2.093 1.085 1.085 0 0 0-.785 1.047 1.09 1.09 0 0 0 .785 1.046ZM315.806 136.446a1.09 1.09 0 0 0 0-2.082 1.095 1.095 0 0 0-.767 1.041 1.092 1.092 0 0 0 .767 1.041Zm170.258 15.87a1.085 1.085 0 0 0 .784-1.046 1.087 1.087 0 0 0-.784-1.046 1.083 1.083 0 0 0-.785 1.046 1.087 1.087 0 0 0 .785 1.046Zm-13.364 9.593c3.641 0 3.641-5.658 0-5.658-3.64 0-3.651 5.658 0 5.658Z" fill="#FBBA0C"/><path d="M464.711 195.11c-4.012 50.14-45.78 65.258-45.78 65.258-3.074 7.63-7.075 27.021-7.075 27.021H356.07s-4-19.391-7.074-27.021c0 0-41.78-15.118-45.78-65.258-2.779-34.88 22.029-86.361 80.442-86.372h.6c58.413.055 83.232 51.568 80.453 86.372Z" fill="#FBBA0C" opacity=".5"/><path d="M457.8 195.404c-3.652 45.867-41.867 59.656-41.867 59.656-2.812 6.976-6.464 32.34-6.464 32.34h-51.012s-3.662-25.364-6.474-32.34c0 0-38.216-13.821-41.878-59.689-2.54-31.871 20.165-78.948 73.575-78.959h.556c53.421.011 76.125 47.088 73.564 78.992Z" fill="#FBBA0C" opacity=".7"/><path d="m355.625 204.033-3.214.6 16.401 87.807 3.214-.6-16.401-87.807Zm56.652.004-16.339 87.818 3.214.598 16.34-87.818-3.215-.598Z" fill="#fff"/><path d="M383.963 233.391c-4.992 0-9.57-4.665-12.786-10.628a6.547 6.547 0 0 1-4.73 2.682c-8.142 0-11.434-16.917-11.576-17.637l1.09-.196c0 .164 3.27 16.743 10.497 16.743 1.439 0 2.888-1.003 4.207-2.616a37.26 37.26 0 0 1-4.12-15.653c0-4.676 1.733-7.357 4.774-7.357 3.543 0 5.57 2.856 5.57 7.826a28.936 28.936 0 0 1-4.938 15.26c3.041 5.842 7.38 10.497 11.99 10.497 3.488 0 6.976-2.725 9.81-7.63.251-.447.502-.905.742-1.374-3.27-3.51-5.091-9.265-5.091-14.747 0-6.028 2.246-9.81 5.854-9.81a3.736 3.736 0 0 1 3.346 2.06c2.441 4.218 1.09 14.355-2.801 22.29a8.141 8.141 0 0 0 5.733 2.409c6.213 0 10.9-16.677 10.965-16.84l1.09.294c-.207.719-4.981 17.636-11.99 17.636a9.139 9.139 0 0 1-6.224-2.529l-.621 1.09c-2.18 3.739-5.799 8.23-10.791 8.23Zm11.347-33.572c-3.521 0-4.763 4.676-4.763 8.72 0 4.36 1.46 10.18 4.501 13.723 3.543-7.51 4.873-17.08 2.671-20.895a2.652 2.652 0 0 0-2.409-1.548Zm-23.98 0c-3.204 0-3.684 3.924-3.684 6.267a36.108 36.108 0 0 0 3.782 14.65 27.61 27.61 0 0 0 4.36-14.17c0-2.529-.588-6.747-4.48-6.747h.022Z" fill="#fff"/><path d="M418.898 287.498h-69.869v38.455h69.869v-38.455Z" fill="#455A64"/><path d="M410.93 325.91c-4.11 7.292-11.99 13.81-27.01 13.81-15.021 0-22.89-6.54-27.022-13.81h54.032Z" fill="#455A64"/><path d="M410.93 325.91a26.163 26.163 0 0 1-4.535 5.919l-48.09-3.695a25.615 25.615 0 0 1-1.407-2.18l54.032-.044Zm10.006-31.076-73.957 6.834v-3.357l73.957-6.834v3.357Zm0 10.148-73.957 6.834v-3.346l73.957-6.845v3.357Zm0 10.148-73.957 6.834v-3.346l73.957-6.846v3.358Z" fill="#37474F"/><path d="M320.808 183.436c2.562.425 5.886-12.797 20.1-28.1 6.311-6.791 30.269-15.26 28.547-23.141-1.722-7.881-23.097.218-33.855 12.677-17.32 20.045-17.146 38.161-14.792 38.564Zm126.092 2.747c4.709 0 4.72-7.325 0-7.325s-4.763 7.325 0 7.325Zm-23.097 55.067c2.572 1.973 15.074-9.571 20.71-23.337 4.687-11.423 5.45-25.866 2.343-26.705-3.106-.84-5.188 18.977-8.971 26.28-4.774 9.232-16.84 21.669-14.082 23.762Z" fill="#fff" opacity=".5"/></svg>