<svg xmlns="http://www.w3.org/2000/svg" fill="none" viewBox="0 0 2238 433"><mask id="ao" width="2238" height="433" x="0" y="0" maskUnits="userSpaceOnUse" style="mask-type:alpha"><g style="mix-blend-mode:luminosity"><mask id="a" width="2238" height="433" x="0" y="0" maskUnits="userSpaceOnUse" style="mask-type:luminance"><path d="M2237.99 0H0v433h2237.99V0Z" fill="#fff"/></mask><g stroke-miterlimit="10" mask="url(#a)"><path d="M-173.22 32.908s343.725-84.487 648.957-62.439c305.262 22.04 339.876 160.6 571.013 191.239C1822.05 264.476 1998.47-66.5 2457.7-78.312 2916.94-90.125 2774 34.034 2787.04 61.2" stroke="url(#b)"/><path d="M-178.979 34.302c2.924 1.819 292.878-69.366 578.326-62.82 24.379.564 48.43 1.707 72.033 3.508 194.944 14.939 265.516 78.59 368.075 128.54 55.652 27.106 113.421 50.289 195.545 60.248 416.35 50.479 657.64-22.958 869.62-98.42 180.77-64.353 330.39-132.256 544.79-138.11 455.02-12.038 321.85 110.18 335.51 137.373" stroke="url(#c)"/><path d="M-184.708 35.705c5.848 3.629 293.743-66.959 579.818-59.892 24.588.623 48.579 1.836 71.914 3.715C660.118-4.806 716.784 59.84 825.103 108.856c57.74 26.136 115.987 47.985 198.167 57.018 412.71 45.335 651.52-30.076 866.7-101.825 184.98-61.676 332.89-125.102 551.14-131.216 450.67-12.626 327.37 108.016 341.7 135.226" stroke="url(#d)"/><path d="M-190.437 37.1c8.803 5.447 294.609-64.544 581.34-56.966 24.797.675 48.729 1.957 71.795 3.914C653.942.442 696.583 66.058 810.75 114.156c59.74 25.166 118.464 45.69 200.76 53.787 408.81 40.226 645.59-37.203 863.78-105.227 189.33-59.035 335.4-117.854 557.53-124.323 446.4-13.008 332.92 105.842 347.87 133.087" stroke="url(#e)"/><path d="M-196.167 38.494c11.727 7.257 295.444-62.136 582.862-54.039 25.005.728 48.877 2.07 71.675 4.114 189.543 17 217.831 83.699 338.026 130.887 61.619 24.196 120.911 43.387 203.388 50.557 404.566 35.151 639.856-44.33 860.846-108.64 193.87-56.402 337.94-110.596 563.89-117.43 442.14-13.37 338.44 103.678 354.08 130.94" stroke="url(#f)"/><path d="M-201.897 39.888c14.651 9.076 296.37-59.901 584.354-51.103 25.215.771 49.027 2.191 71.556 4.313 187.723 17.701 201.628 85.37 328.03 131.667 63.41 23.226 123.268 41.091 205.984 47.327 400.063 30.128 634.333-51.467 857.953-112.044 198.59-53.795 340.48-103.34 570.27-110.536 437.87-13.717 344 101.513 360.26 128.8" stroke="url(#g)"/><path d="M-207.655 41.282C-190.08 52.177 89.58-16.228 378.221-6.893c25.423.822 49.176 2.312 71.406 4.52C635.56 16.038 634.873 84.66 767.631 130.073c65.081 22.265 125.566 38.806 208.61 44.097 395.259 25.175 629.029-58.594 855.029-115.446C2034.78 7.526 2174.28-37.351 2407.9-44.92c433.63-14.047 349.51 99.338 366.43 126.66" stroke="url(#h)"/><path d="M-213.385 42.677c20.5 12.704 298.1-55.121 587.398-45.249 25.632.875 49.325 2.442 71.287 4.72C629.412 21.26 614.015 90.844 753.307 135.382c66.662 21.312 127.804 36.528 211.236 40.866C1354.7 196.53 1588.52 110.545 1816.65 57.39c208.61-48.609 345.55-88.808 583.01-96.75 429.37-14.367 355.07 97.174 372.61 124.514" stroke="url(#i)"/><path d="M-219.114 44.07C-195.66 58.595 79.851-8.66 369.805 1.75c25.842.926 49.475 2.563 71.168 4.918 182.322 19.823 152.005 90.367 297.981 134.014 68.125 20.377 129.983 34.259 213.833 37.628C1337.63 193.802 1571.96 105.522 1802 56.048c213.92-46.01 348.08-81.534 589.37-89.856 425.1-14.662 360.58 95 378.78 122.374" stroke="url(#j)"/><path d="M-224.843 45.465C-198.464 61.798 74.988-4.867 365.569 6.08c26.05.979 49.623 2.685 71.048 5.127C617.119 31.74 571.762 103.253 724.572 146c69.527 19.442 132.101 32.007 216.459 34.398 379.269 10.781 614.609-79.846 846.289-125.666 219.44-43.404 350.62-74.25 595.75-82.963 420.86-14.955 366.14 92.836 384.97 120.227" stroke="url(#k)"/><path d="M-230.572 46.868c29.303 18.151 300.697-47.933 591.934-36.459 26.259 1.03 49.773 2.806 70.929 5.326 178.711 21.252 118.106 93.745 277.958 135.573 70.81 18.532 134.19 29.764 219.055 31.167 373.506 6.183 610.286-86.86 843.366-129.069 225.17-40.78 353.15-66.968 602.11-76.07 416.62-15.232 371.65 90.671 391.14 118.089" stroke="url(#l)"/><path d="M-236.332 48.262c32.227 19.97 301.562-45.534 593.455-33.531 26.468 1.09 49.922 2.935 70.81 5.525 176.891 21.97 100.919 95.476 267.932 136.352 72.034 17.631 136.219 27.547 221.681 27.937 367.564 1.688 606.164-93.831 840.444-132.481 231.08-38.121 355.69-59.676 608.49-69.176 412.36-15.493 377.21 88.496 397.32 115.949" stroke="url(#m)"/><path d="M-242.061 49.657c35.182 21.78 302.398-43.127 594.948-30.605 26.647 1.143 50.071 3.057 70.661 5.724 175.07 22.69 83.581 97.235 257.935 137.14 73.198 16.748 138.219 25.348 224.277 24.707 361.48-2.685 602.29-100.75 837.55-135.884 237.19-35.428 358.22-52.384 614.85-62.283 408.12-15.744 382.72 86.332 403.49 113.801" stroke="url(#n)"/><path d="M-247.79 51.05c38.106 23.6 303.263-40.719 596.469-27.677 26.856 1.195 50.221 3.179 70.542 5.932 173.25 23.408 66.095 99.028 247.91 137.92 74.271 15.882 140.187 23.174 226.902 21.476 355.337-6.954 598.587-107.609 834.617-139.287 243.5-32.692 360.77-45.084 621.24-55.39 403.91-15.986 388.28 84.167 409.67 111.663" stroke="url(#o)"/><path d="M-253.52 52.445c41.03 25.408 304.128-38.312 597.991-24.742 27.065 1.248 50.37 3.309 70.422 6.132 171.46 24.127 48.49 100.863 237.884 138.698 75.286 15.043 142.157 21.027 229.528 18.247C1231.43 179.678 1477.37 76.381 1714 48.09c249.97-29.895 363.33-37.776 627.59-48.497 399.68-16.22 393.8 81.993 415.85 109.514" stroke="url(#p)"/><path d="M-259.279 53.84c43.954 27.226 304.993-35.896 599.483-21.815 27.274 1.307 50.519 3.43 70.303 6.33 169.639 24.854 30.765 102.742 227.887 139.478 76.271 14.211 144.126 18.905 232.124 15.017C1213.44 177.712 1462.18 71.722 1699.29 46.747c256.56-27.028 365.87-30.457 633.98-41.603 395.44-16.437 399.35 79.828 422.05 107.375" stroke="url(#q)"/><path d="M-265.007 55.233c46.878 29.046 305.858-33.479 601.004-18.887 27.483 1.36 50.669 3.56 70.184 6.538 167.789 25.582 12.95 104.674 217.861 140.258 77.225 13.405 146.096 16.809 234.75 11.786C1195.56 175.85 1447.17 67.15 1684.67 45.422c263.28-24.084 368.43-23.14 640.33-34.71 391.23-16.653 404.87 77.655 428.24 105.237" stroke="url(#r)"/><path d="M-270.737 56.628c49.832 30.855 306.694-31.064 602.526-15.96 27.692 1.411 50.788 3.68 70.064 6.737 165.97 26.318-4.983 106.665 207.865 141.037 78.121 12.617 148.095 14.739 237.346 8.556 330.746-22.906 585.156-134.36 822.956-152.91 270.05-21.07 370.97-15.804 646.72-27.816 387.02-16.852 410.41 75.49 434.41 103.089" stroke="url(#s)"/><path d="M-276.466 58.03c52.757 32.675 307.56-28.646 604.048-13.024 27.9 1.472 50.937 3.81 69.945 6.937 164.149 27.045-22.947 108.709 197.838 141.825 79.016 11.846 150.125 12.695 239.972 5.325C1160.14 172.438 1417.3 58.221 1655.37 42.772c276.88-17.961 373.53-8.478 653.07-20.923 382.82-17.051 415.94 73.325 440.59 100.95" stroke="url(#t)"/><path d="M-282.195 59.425c55.681 34.484 308.395-26.222 605.54-10.098 28.109 1.525 51.086 3.932 69.796 7.136 162.299 27.782-41 110.814 187.842 142.604 79.881 11.103 152.213 10.687 242.568 2.096C1142.6 170.845 1402.32 53.848 1640.66 41.438c283.71-14.765 376.1-1.134 659.46-14.029 378.61-17.233 421.49 71.15 446.76 98.802" stroke="url(#u)"/><path d="M-287.955 60.82c58.606 36.302 309.26-23.798 607.063-7.171 28.318 1.584 51.235 4.061 69.676 7.343C549.233 89.51 329.701 173.971 566.6 204.376c80.776 10.366 154.361 8.695 245.194-1.134C1125.29 169.329 1387.34 49.544 1626 40.113c290.53-11.483 378.67 6.218 665.82-7.136 374.4-17.406 427.01 68.986 452.94 96.663" stroke="url(#v)"/><path d="M-293.684 62.214c61.53 38.112 310.096-21.373 608.584-4.244 28.527 1.637 51.384 4.192 69.557 7.543 158.599 29.262-77.196 115.213 167.789 144.163 81.642 9.647 156.57 6.72 247.82-4.365C1108.19 167.866 1372.34 45.301 1611.35 38.78c297.3-8.115 381.24 13.57 672.21-.243 370.19-17.58 432.55 66.821 459.11 94.524" stroke="url(#w)"/><path d="M-299.413 63.608c64.484 39.931 310.931-18.94 610.076-1.316 28.736 1.697 51.533 4.312 69.437 7.742 156.749 29.998-95.338 117.498 157.793 144.942 82.508 8.946 158.838 4.772 250.417-7.595 303.02-40.936 568.9-166.28 808.36-169.944 303.95-4.65 383.83 20.94 678.56 6.651 366.02-17.744 438.08 64.647 465.29 92.376" stroke="url(#x)"/><path d="M-305.142 65.002c67.408 41.75 311.797-16.515 611.598 1.62 28.945 1.749 51.653 4.442 69.318 7.95 154.899 30.742-113.451 119.854 147.767 145.73 83.402 8.261 161.195 2.849 253.042-10.825C1074.71 165.086 1341.99 36.987 1582.02 36.13c310.48-1.109 386.4 28.31 684.94 13.544 361.84-17.9 443.63 62.482 471.47 90.237" stroke="url(#y)"/><path d="M-310.872 66.396c70.333 43.56 312.633-14.08 613.12 4.547 29.154 1.81 51.802 4.572 69.199 8.149 153.019 31.488-131.564 122.262 137.771 146.51 84.327 7.586 163.641.935 255.638-14.055C1058.39 163.726 1326.65 32.891 1567.4 34.796c316.9 2.511 388.99 35.688 691.3 20.438 357.66-18.048 449.15 60.316 477.65 88.089" stroke="url(#z)"/><path d="M-316.631 67.79c73.257 45.379 313.349-11.474 614.612 7.474 29.332 1.88 51.951 4.703 69.049 8.348 151.139 32.242-149.647 124.739 127.745 147.29 85.252 6.928 166.178-.97 258.264-17.286C1042.19 162.384 1311.07 28.82 1552.66 33.454c323.13 6.2 391.59 43.083 697.68 27.33 353.49-18.185 454.7 58.144 483.83 85.951" stroke="url(#A)"/><path d="M-322.36 69.185c76.211 47.188 314.184-9.059 616.134 10.4 29.541 1.932 52.07 4.824 68.93 8.548 149.259 32.986-167.67 127.267 117.718 148.069 86.208 6.287 168.774-2.867 260.86-20.516C1026.31 161.05 1295.38 24.794 1537.98 32.12c329.19 9.95 394.18 50.48 704.04 34.224 349.3-18.324 460.22 55.979 490 83.812" stroke="url(#B)"/><path d="M-328.089 70.588c79.135 49.007 315.05-6.642 617.655 13.328 29.751 1.991 52.22 4.953 68.811 8.755 147.379 33.739-185.663 129.848 107.722 148.848 87.192 5.646 171.46-4.746 263.486-23.746 281.155-58.048 550.005-196.98 793.775-186.97 335.07 13.753 396.81 57.884 710.42 41.118 345.16-18.454 465.77 53.805 496.21 81.664" stroke="url(#C)"/><path d="M-333.818 71.982c82.059 50.825 315.885-4.235 619.177 16.263 29.959 2.044 52.369 5.084 68.691 8.955 145.47 34.493-203.567 132.472 97.696 149.636 88.207 5.023 174.205-6.625 266.112-26.976C995.369 158.391 1263.6 16.818 1508.73 29.487c340.75 17.606 399.41 65.305 716.79 48.011 341.01-18.575 471.29 51.64 502.38 79.525" stroke="url(#D)"/><path d="M-339.547 73.376c84.984 52.636 316.75-1.818 620.669 19.19 30.168 2.096 52.488 5.214 68.572 9.154 143.381 35.299-221.442 135.157 87.699 150.416 89.251 4.408 177.04-8.504 268.708-30.206 274.08-64.898 541.329-209.087 787.949-193.785 346.2 21.485 402.04 72.727 723.17 54.904 336.86-18.697 476.84 49.475 508.56 77.378" stroke="url(#E)"/><path d="M-345.307 74.77c87.909 54.455 317.586.59 622.191 22.118 30.377 2.156 52.638 5.343 68.453 9.362 141.56 36.025-239.226 137.875 77.673 151.195 90.355 3.801 179.965-10.384 271.334-33.437C965.231 155.655 1231.07 8.877 1479.37 26.82c351.49 25.4 404.75 80.278 729.53 61.798 332.8-18.688 482.36 47.301 514.73 75.238" stroke="url(#F)"/><path d="M-351.036 76.165c90.863 56.264 318.452 3.005 623.713 25.045 305.262 22.039-224.724 148.934 135.98 161.534C769.362 275.353 1129.59-2.087 1464.72 25.486c356.56 29.332 407.31 87.614 735.91 68.692 328.57-18.922 487.91 45.136 520.92 73.099" stroke="url(#G)"/></g><mask id="H" width="2238" height="433" x="0" y="0" maskUnits="userSpaceOnUse" style="mask-type:luminance"><path d="M2237.99 0H0v433h2237.99V0Z" fill="#fff"/></mask><g stroke-miterlimit="10" stroke-width="1.009" mask="url(#H)"><path d="M-744.654 236.271s655.642-97.659 964.186-71.116c308.544 26.543 169.669 175.261 494.506 250.62 324.832 75.36 1109.592-297.8 1329.362-277.925 227.53 20.585 259.13 217.79 247.56 244.506" stroke="url(#I)"/><path d="M-749.756 237.016c3.581 1.35 409.493-59.036 733.583-69.939 85.014-2.788 161.941-2.199 223.74 3.568 147.976 13.692 187.782 56.42 236.779 104.717 49.564 48.842 96.532 103.617 261.129 139.383 160.359 34.848 427.215-35.541 685.835-111.03 271.43-79.222 527.84-167.069 641.32-156.045 224.55 21.815 261.1 213.599 253.91 237.917" stroke="url(#J)"/><path d="M-754.859 237.752c7.161 2.702 406.24-56.853 729.913-66.249 85.431-2.486 160.657-1.377 220.546 4.633 143.112 14.349 179.666 56.627 233.795 103.972 54.13 47.37 102.53 100.144 267.515 133.606 161.971 32.848 426.74-37.498 684.82-109.185 272.47-75.68 525.4-158.946 640.13-147.03 221.53 23.001 263.07 209.408 260.23 231.335" stroke="url(#K)"/><path d="M-759.992 238.496c10.713 4.053 403.018-54.532 726.213-62.568 85.88-2.139 159.405-.572 217.384 5.698 138.307 14.956 171.489 56.81 230.811 103.227 58.605 45.872 108.647 96.672 273.93 127.831 163.642 30.847 426.354-39.455 683.814-107.341 273.63-72.147 522.97-150.84 638.96-138.023 218.54 24.144 265.04 205.216 266.56 224.744" stroke="url(#L)"/><path d="M-765.094 239.233c14.294 5.412 399.854-52.194 722.513-58.888 86.327-1.793 158.181.233 214.19 6.763 133.504 15.562 163.195 56.957 227.798 102.491 62.962 44.365 114.854 93.19 280.316 122.054 165.432 28.855 426.147-41.421 682.797-105.496 274.91-68.639 520.53-142.743 637.8-129.017 215.56 25.236 267.03 201.025 272.91 218.163" stroke="url(#M)"/><path d="M-770.197 239.977c17.874 6.764 396.691-49.855 718.843-55.207 86.774-1.438 156.927 1.03 211.027 7.828 128.699 16.16 154.809 57.096 224.814 101.747 67.169 42.849 121.15 89.7 286.731 116.278 167.312 26.846 426.022-43.387 681.752-103.661 276.38-65.131 518.08-134.671 636.6-120.01 212.61 26.292 269.01 196.833 279.24 211.573" stroke="url(#N)"/><path d="M-775.3 240.713c21.455 8.115 393.528-47.508 715.142-51.518 87.222-1.091 155.675 1.836 207.835 8.894 123.865 16.766 146.305 57.208 221.83 101.001 71.257 41.326 127.595 86.202 293.117 110.502 169.371 24.854 426.116-45.335 680.766-101.816 277.99-61.65 515.6-126.609 635.44-111.003 209.68 27.313 270.98 192.641 285.6 204.99" stroke="url(#O)"/><path d="M-780.402 241.449c25.006 9.466 390.365-45.144 711.442-47.837 87.67-.736 154.421 2.632 204.672 9.959 119.061 17.354 137.681 57.312 218.816 100.256 75.196 39.793 134.13 82.686 299.532 104.726 171.49 22.845 426.32-47.292 679.75-99.971 279.81-58.169 513.16-118.564 634.25-101.998 206.76 28.293 272.97 188.451 291.92 198.401" stroke="url(#P)"/><path d="M-785.504 242.194c28.587 10.817 387.232-42.78 707.742-44.157 88.147-.381 153.138 3.429 201.479 11.024 114.227 17.944 128.938 57.399 215.832 99.512 78.986 38.269 140.784 79.144 305.918 98.949 173.728 20.828 426.743-49.223 678.733-98.126 281.78-54.688 510.74-110.528 633.09-92.983 203.89 29.237 274.94 184.259 298.28 191.819" stroke="url(#Q)"/><path d="M-790.638 242.93c32.168 12.168 384.069-40.399 704.072-40.477 88.594-.017 151.885 4.227 198.316 12.09 109.393 18.532 120.046 57.485 212.848 98.767 82.596 36.745 147.558 75.585 312.333 93.173 176.085 18.792 427.339-51.137 677.719-96.282 283.96-51.206 508.3-102.517 631.92-83.976 201.06 30.154 276.92 180.068 304.61 185.229" stroke="url(#R)"/><path d="M-795.74 243.675c35.748 13.527 380.936-38.009 700.372-36.788 89.042.338 150.631 5.014 195.123 13.155 104.558 19.113 111.004 57.58 209.863 98.022 86.088 35.221 154.392 71.991 318.72 87.397 178.562 16.74 428.112-53.025 676.712-94.437 286.34-47.708 505.87-94.515 630.72-74.97 198.26 31.038 278.88 175.876 310.93 178.647" stroke="url(#S)"/><path d="M-800.842 244.411c39.299 14.878 377.832-35.61 696.671-33.107 89.52.701 149.349 5.811 191.96 14.22 99.695 19.693 101.814 57.675 206.85 97.278 89.43 33.722 161.344 68.37 325.135 81.62 181.128 14.653 429.096-54.878 675.696-92.593 288.94-44.2 503.49-86.53 629.56-65.963 195.48 31.895 280.88 171.685 317.29 172.057" stroke="url(#T)"/><path d="M-805.945 245.156c42.88 16.229 374.699-33.202 692.971-29.427 89.968 1.065 148.096 6.599 188.767 15.285 94.861 20.256 92.504 57.78 203.866 96.533 92.623 32.233 168.387 64.716 331.521 75.845 183.754 12.531 430.26-56.689 674.68-90.749 291.77-40.658 501.1-78.554 628.37-56.948 192.73 32.726 282.85 167.493 323.61 165.475" stroke="url(#U)"/><path d="M-811.048 245.892c46.461 17.58 371.566-30.786 689.301-25.746 90.445 1.437 146.842 7.387 185.604 16.35 90.027 20.819 83.044 57.909 200.882 95.788 95.697 30.769 175.488 61.019 337.937 70.068 186.469 10.384 431.604-58.463 673.664-88.903 294.79-37.082 498.77-70.605 627.2-47.942 190.08 33.531 284.83 163.302 329.97 158.885" stroke="url(#V)"/><path d="M-816.15 246.628c50.042 18.931 368.433-28.361 685.601-22.057 90.892 1.81 145.559 8.166 182.411 17.415 85.193 21.382 73.436 58.066 197.898 95.044 98.68 29.323 182.62 57.286 344.322 64.292 189.245 8.192 433.158-60.179 672.648-87.068 297.98-33.454 496.45-62.664 626.04-38.935 187.43 34.311 286.79 159.11 336.3 152.294" stroke="url(#W)"/><path d="M-821.253 247.373c53.622 20.282 365.33-25.928 681.901-18.377 91.37 2.183 144.305 8.946 179.248 18.481 80.388 21.936 63.708 58.247 194.884 94.298 101.515 27.903 189.811 53.519 350.738 58.516 192.049 5.958 434.822-61.832 671.632-85.223 301.42-29.773 494.15-54.731 624.85-29.929 184.83 35.082 288.79 154.919 342.65 145.713" stroke="url(#X)"/><path d="M-826.386 248.109c57.173 21.641 362.197-23.495 678.201-14.696 91.817 2.555 143.052 9.725 176.085 19.546 75.554 22.472 53.89 58.463 191.9 93.554 104.29 26.508 197.003 49.708 357.124 52.739 194.884 3.68 436.646-63.417 670.586-83.379 304.97-26.014 491.92-46.815 623.69-20.922 182.26 35.826 290.76 150.727 348.98 139.123" stroke="url(#Y)"/><path d="M-831.488 248.854c60.754 22.992 359.063-21.044 674.53-11.007 92.295 2.936 141.799 10.505 172.892 20.611 70.78 23.018 43.924 58.732 188.916 92.809 106.976 25.149 204.194 45.863 363.539 46.954 197.719 1.351 438.591-64.941 669.581-81.533 308.69-22.179 489.7-38.918 622.49-11.908 179.75 36.554 292.72 146.536 355.3 132.541" stroke="url(#Z)"/><path d="M-836.59 249.59c64.334 24.343 355.93-18.585 670.83-7.327 92.742 3.317 140.575 11.276 169.729 21.676 65.976 23.547 33.898 59.036 185.902 92.065 109.602 23.815 211.386 41.984 369.955 41.178 200.524-1.022 440.614-66.379 668.564-79.689 312.51-18.238 487.52-31.029 621.32-2.901 177.31 37.272 294.7 142.344 361.66 125.951" stroke="url(#aa)"/><path d="M-841.693 250.335c67.916 25.694 352.767-16.117 667.13-3.646 93.22 3.698 139.352 12.046 166.536 22.741 61.232 24.075 23.813 59.39 182.919 91.32 112.198 22.516 218.547 38.078 376.34 35.402 203.299-3.438 442.675-67.756 667.548-77.845 316.39-14.202 485.38-23.157 620.16 6.105 174.89 37.974 296.7 138.153 367.99 119.37" stroke="url(#ab)"/><path d="M-846.796 251.071c71.467 27.045 349.634-13.64 663.43.034 93.667 4.079 138.129 12.817 163.373 23.807 56.487 24.603 13.637 59.788 179.935 90.575 114.764 21.243 225.649 34.129 382.756 29.626 206.014-5.907 444.733-69.047 666.532-76.001 320.27-10.045 483.29-15.293 618.97 15.112 172.53 38.658 298.67 133.962 374.34 112.779" stroke="url(#ac)"/><path d="M-851.898 251.815c75.047 28.397 346.471-11.162 659.759 3.724 94.115 4.469 136.906 13.579 160.18 24.872 51.773 25.122 3.433 60.247 176.951 89.83 117.331 20.005 232.692 30.163 389.142 23.85 208.67-8.409 446.792-70.259 665.516-74.156 324.15-5.776 481.23-7.439 617.81 24.118 170.2 39.342 300.63 129.77 380.66 106.198" stroke="url(#ad)"/><path d="M-857.031 252.552c78.628 29.755 343.307-8.669 656.059 7.404 94.563 4.858 135.712 14.35 157.018 25.937 47.117 25.633-6.804 60.75 173.936 89.085 119.867 18.792 239.674 26.162 395.557 18.073 211.237-10.963 448.762-71.41 664.501-72.319 327.94-1.377 479.23.398 616.61 33.133 167.94 40.009 302.61 125.579 387.03 99.607" stroke="url(#ae)"/><path d="M-862.134 253.288c82.209 31.106 340.115-6.175 652.359 11.084 95.011 5.257 134.518 15.112 153.825 27.002 42.462 26.154-17.039 61.305 170.952 88.341 122.433 17.614 246.597 22.144 401.943 12.297 213.714-13.544 450.642-72.493 663.485-70.475 331.59 3.144 477.26 8.227 615.45 42.14 165.7 40.667 304.61 121.387 393.35 93.025" stroke="url(#af)"/><path d="M-867.236 254.032c85.759 32.458 336.922-3.671 648.689 14.766 95.457 5.646 133.354 15.882 150.661 28.067 37.837 26.673-27.274 61.91 167.969 87.604 125.029 16.454 253.43 18.117 408.358 6.521 216.071-16.168 452.372-73.514 662.479-68.63 335.04 7.785 475.35 16.038 614.28 51.146 163.52 41.325 306.57 117.196 399.7 86.435" stroke="url(#ag)"/><path d="M-872.338 254.768c89.34 33.809 333.729-1.169 644.988 18.455 95.906 6.045 132.22 16.644 147.469 29.132 33.242 27.193-37.479 62.569 164.955 86.86 127.684 15.32 260.174 14.064 414.744.745 218.308-18.81 453.954-74.485 661.462-66.786 338.23 12.548 473.5 23.849 613.09 60.152 161.4 41.975 308.54 113.005 406.03 79.854" stroke="url(#ah)"/><path d="M-877.441 255.513c92.921 35.16 330.536 1.351 641.288 22.135 96.323 6.443 131.057 17.415 144.306 30.198 28.676 27.712-47.654 63.261 161.97 86.115 130.341 14.211 266.829 10.011 421.161-5.032 220.456-21.485 455.326-75.411 660.446-64.941 341.16 17.406 471.68 31.644 611.93 69.159 159.31 42.615 310.51 108.813 412.35 73.263" stroke="url(#ai)"/><path d="M-882.544 256.249c96.502 36.511 327.314 3.871 637.588 25.816 96.771 6.841 129.953 18.186 141.113 31.263 24.14 28.24-57.8 63.997 158.987 85.37 133.056 13.12 273.393 5.949 427.546-10.808 222.486-24.179 456.46-76.303 659.43-63.097 343.73 22.36 469.92 39.438 610.73 78.174 157.26 43.257 312.52 104.622 418.72 66.674" stroke="url(#aj)"/><path d="M-887.647 256.994c100.083 37.87 324.061 6.4 633.918 29.496 97.189 7.249 128.819 18.957 137.95 32.328 19.605 28.768-67.886 64.777 156.003 84.625 135.861 12.047 279.898 1.88 433.961-16.583 224.366-26.89 457.385-77.178 658.415-61.253 345.96 27.401 468.22 47.215 609.57 87.181 155.26 43.888 314.48 100.43 425.04 60.091" stroke="url(#ak)"/><path d="M-892.779 257.73c103.634 39.221 320.808 8.929 630.218 33.185 97.606 7.656 127.714 19.728 134.756 33.393 15.129 29.306-77.911 65.591 152.99 83.881 138.695 10.981 286.313-2.191 440.346-22.36 226.157-29.609 458.042-78.035 657.399-59.408 347.85 32.493 466.55 54.983 608.41 96.187 153.29 44.53 316.45 96.239 431.39 53.501" stroke="url(#al)"/><path d="M-897.882 258.466c107.214 40.572 317.436 11.57 626.518 36.866 97.994 8.097 126.61 20.507 131.593 34.458 10.653 29.851-87.878 66.431 150.005 83.136 141.591 9.942 292.64-6.261 446.763-28.136 227.857-32.337 458.489-78.884 656.383-57.572 349.34 37.628 464.94 62.75 607.22 105.193 151.37 45.162 318.45 92.047 437.72 46.92" stroke="url(#am)"/><path d="M-902.984 259.211c110.795 41.923 314.273 14.003 622.817 40.546C28.407 326.3-364.226 395.519-4.745 417.672c359.481 22.161 779.596-129.796 1108.525-89.64 350.47 42.789 463.38 70.51 606.04 114.2 149.5 45.794 320.42 87.855 444.08 40.329" stroke="url(#an)"/></g></g></mask><g mask="url(#ao)"><path d="M231.518 230c0-127.025 102.974-230 230-230H2238.01v433H231.518V230Z" fill="#fff" fill-opacity=".5"/></g><defs><linearGradient id="b" x1="2798.24" x2="2470.05" y1="-120.049" y2="1105.74" gradientUnits="userSpaceOnUse"><stop stop-color="#E10005"/><stop offset=".191" stop-color="#FFDF0F"/><stop offset=".461" stop-color="#80C41C"/><stop offset=".607" stop-color="#0047CC"/><stop offset=".81" stop-color="#B80856"/><stop offset="1" stop-color="#FF9BBC"/></linearGradient><linearGradient id="c" x1="2793.03" x2="2480.17" y1="-113.5" y2="1085.45" gradientUnits="userSpaceOnUse"><stop stop-color="#E10005"/><stop offset=".191" stop-color="#FFDF0F"/><stop offset=".461" stop-color="#80C41C"/><stop offset=".607" stop-color="#0047CC"/><stop offset=".81" stop-color="#B80856"/><stop offset="1" stop-color="#FF9BBC"/></linearGradient><linearGradient id="d" x1="2788.02" x2="2489.64" y1="-107.014" y2="1065.86" gradientUnits="userSpaceOnUse"><stop stop-color="#E10005"/><stop offset=".191" stop-color="#FFDF0F"/><stop offset=".461" stop-color="#80C41C"/><stop offset=".607" stop-color="#0047CC"/><stop offset=".81" stop-color="#B80856"/><stop offset="1" stop-color="#FF9BBC"/></linearGradient><linearGradient id="e" x1="2783.33" x2="2498.7" y1="-100.564" y2="1046.86" gradientUnits="userSpaceOnUse"><stop stop-color="#E10005"/><stop offset=".191" stop-color="#FFDF0F"/><stop offset=".461" stop-color="#80C41C"/><stop offset=".607" stop-color="#0047CC"/><stop offset=".81" stop-color="#B80856"/><stop offset="1" stop-color="#FF9BBC"/></linearGradient><linearGradient id="f" x1="2778.94" x2="2507.28" y1="-94.163" y2="1028.67" gradientUnits="userSpaceOnUse"><stop stop-color="#E10005"/><stop offset=".191" stop-color="#FFDF0F"/><stop offset=".461" stop-color="#80C41C"/><stop offset=".607" stop-color="#0047CC"/><stop offset=".81" stop-color="#B80856"/><stop offset="1" stop-color="#FF9BBC"/></linearGradient><linearGradient id="g" x1="2776.51" x2="2517.14" y1="-87.788" y2="1011.44" gradientUnits="userSpaceOnUse"><stop stop-color="#E10005"/><stop offset=".191" stop-color="#FFDF0F"/><stop offset=".461" stop-color="#80C41C"/><stop offset=".607" stop-color="#0047CC"/><stop offset=".81" stop-color="#B80856"/><stop offset="1" stop-color="#FF9BBC"/></linearGradient><linearGradient id="h" x1="2774.33" x2="2526.42" y1="-81.459" y2="995.229" gradientUnits="userSpaceOnUse"><stop stop-color="#E10005"/><stop offset=".191" stop-color="#FFDF0F"/><stop offset=".461" stop-color="#80C41C"/><stop offset=".607" stop-color="#0047CC"/><stop offset=".81" stop-color="#B80856"/><stop offset="1" stop-color="#FF9BBC"/></linearGradient><linearGradient id="i" x1="2772.27" x2="2534.94" y1="-75.19" y2="980.144" gradientUnits="userSpaceOnUse"><stop stop-color="#E10005"/><stop offset=".191" stop-color="#FFDF0F"/><stop offset=".461" stop-color="#80C41C"/><stop offset=".607" stop-color="#0047CC"/><stop offset=".81" stop-color="#B80856"/><stop offset="1" stop-color="#FF9BBC"/></linearGradient><linearGradient id="j" x1="2770.15" x2="2542.55" y1="-68.978" y2="966.212" gradientUnits="userSpaceOnUse"><stop stop-color="#E10005"/><stop offset=".191" stop-color="#FFDF0F"/><stop offset=".461" stop-color="#80C41C"/><stop offset=".607" stop-color="#0047CC"/><stop offset=".81" stop-color="#B80856"/><stop offset="1" stop-color="#FF9BBC"/></linearGradient><linearGradient id="k" x1="2768.04" x2="2549.34" y1="-62.794" y2="953.538" gradientUnits="userSpaceOnUse"><stop stop-color="#E10005"/><stop offset=".191" stop-color="#FFDF0F"/><stop offset=".461" stop-color="#80C41C"/><stop offset=".607" stop-color="#0047CC"/><stop offset=".81" stop-color="#B80856"/><stop offset="1" stop-color="#FF9BBC"/></linearGradient><linearGradient id="l" x1="2765.92" x2="2555.33" y1="-56.67" y2="942.128" gradientUnits="userSpaceOnUse"><stop stop-color="#E10005"/><stop offset=".191" stop-color="#FFDF0F"/><stop offset=".461" stop-color="#80C41C"/><stop offset=".607" stop-color="#0047CC"/><stop offset=".81" stop-color="#B80856"/><stop offset="1" stop-color="#FF9BBC"/></linearGradient><linearGradient id="m" x1="2763.8" x2="2560.56" y1="-50.615" y2="931.998" gradientUnits="userSpaceOnUse"><stop stop-color="#E10005"/><stop offset=".191" stop-color="#FFDF0F"/><stop offset=".461" stop-color="#80C41C"/><stop offset=".607" stop-color="#0047CC"/><stop offset=".81" stop-color="#B80856"/><stop offset="1" stop-color="#FF9BBC"/></linearGradient><linearGradient id="n" x1="2761.65" x2="2565.1" y1="-44.588" y2="922.982" gradientUnits="userSpaceOnUse"><stop stop-color="#E10005"/><stop offset=".191" stop-color="#FFDF0F"/><stop offset=".461" stop-color="#80C41C"/><stop offset=".607" stop-color="#0047CC"/><stop offset=".81" stop-color="#B80856"/><stop offset="1" stop-color="#FF9BBC"/></linearGradient><linearGradient id="o" x1="2759.56" x2="2569.24" y1="-38.593" y2="914.748" gradientUnits="userSpaceOnUse"><stop stop-color="#E10005"/><stop offset=".191" stop-color="#FFDF0F"/><stop offset=".461" stop-color="#80C41C"/><stop offset=".607" stop-color="#0047CC"/><stop offset=".81" stop-color="#B80856"/><stop offset="1" stop-color="#FF9BBC"/></linearGradient><linearGradient id="p" x1="2757.44" x2="2572.86" y1="-32.633" y2="907.375" gradientUnits="userSpaceOnUse"><stop stop-color="#E10005"/><stop offset=".191" stop-color="#FFDF0F"/><stop offset=".461" stop-color="#80C41C"/><stop offset=".607" stop-color="#0047CC"/><stop offset=".81" stop-color="#B80856"/><stop offset="1" stop-color="#FF9BBC"/></linearGradient><linearGradient id="q" x1="2755.32" x2="2575.97" y1="-26.728" y2="900.973" gradientUnits="userSpaceOnUse"><stop stop-color="#E10005"/><stop offset=".191" stop-color="#FFDF0F"/><stop offset=".461" stop-color="#80C41C"/><stop offset=".607" stop-color="#0047CC"/><stop offset=".81" stop-color="#B80856"/><stop offset="1" stop-color="#FF9BBC"/></linearGradient><linearGradient id="r" x1="2753.24" x2="2578.6" y1="-20.847" y2="895.582" gradientUnits="userSpaceOnUse"><stop stop-color="#E10005"/><stop offset=".191" stop-color="#FFDF0F"/><stop offset=".461" stop-color="#80C41C"/><stop offset=".607" stop-color="#0047CC"/><stop offset=".81" stop-color="#B80856"/><stop offset="1" stop-color="#FF9BBC"/></linearGradient><linearGradient id="s" x1="2751.15" x2="2580.74" y1="-15.013" y2="891.224" gradientUnits="userSpaceOnUse"><stop stop-color="#E10005"/><stop offset=".191" stop-color="#FFDF0F"/><stop offset=".461" stop-color="#80C41C"/><stop offset=".607" stop-color="#0047CC"/><stop offset=".81" stop-color="#B80856"/><stop offset="1" stop-color="#FF9BBC"/></linearGradient><linearGradient id="t" x1="2749.03" x2="2582.35" y1="-9.205" y2="887.963" gradientUnits="userSpaceOnUse"><stop stop-color="#E10005"/><stop offset=".191" stop-color="#FFDF0F"/><stop offset=".461" stop-color="#80C41C"/><stop offset=".607" stop-color="#0047CC"/><stop offset=".81" stop-color="#B80856"/><stop offset="1" stop-color="#FF9BBC"/></linearGradient><linearGradient id="u" x1="2746.88" x2="2583.49" y1="-3.45" y2="885.66" gradientUnits="userSpaceOnUse"><stop stop-color="#E10005"/><stop offset=".191" stop-color="#FFDF0F"/><stop offset=".461" stop-color="#80C41C"/><stop offset=".607" stop-color="#0047CC"/><stop offset=".81" stop-color="#B80856"/><stop offset="1" stop-color="#FF9BBC"/></linearGradient><linearGradient id="v" x1="2744.76" x2="2584.28" y1="2.28" y2="884.263" gradientUnits="userSpaceOnUse"><stop stop-color="#E10005"/><stop offset=".191" stop-color="#FFDF0F"/><stop offset=".461" stop-color="#80C41C"/><stop offset=".607" stop-color="#0047CC"/><stop offset=".81" stop-color="#B80856"/><stop offset="1" stop-color="#FF9BBC"/></linearGradient><linearGradient id="w" x1="2742.67" x2="2584.73" y1="7.966" y2="883.699" gradientUnits="userSpaceOnUse"><stop stop-color="#E10005"/><stop offset=".191" stop-color="#FFDF0F"/><stop offset=".461" stop-color="#80C41C"/><stop offset=".607" stop-color="#0047CC"/><stop offset=".81" stop-color="#B80856"/><stop offset="1" stop-color="#FF9BBC"/></linearGradient><linearGradient id="x" x1="2740.52" x2="2576.66" y1="8.122" y2="900.127" gradientUnits="userSpaceOnUse"><stop stop-color="#E10005"/><stop offset=".191" stop-color="#FFDF0F"/><stop offset=".461" stop-color="#80C41C"/><stop offset=".607" stop-color="#0047CC"/><stop offset=".81" stop-color="#B80856"/><stop offset="1" stop-color="#FF9BBC"/></linearGradient><linearGradient id="y" x1="2738.43" x2="2565.63" y1="6.539" y2="922.289" gradientUnits="userSpaceOnUse"><stop stop-color="#E10005"/><stop offset=".191" stop-color="#FFDF0F"/><stop offset=".461" stop-color="#80C41C"/><stop offset=".607" stop-color="#0047CC"/><stop offset=".81" stop-color="#B80856"/><stop offset="1" stop-color="#FF9BBC"/></linearGradient><linearGradient id="z" x1="2736.35" x2="2553.19" y1="4.293" y2="946.643" gradientUnits="userSpaceOnUse"><stop stop-color="#E10005"/><stop offset=".191" stop-color="#FFDF0F"/><stop offset=".461" stop-color="#80C41C"/><stop offset=".607" stop-color="#0047CC"/><stop offset=".81" stop-color="#B80856"/><stop offset="1" stop-color="#FF9BBC"/></linearGradient><linearGradient id="A" x1="2734.17" x2="2539.97" y1="1.895" y2="971.721" gradientUnits="userSpaceOnUse"><stop stop-color="#E10005"/><stop offset=".191" stop-color="#FFDF0F"/><stop offset=".461" stop-color="#80C41C"/><stop offset=".607" stop-color="#0047CC"/><stop offset=".81" stop-color="#B80856"/><stop offset="1" stop-color="#FF9BBC"/></linearGradient><linearGradient id="B" x1="2732.02" x2="2526.19" y1="-.59" y2="997.26" gradientUnits="userSpaceOnUse"><stop stop-color="#E10005"/><stop offset=".191" stop-color="#FFDF0F"/><stop offset=".461" stop-color="#80C41C"/><stop offset=".607" stop-color="#0047CC"/><stop offset=".81" stop-color="#B80856"/><stop offset="1" stop-color="#FF9BBC"/></linearGradient><linearGradient id="C" x1="2729.99" x2="2511.97" y1="-3.144" y2="1023.19" gradientUnits="userSpaceOnUse"><stop stop-color="#E10005"/><stop offset=".191" stop-color="#FFDF0F"/><stop offset=".461" stop-color="#80C41C"/><stop offset=".607" stop-color="#0047CC"/><stop offset=".81" stop-color="#B80856"/><stop offset="1" stop-color="#FF9BBC"/></linearGradient><linearGradient id="D" x1="2727.9" x2="2497.13" y1="-5.773" y2="1049.41" gradientUnits="userSpaceOnUse"><stop stop-color="#E10005"/><stop offset=".191" stop-color="#FFDF0F"/><stop offset=".461" stop-color="#80C41C"/><stop offset=".607" stop-color="#0047CC"/><stop offset=".81" stop-color="#B80856"/><stop offset="1" stop-color="#FF9BBC"/></linearGradient><linearGradient id="E" x1="2725.78" x2="2481.71" y1="-8.495" y2="1075.84" gradientUnits="userSpaceOnUse"><stop stop-color="#E10005"/><stop offset=".191" stop-color="#FFDF0F"/><stop offset=".461" stop-color="#80C41C"/><stop offset=".607" stop-color="#0047CC"/><stop offset=".81" stop-color="#B80856"/><stop offset="1" stop-color="#FF9BBC"/></linearGradient><linearGradient id="F" x1="2723.63" x2="2465.76" y1="-11.262" y2="1102.41" gradientUnits="userSpaceOnUse"><stop stop-color="#E10005"/><stop offset=".191" stop-color="#FFDF0F"/><stop offset=".461" stop-color="#80C41C"/><stop offset=".607" stop-color="#0047CC"/><stop offset=".81" stop-color="#B80856"/><stop offset="1" stop-color="#FF9BBC"/></linearGradient><linearGradient id="G" x1="2721.55" x2="2449.37" y1="-14.094" y2="1129.06" gradientUnits="userSpaceOnUse"><stop stop-color="#E10005"/><stop offset=".191" stop-color="#FFDF0F"/><stop offset=".461" stop-color="#80C41C"/><stop offset=".607" stop-color="#0047CC"/><stop offset=".81" stop-color="#B80856"/><stop offset="1" stop-color="#FF9BBC"/></linearGradient><linearGradient id="I" x1="2293.01" x2="1903.31" y1="91.706" y2="1434.38" gradientUnits="userSpaceOnUse"><stop stop-color="#E10005"/><stop offset=".191" stop-color="#FFDF0F"/><stop offset=".461" stop-color="#80C41C"/><stop offset=".607" stop-color="#0047CC"/><stop offset=".81" stop-color="#B80856"/><stop offset="1" stop-color="#FF9BBC"/></linearGradient><linearGradient id="J" x1="2287.36" x2="1926.01" y1="103.171" y2="1399.92" gradientUnits="userSpaceOnUse"><stop stop-color="#E10005"/><stop offset=".191" stop-color="#FFDF0F"/><stop offset=".461" stop-color="#80C41C"/><stop offset=".607" stop-color="#0047CC"/><stop offset=".81" stop-color="#B80856"/><stop offset="1" stop-color="#FF9BBC"/></linearGradient><linearGradient id="K" x1="2282.22" x2="1948.32" y1="114.606" y2="1364.8" gradientUnits="userSpaceOnUse"><stop stop-color="#E10005"/><stop offset=".191" stop-color="#FFDF0F"/><stop offset=".461" stop-color="#80C41C"/><stop offset=".607" stop-color="#0047CC"/><stop offset=".81" stop-color="#B80856"/><stop offset="1" stop-color="#FF9BBC"/></linearGradient><linearGradient id="L" x1="2277.68" x2="1970.26" y1="125.989" y2="1329.09" gradientUnits="userSpaceOnUse"><stop stop-color="#E10005"/><stop offset=".191" stop-color="#FFDF0F"/><stop offset=".461" stop-color="#80C41C"/><stop offset=".607" stop-color="#0047CC"/><stop offset=".81" stop-color="#B80856"/><stop offset="1" stop-color="#FF9BBC"/></linearGradient><linearGradient id="M" x1="2273.23" x2="1991.27" y1="137.324" y2="1292.78" gradientUnits="userSpaceOnUse"><stop stop-color="#E10005"/><stop offset=".191" stop-color="#FFDF0F"/><stop offset=".461" stop-color="#80C41C"/><stop offset=".607" stop-color="#0047CC"/><stop offset=".81" stop-color="#B80856"/><stop offset="1" stop-color="#FF9BBC"/></linearGradient><linearGradient id="N" x1="2268.81" x2="2009.95" y1="147.897" y2="1257.84" gradientUnits="userSpaceOnUse"><stop stop-color="#E10005"/><stop offset=".191" stop-color="#FFDF0F"/><stop offset=".461" stop-color="#80C41C"/><stop offset=".607" stop-color="#0047CC"/><stop offset=".81" stop-color="#B80856"/><stop offset="1" stop-color="#FF9BBC"/></linearGradient><linearGradient id="O" x1="2264.43" x2="2018.94" y1="153.495" y2="1236.04" gradientUnits="userSpaceOnUse"><stop stop-color="#E10005"/><stop offset=".191" stop-color="#FFDF0F"/><stop offset=".461" stop-color="#80C41C"/><stop offset=".607" stop-color="#0047CC"/><stop offset=".81" stop-color="#B80856"/><stop offset="1" stop-color="#FF9BBC"/></linearGradient><linearGradient id="P" x1="2259.98" x2="2027.4" y1="159.023" y2="1214.27" gradientUnits="userSpaceOnUse"><stop stop-color="#E10005"/><stop offset=".191" stop-color="#FFDF0F"/><stop offset=".461" stop-color="#80C41C"/><stop offset=".607" stop-color="#0047CC"/><stop offset=".81" stop-color="#B80856"/><stop offset="1" stop-color="#FF9BBC"/></linearGradient><linearGradient id="Q" x1="2255.57" x2="2035.42" y1="164.495" y2="1192.61" gradientUnits="userSpaceOnUse"><stop stop-color="#E10005"/><stop offset=".191" stop-color="#FFDF0F"/><stop offset=".461" stop-color="#80C41C"/><stop offset=".607" stop-color="#0047CC"/><stop offset=".81" stop-color="#B80856"/><stop offset="1" stop-color="#FF9BBC"/></linearGradient><linearGradient id="R" x1="2251.18" x2="2039.45" y1="169.61" y2="1178.87" gradientUnits="userSpaceOnUse"><stop stop-color="#E10005"/><stop offset=".191" stop-color="#FFDF0F"/><stop offset=".461" stop-color="#80C41C"/><stop offset=".607" stop-color="#0047CC"/><stop offset=".81" stop-color="#B80856"/><stop offset="1" stop-color="#FF9BBC"/></linearGradient><linearGradient id="S" x1="2246.7" x2="2037.27" y1="174.206" y2="1178.33" gradientUnits="userSpaceOnUse"><stop stop-color="#E10005"/><stop offset=".191" stop-color="#FFDF0F"/><stop offset=".461" stop-color="#80C41C"/><stop offset=".607" stop-color="#0047CC"/><stop offset=".81" stop-color="#B80856"/><stop offset="1" stop-color="#FF9BBC"/></linearGradient><linearGradient id="T" x1="2242.32" x2="2035.1" y1="178.731" y2="1177.88" gradientUnits="userSpaceOnUse"><stop stop-color="#E10005"/><stop offset=".191" stop-color="#FFDF0F"/><stop offset=".461" stop-color="#80C41C"/><stop offset=".607" stop-color="#0047CC"/><stop offset=".81" stop-color="#B80856"/><stop offset="1" stop-color="#FF9BBC"/></linearGradient><linearGradient id="U" x1="2237.84" x2="2032.66" y1="183.203" y2="1177.76" gradientUnits="userSpaceOnUse"><stop stop-color="#E10005"/><stop offset=".191" stop-color="#FFDF0F"/><stop offset=".461" stop-color="#80C41C"/><stop offset=".607" stop-color="#0047CC"/><stop offset=".81" stop-color="#B80856"/><stop offset="1" stop-color="#FF9BBC"/></linearGradient><linearGradient id="V" x1="2233.51" x2="2030.18" y1="187.604" y2="1177.99" gradientUnits="userSpaceOnUse"><stop stop-color="#E10005"/><stop offset=".191" stop-color="#FFDF0F"/><stop offset=".461" stop-color="#80C41C"/><stop offset=".607" stop-color="#0047CC"/><stop offset=".81" stop-color="#B80856"/><stop offset="1" stop-color="#FF9BBC"/></linearGradient><linearGradient id="W" x1="2229.07" x2="2027.36" y1="191.947" y2="1178.64" gradientUnits="userSpaceOnUse"><stop stop-color="#E10005"/><stop offset=".191" stop-color="#FFDF0F"/><stop offset=".461" stop-color="#80C41C"/><stop offset=".607" stop-color="#0047CC"/><stop offset=".81" stop-color="#B80856"/><stop offset="1" stop-color="#FF9BBC"/></linearGradient><linearGradient id="X" x1="2224.65" x2="2024.3" y1="196.222" y2="1179.85" gradientUnits="userSpaceOnUse"><stop stop-color="#E10005"/><stop offset=".191" stop-color="#FFDF0F"/><stop offset=".461" stop-color="#80C41C"/><stop offset=".607" stop-color="#0047CC"/><stop offset=".81" stop-color="#B80856"/><stop offset="1" stop-color="#FF9BBC"/></linearGradient><linearGradient id="Y" x1="2220.18" x2="2020.94" y1="200.417" y2="1181.53" gradientUnits="userSpaceOnUse"><stop stop-color="#E10005"/><stop offset=".191" stop-color="#FFDF0F"/><stop offset=".461" stop-color="#80C41C"/><stop offset=".607" stop-color="#0047CC"/><stop offset=".81" stop-color="#B80856"/><stop offset="1" stop-color="#FF9BBC"/></linearGradient><linearGradient id="Z" x1="2215.76" x2="2017.36" y1="204.558" y2="1183.8" gradientUnits="userSpaceOnUse"><stop stop-color="#E10005"/><stop offset=".191" stop-color="#FFDF0F"/><stop offset=".461" stop-color="#80C41C"/><stop offset=".607" stop-color="#0047CC"/><stop offset=".81" stop-color="#B80856"/><stop offset="1" stop-color="#FF9BBC"/></linearGradient><linearGradient id="aa" x1="2211.37" x2="2013.56" y1="208.611" y2="1186.6" gradientUnits="userSpaceOnUse"><stop stop-color="#E10005"/><stop offset=".191" stop-color="#FFDF0F"/><stop offset=".461" stop-color="#80C41C"/><stop offset=".607" stop-color="#0047CC"/><stop offset=".81" stop-color="#B80856"/><stop offset="1" stop-color="#FF9BBC"/></linearGradient><linearGradient id="ab" x1="2206.93" x2="2009.39" y1="212.595" y2="1190.03" gradientUnits="userSpaceOnUse"><stop stop-color="#E10005"/><stop offset=".191" stop-color="#FFDF0F"/><stop offset=".461" stop-color="#80C41C"/><stop offset=".607" stop-color="#0047CC"/><stop offset=".81" stop-color="#B80856"/><stop offset="1" stop-color="#FF9BBC"/></linearGradient><linearGradient id="ac" x1="2202.54" x2="2004.98" y1="216.493" y2="1194.09" gradientUnits="userSpaceOnUse"><stop stop-color="#E10005"/><stop offset=".191" stop-color="#FFDF0F"/><stop offset=".461" stop-color="#80C41C"/><stop offset=".607" stop-color="#0047CC"/><stop offset=".81" stop-color="#B80856"/><stop offset="1" stop-color="#FF9BBC"/></linearGradient><linearGradient id="ad" x1="2198.12" x2="1999.73" y1="220.026" y2="1199.73" gradientUnits="userSpaceOnUse"><stop stop-color="#E10005"/><stop offset=".191" stop-color="#FFDF0F"/><stop offset=".461" stop-color="#80C41C"/><stop offset=".607" stop-color="#0047CC"/><stop offset=".81" stop-color="#B80856"/><stop offset="1" stop-color="#FF9BBC"/></linearGradient><linearGradient id="ae" x1="2193.68" x2="1988.79" y1="220.221" y2="1215.27" gradientUnits="userSpaceOnUse"><stop stop-color="#E10005"/><stop offset=".191" stop-color="#FFDF0F"/><stop offset=".461" stop-color="#80C41C"/><stop offset=".607" stop-color="#0047CC"/><stop offset=".81" stop-color="#B80856"/><stop offset="1" stop-color="#FF9BBC"/></linearGradient><linearGradient id="af" x1="2189.23" x2="1977.48" y1="220.394" y2="1231.36" gradientUnits="userSpaceOnUse"><stop stop-color="#E10005"/><stop offset=".191" stop-color="#FFDF0F"/><stop offset=".461" stop-color="#80C41C"/><stop offset=".607" stop-color="#0047CC"/><stop offset=".81" stop-color="#B80856"/><stop offset="1" stop-color="#FF9BBC"/></linearGradient><linearGradient id="ag" x1="2184.9" x2="1965.91" y1="220.551" y2="1248.03" gradientUnits="userSpaceOnUse"><stop stop-color="#E10005"/><stop offset=".191" stop-color="#FFDF0F"/><stop offset=".461" stop-color="#80C41C"/><stop offset=".607" stop-color="#0047CC"/><stop offset=".81" stop-color="#B80856"/><stop offset="1" stop-color="#FF9BBC"/></linearGradient><linearGradient id="ah" x1="2180.4" x2="1953.72" y1="220.674" y2="1265.31" gradientUnits="userSpaceOnUse"><stop stop-color="#E10005"/><stop offset=".191" stop-color="#FFDF0F"/><stop offset=".461" stop-color="#80C41C"/><stop offset=".607" stop-color="#0047CC"/><stop offset=".81" stop-color="#B80856"/><stop offset="1" stop-color="#FF9BBC"/></linearGradient><linearGradient id="ai" x1="2176.01" x2="1941.22" y1="220.782" y2="1283.16" gradientUnits="userSpaceOnUse"><stop stop-color="#E10005"/><stop offset=".191" stop-color="#FFDF0F"/><stop offset=".461" stop-color="#80C41C"/><stop offset=".607" stop-color="#0047CC"/><stop offset=".81" stop-color="#B80856"/><stop offset="1" stop-color="#FF9BBC"/></linearGradient><linearGradient id="aj" x1="2171.57" x2="1928.16" y1="220.85" y2="1301.72" gradientUnits="userSpaceOnUse"><stop stop-color="#E10005"/><stop offset=".191" stop-color="#FFDF0F"/><stop offset=".461" stop-color="#80C41C"/><stop offset=".607" stop-color="#0047CC"/><stop offset=".81" stop-color="#B80856"/><stop offset="1" stop-color="#FF9BBC"/></linearGradient><linearGradient id="ak" x1="2167.21" x2="1914.66" y1="220.898" y2="1320.96" gradientUnits="userSpaceOnUse"><stop stop-color="#E10005"/><stop offset=".191" stop-color="#FFDF0F"/><stop offset=".461" stop-color="#80C41C"/><stop offset=".607" stop-color="#0047CC"/><stop offset=".81" stop-color="#B80856"/><stop offset="1" stop-color="#FF9BBC"/></linearGradient><linearGradient id="al" x1="2162.73" x2="1900.45" y1="220.904" y2="1340.95" gradientUnits="userSpaceOnUse"><stop stop-color="#E10005"/><stop offset=".191" stop-color="#FFDF0F"/><stop offset=".461" stop-color="#80C41C"/><stop offset=".607" stop-color="#0047CC"/><stop offset=".81" stop-color="#B80856"/><stop offset="1" stop-color="#FF9BBC"/></linearGradient><linearGradient id="am" x1="2158.32" x2="1885.71" y1="220.878" y2="1361.65" gradientUnits="userSpaceOnUse"><stop stop-color="#E10005"/><stop offset=".191" stop-color="#FFDF0F"/><stop offset=".461" stop-color="#80C41C"/><stop offset=".607" stop-color="#0047CC"/><stop offset=".81" stop-color="#B80856"/><stop offset="1" stop-color="#FF9BBC"/></linearGradient><linearGradient id="an" x1="2153.9" x2="1870.31" y1="220.824" y2="1383.17" gradientUnits="userSpaceOnUse"><stop stop-color="#E10005"/><stop offset=".191" stop-color="#FFDF0F"/><stop offset=".461" stop-color="#80C41C"/><stop offset=".607" stop-color="#0047CC"/><stop offset=".81" stop-color="#B80856"/><stop offset="1" stop-color="#FF9BBC"/></linearGradient></defs></svg>