<svg width="1440" height="200" viewBox="0 0 1440 200" fill="none" xmlns="http://www.w3.org/2000/svg">
<g style="mix-blend-mode:luminosity">
<mask id="mask0_148_584" style="mask-type:luminance" maskUnits="userSpaceOnUse" x="-5" y="0" width="1450" height="200">
<path d="M1444.99 0H-5V200H1444.99V0Z" fill="white"/>
</mask>
<g mask="url(#mask0_148_584)">
<path d="M-117.229 15.2C-117.229 15.2 105.47 -23.824 303.23 -13.64C501.008 -3.45996 523.435 60.5401 673.19 74.6921C1175.5 122.16 1289.8 -30.716 1587.34 -36.172C1884.88 -41.628 1792.27 15.72 1800.72 28.268" stroke="url(#paint0_linear_148_584)" stroke-opacity="0.5" stroke-miterlimit="10"/>
<path d="M-120.96 15.844C-119.066 16.684 68.7949 -16.196 253.736 -13.172C269.532 -12.912 285.114 -12.384 300.407 -11.552C426.71 -4.65196 472.434 24.748 538.882 47.8201C574.938 60.3401 612.367 71.048 665.572 75.648C935.328 98.964 1091.66 65.0441 1229 30.188C1346.12 0.464047 1443.06 -30.9 1581.97 -33.604C1876.78 -39.164 1790.49 17.2881 1799.35 29.8481" stroke="url(#paint1_linear_148_584)" stroke-opacity="0.5" stroke-miterlimit="10"/>
<path d="M-124.672 16.492C-120.883 18.168 65.6437 -14.436 250.991 -11.172C266.922 -10.884 282.465 -10.324 297.584 -9.45599C422.689 -2.21998 459.403 27.64 529.583 50.28C566.992 62.352 604.731 72.444 657.974 76.616C925.372 97.556 1080.1 62.724 1219.51 29.584C1339.35 1.09602 1435.19 -28.2 1576.59 -31.024C1868.58 -36.856 1788.7 18.868 1797.98 31.436" stroke="url(#paint2_linear_148_584)" stroke-opacity="0.5" stroke-miterlimit="10"/>
<path d="M-128.384 17.136C-122.681 19.652 62.4924 -12.676 248.265 -9.17596C264.331 -8.86395 279.836 -8.27196 294.781 -7.36796C418.687 0.204045 446.314 30.512 520.283 52.7281C558.988 64.3521 597.036 73.8321 650.357 77.5721C915.222 96.1521 1068.63 60.3881 1210 28.968C1332.66 1.70004 1427.3 -25.468 1571.22 -28.456C1860.44 -34.464 1786.92 20.432 1796.6 33.0161" stroke="url(#paint3_linear_148_584)" stroke-opacity="0.5" stroke-miterlimit="10"/>
<path d="M-132.096 17.78C-124.498 21.132 59.3216 -10.92 245.539 -7.17997C261.74 -6.84397 277.207 -6.22397 291.977 -5.27997C414.782 2.57203 433.11 33.38 510.984 55.176C550.907 66.352 589.322 75.216 642.759 78.528C904.878 94.7641 1057.32 58.052 1200.5 28.348C1326.11 2.29604 1419.45 -22.736 1565.84 -25.892C1852.3 -32.068 1785.12 21.996 1795.25 34.588" stroke="url(#paint4_linear_148_584)" stroke-opacity="0.5" stroke-miterlimit="10"/>
<path d="M-135.808 18.424C-126.316 22.616 56.2092 -9.24397 242.794 -5.17997C259.13 -4.82397 274.558 -4.16797 289.155 -3.18797C410.78 4.98804 419.789 36.244 501.685 57.628C542.768 68.356 581.55 76.608 635.142 79.488C894.342 93.404 1046.13 55.716 1191.01 27.736C1319.67 2.88803 1411.6 -19.996 1560.49 -23.32C1844.18 -29.656 1783.36 23.568 1793.9 36.172" stroke="url(#paint5_linear_148_584)" stroke-opacity="0.5" stroke-miterlimit="10"/>
<path d="M-139.54 19.0681C-128.152 24.1001 53.0385 -7.49593 240.049 -3.18393C256.52 -2.80393 271.91 -2.11593 286.313 -1.09593C406.778 7.40807 406.333 39.1041 492.347 60.0801C534.512 70.3641 573.701 78.0041 627.505 80.4481C883.593 92.0761 1035.05 53.3841 1181.48 27.1241C1313.33 3.47607 1403.71 -17.2519 1555.07 -20.7479C1836.02 -27.2359 1781.52 25.1361 1792.49 37.7561" stroke="url(#paint6_linear_148_584)" stroke-opacity="0.5" stroke-miterlimit="10"/>
<path d="M-143.252 19.712C-129.97 25.58 49.887 -5.74797 237.322 -1.18797C253.93 -0.783973 269.28 -0.0599741 283.509 0.992026C402.795 9.82003 392.819 41.96 483.067 62.532C526.257 72.376 565.871 79.404 619.926 81.408C872.708 90.776 1024.2 51.06 1172.01 26.508C1307.16 4.05603 1395.88 -14.512 1549.74 -18.18C1827.92 -24.816 1779.78 26.704 1791.15 39.332" stroke="url(#paint7_linear_148_584)" stroke-opacity="0.5" stroke-miterlimit="10"/>
<path d="M-146.964 20.356C-131.768 27.064 46.7357 -3.99995 234.596 0.808046C251.339 1.23605 266.651 1.99205 280.706 3.08005C398.832 12.236 379.189 44.82 473.767 64.98C517.905 74.392 557.983 80.804 612.309 82.36C861.649 89.516 1013.47 48.74 1162.51 25.888C1301.11 4.63604 1388.03 -11.772 1544.36 -15.616C1819.78 -22.388 1777.99 28.264 1789.78 40.908" stroke="url(#paint8_linear_148_584)" stroke-opacity="0.5" stroke-miterlimit="10"/>
<path d="M-150.675 21.0001C-133.585 28.5441 43.5847 -2.24794 231.851 2.80806C248.729 3.26006 264.002 4.04806 277.884 5.17606C394.83 14.6601 365.444 47.6921 464.449 67.4361C509.496 76.4161 550.037 82.2201 604.692 83.3241C850.417 88.3041 1002.9 46.4441 1153 25.2801C1295.18 5.23206 1380.17 -9.01594 1538.99 -13.0399C1811.66 -19.9479 1776.21 29.8401 1788.41 42.4921" stroke="url(#paint9_linear_148_584)" stroke-opacity="0.5" stroke-miterlimit="10"/>
<path d="M-154.387 21.648C-135.402 30.032 40.4334 -0.491995 229.125 4.80801C246.139 5.28401 261.373 6.10401 275.081 7.26801C390.867 17.084 351.601 50.568 455.169 69.888C501.047 78.448 542.111 83.636 597.094 84.284C839.088 87.14 992.497 44.164 1143.51 24.668C1289.4 5.832 1372.32 -6.264 1533.61 -10.468C1803.54 -17.504 1774.41 31.412 1787.03 44.076" stroke="url(#paint10_linear_148_584)" stroke-opacity="0.5" stroke-miterlimit="10"/>
<path d="M-158.119 22.2921C-137.239 31.5161 37.2624 1.26009 226.38 6.80409C243.528 7.30809 258.724 8.16009 272.257 9.35609C386.865 19.5041 337.642 53.4561 445.85 72.3361C492.521 80.4801 534.106 85.0601 589.477 85.2401C827.623 86.0201 982.211 41.9001 1134 24.0481C1283.71 6.44009 1364.45 -3.51591 1528.24 -7.90391C1795.4 -15.0599 1772.63 32.9721 1785.66 45.6521" stroke="url(#paint11_linear_148_584)" stroke-opacity="0.5" stroke-miterlimit="10"/>
<path d="M-161.831 22.936C-139.037 32.996 34.0921 3.01603 223.635 8.80003C240.899 9.32803 256.076 10.212 269.416 11.444C382.844 21.924 323.568 56.356 436.532 74.788C483.956 82.524 526.083 86.496 581.84 86.2C816.043 84.96 972.062 39.664 1124.48 23.436C1278.16 7.07203 1356.58 -0.759967 1522.85 -5.33197C1787.27 -12.604 1770.81 34.544 1784.27 47.232" stroke="url(#paint12_linear_148_584)" stroke-opacity="0.5" stroke-miterlimit="10"/>
<path d="M-165.542 23.58C-140.854 34.48 30.9408 4.77201 220.909 10.796C238.309 11.348 253.447 12.264 266.613 13.536C378.861 24.348 309.436 59.276 427.233 77.24C475.353 84.576 518.06 87.944 574.242 87.16C804.462 83.948 962.066 37.456 1114.99 22.824C1272.75 7.72401 1348.73 2.00001 1517.49 -2.75999C1779.18 -10.144 1769.05 36.116 1782.92 48.816" stroke="url(#paint13_linear_148_584)" stroke-opacity="0.5" stroke-miterlimit="10"/>
<path d="M-169.255 24.224C-142.672 35.96 27.7891 6.52804 218.182 12.796C235.718 13.372 250.817 14.324 263.809 15.628C374.897 26.772 295.225 62.216 417.933 79.692C466.711 86.64 510.036 89.4041 566.644 88.1201C792.842 82.9921 952.187 35.28 1105.5 22.212C1267.45 8.40404 1340.9 4.76404 1512.11 -0.187961C1771.06 -7.67996 1767.25 37.684 1781.54 50.396" stroke="url(#paint14_linear_148_584)" stroke-opacity="0.5" stroke-miterlimit="10"/>
<path d="M-172.986 24.8681C-144.508 37.4441 24.6188 8.28806 215.418 14.7921C233.089 15.3961 248.149 16.3761 260.967 17.7161C370.876 29.1961 280.9 65.1721 408.615 82.1401C458.031 88.7041 501.994 90.8721 559.008 89.0761C781.185 82.0841 942.346 33.1281 1095.97 21.5921C1262.19 9.10806 1333.01 7.52406 1506.72 2.37606C1762.92 -5.21594 1765.46 39.2481 1780.17 51.9721" stroke="url(#paint15_linear_148_584)" stroke-opacity="0.5" stroke-miterlimit="10"/>
<path d="M-176.698 25.512C-146.325 38.928 21.4675 10.048 212.692 16.788C230.498 17.416 245.52 18.432 258.164 19.808C366.874 31.624 266.555 68.156 399.316 84.592C449.35 90.784 493.971 92.356 551.41 90.036C769.604 81.224 932.622 31.016 1086.49 20.98C1257.07 9.85601 1325.2 10.292 1501.37 4.94801C1754.84 -2.74399 1763.68 40.816 1778.82 53.556" stroke="url(#paint16_linear_148_584)" stroke-opacity="0.5" stroke-miterlimit="10"/>
<path d="M-180.41 26.156C-148.124 40.408 18.2965 11.808 209.966 18.784C227.907 19.436 242.871 20.484 255.36 21.896C362.891 34.052 252.132 71.164 390.035 87.04C440.65 92.868 485.986 93.848 543.811 90.992C758.101 80.412 922.936 28.932 1077 20.364C1251.97 10.632 1317.35 13.064 1496.01 7.51603C1746.76 -0.267968 1761.92 42.384 1777.46 55.132" stroke="url(#paint17_linear_148_584)" stroke-opacity="0.5" stroke-miterlimit="10"/>
<path d="M-184.122 26.804C-149.941 41.896 15.1455 13.572 207.24 20.788C225.317 21.468 240.242 22.548 252.557 23.992C358.909 36.484 237.69 74.204 380.736 89.5C431.931 94.9721 478.002 95.364 536.214 91.96C746.656 79.648 913.269 26.892 1067.51 19.756C1246.9 11.46 1309.52 15.84 1490.64 10.092C1738.66 2.21604 1760.12 43.96 1776.09 56.72" stroke="url(#paint18_linear_148_584)" stroke-opacity="0.5" stroke-miterlimit="10"/>
<path d="M-187.834 27.4481C-151.758 43.3761 11.9749 15.3361 204.495 22.7841C222.707 23.4881 237.593 24.6001 249.715 26.0801C354.869 38.9121 223.151 77.2641 371.418 91.9481C423.173 97.0761 470.036 96.8841 528.577 92.9161C735.288 78.9121 903.564 24.8721 1057.98 19.1401C1241.8 12.3201 1301.65 18.6161 1485.24 12.6601C1730.54 4.70006 1758.32 45.5241 1774.7 58.2961" stroke="url(#paint19_linear_148_584)" stroke-opacity="0.5" stroke-miterlimit="10"/>
<path d="M-191.565 28.0921C-153.595 44.8601 8.80388 17.1001 201.749 24.7801C220.096 25.5121 234.944 26.6561 246.892 28.1721C350.847 41.3441 208.612 80.3561 362.099 94.4001C414.434 99.1881 462.109 98.4161 520.96 93.8761C724.074 78.2121 893.858 22.8841 1048.49 18.5281C1236.71 13.2241 1293.82 21.4001 1479.87 15.2321C1722.44 7.19206 1756.52 47.0961 1773.33 59.8801" stroke="url(#paint20_linear_148_584)" stroke-opacity="0.5" stroke-miterlimit="10"/>
<path d="M-195.277 28.736C-155.412 46.34 5.6333 18.864 199.023 26.776C217.506 27.532 232.315 28.712 244.089 30.26C346.845 43.776 194.074 83.476 352.8 96.848C405.695 101.304 454.241 99.9521 513.362 94.8321C712.996 77.536 884.134 20.924 1038.99 17.912C1231.61 14.164 1285.99 24.18 1474.51 17.8C1714.36 9.68004 1754.77 48.664 1771.97 61.46" stroke="url(#paint21_linear_148_584)" stroke-opacity="0.5" stroke-miterlimit="10"/>
<path d="M-198.989 29.38C-157.21 47.824 2.46292 20.632 196.278 28.772C214.896 29.556 229.667 30.764 241.267 32.348C342.824 46.204 179.497 86.62 343.501 99.296C396.957 103.428 446.411 101.5 505.745 95.788C702.073 76.88 874.332 18.984 1029.48 17.292C1226.41 15.144 1278.16 26.964 1469.12 20.364C1706.26 12.168 1752.95 50.224 1770.58 63.032" stroke="url(#paint22_linear_148_584)" stroke-opacity="0.5" stroke-miterlimit="10"/>
<path d="M-202.701 30.024C-159.027 49.308 -0.688579 22.396 193.552 30.7721C212.305 31.5801 227.018 32.824 238.463 34.444C338.822 48.6441 164.958 89.8041 334.201 101.756C388.237 105.572 438.639 103.072 498.147 96.7561C691.305 76.2521 864.472 17.084 1019.99 16.688C1221.15 16.176 1270.33 29.764 1463.76 22.944C1698.2 14.676 1751.19 51.8041 1769.23 64.6241" stroke="url(#paint23_linear_148_584)" stroke-opacity="0.5" stroke-miterlimit="10"/>
<path d="M-206.413 30.6681C-160.845 50.7881 -3.85918 24.1641 190.826 32.7681C209.715 33.6041 224.389 34.8801 235.66 36.5321C334.8 51.0761 150.42 93.0041 324.921 104.204C379.557 107.708 430.944 104.636 490.549 97.7121C680.729 75.6241 854.535 15.1921 1010.52 16.0721C1215.83 17.2321 1262.54 32.5561 1458.41 25.5121C1690.13 17.1761 1749.41 53.3721 1767.87 66.2001" stroke="url(#paint24_linear_148_584)" stroke-opacity="0.5" stroke-miterlimit="10"/>
<path d="M-210.144 31.312C-162.681 52.272 -7.12635 26.012 188.062 34.764C207.066 35.632 221.721 36.936 232.799 38.62C330.721 53.512 135.843 96.236 315.564 106.652C370.799 109.852 423.231 106.204 482.893 98.668C670.232 75.004 844.443 13.312 1000.96 15.452C1210.32 18.316 1254.67 35.352 1452.99 28.076C1682.02 19.676 1747.59 54.932 1766.46 67.776" stroke="url(#paint25_linear_148_584)" stroke-opacity="0.5" stroke-miterlimit="10"/>
<path d="M-213.856 31.9561C-164.479 53.7521 -10.297 27.7721 185.336 36.7601C204.476 37.6521 219.072 38.9881 229.995 40.7081C326.7 55.9441 121.362 99.4921 306.265 109.1C362.119 112.004 415.613 107.776 475.276 99.6241C659.946 74.3881 834.274 11.4521 991.453 14.8361C1204.74 19.4321 1246.84 38.1521 1447.6 30.6441C1673.91 22.1801 1745.78 56.5001 1765.07 69.3561" stroke="url(#paint26_linear_148_584)" stroke-opacity="0.5" stroke-miterlimit="10"/>
<path d="M-217.568 32.604C-166.297 55.24 -13.4485 29.536 182.61 38.76C201.885 39.68 216.443 41.048 227.192 42.804C322.679 58.388 106.901 102.78 296.985 111.556C353.476 114.164 408.073 109.364 467.697 100.588C649.854 73.776 824.046 9.60401 981.979 14.228C1199.07 20.58 1239.07 40.964 1442.26 33.22C1665.89 24.696 1744.04 58.072 1763.76 70.94" stroke="url(#paint27_linear_148_584)" stroke-opacity="0.5" stroke-miterlimit="10"/>
<path d="M-221.28 33.248C-168.114 56.724 -16.619 31.292 179.884 40.76C199.294 41.704 213.813 43.108 224.389 44.896C318.638 60.828 92.4976 106.084 287.686 114.012C344.835 116.332 400.553 110.952 460.099 101.552C639.898 73.16 813.684 7.76803 972.506 13.62C1193.27 21.752 1231.28 43.784 1436.91 35.796C1657.85 27.216 1742.26 59.648 1762.4 72.528" stroke="url(#paint28_linear_148_584)" stroke-opacity="0.5" stroke-miterlimit="10"/>
<path d="M-224.992 33.892C-169.931 58.204 -19.7703 33.052 177.138 42.756C196.684 43.724 211.146 45.164 221.566 46.984C314.462 63.288 78.0944 109.412 278.386 116.46C336.212 118.496 393.09 112.532 452.482 102.508C630.057 72.532 803.205 5.932 962.994 13C1187.3 22.924 1223.47 46.592 1431.53 38.36C1649.79 29.724 1740.48 61.212 1761.03 74.1" stroke="url(#paint29_linear_148_584)" stroke-opacity="0.5" stroke-miterlimit="10"/>
<path d="M-228.724 34.536C-171.768 59.688 -22.9604 34.808 174.393 44.752C194.074 45.748 208.497 47.22 218.743 49.076C310.46 65.716 63.749 112.76 269.068 118.912C327.609 120.668 385.666 114.116 444.864 103.468C620.371 71.896 792.611 4.09999 953.482 12.388C1181.21 24.12 1215.72 49.468 1426.14 40.932C1641.76 32.3 1738.66 62.78 1759.64 75.684" stroke="url(#paint30_linear_148_584)" stroke-opacity="0.5" stroke-miterlimit="10"/>
<path d="M-232.436 35.18C-173.566 61.168 -26.1116 36.568 171.667 46.748C369.446 56.928 26.0687 115.54 259.768 121.36C493.468 127.184 726.858 -0.963982 943.99 11.772C1175 25.32 1207.89 52.24 1420.78 43.5C1633.66 34.76 1736.9 64.348 1758.28 77.264" stroke="url(#paint31_linear_148_584)" stroke-opacity="0.5" stroke-miterlimit="10"/>
</g>
<mask id="mask1_148_584" style="mask-type:luminance" maskUnits="userSpaceOnUse" x="-5" y="0" width="1450" height="200">
<path d="M1444.99 0H-5V200H1444.99V0Z" fill="white"/>
</mask>
<g mask="url(#mask1_148_584)">
<path d="M-487.46 109.132C-487.46 109.132 -62.6711 64.024 137.234 76.284C337.139 88.544 247.163 157.236 457.624 192.044C668.085 226.852 1176.53 54.492 1318.92 63.672C1466.33 73.18 1486.81 164.268 1479.31 176.608" stroke="url(#paint32_linear_148_584)" stroke-opacity="0.5" stroke-width="1.0094" stroke-miterlimit="10"/>
<path d="M-490.766 109.476C-488.446 110.1 -225.457 82.208 -15.4787 77.172C39.6016 75.884 89.4426 76.156 129.482 78.82C225.355 85.144 251.145 104.88 282.891 127.188C315.003 149.748 345.433 175.048 452.075 191.568C555.972 207.664 728.869 175.152 896.43 140.284C1072.28 103.692 1238.41 63.116 1311.94 68.208C1457.42 78.284 1481.1 166.868 1476.45 178.1" stroke="url(#paint33_linear_148_584)" stroke-opacity="0.5" stroke-width="1.0094" stroke-miterlimit="10"/>
<path d="M-494.072 109.816C-489.432 111.064 -230.87 83.556 -21.1629 79.216C34.188 78.068 82.927 78.58 121.729 81.356C214.451 87.984 238.134 107.512 273.204 129.38C308.275 151.26 339.633 175.636 446.527 191.092C551.467 206.264 723.011 173.772 890.224 140.66C1066.75 105.704 1230.62 67.2439 1304.96 72.7479C1448.49 83.3719 1475.4 169.472 1473.56 179.6" stroke="url(#paint34_linear_148_584)" stroke-opacity="0.5" stroke-width="1.0094" stroke-miterlimit="10"/>
<path d="M-497.397 110.16C-490.457 112.032 -236.283 84.9719 -26.8854 81.2599C28.7555 80.2719 76.3926 80.9959 113.957 83.8919C203.566 90.7999 225.065 110.132 263.499 131.572C301.47 152.76 333.891 176.224 440.978 190.616C547.001 204.864 717.211 172.392 884.018 141.036C1061.3 107.712 1222.85 71.3639 1298 77.2839C1439.6 88.4359 1469.72 172.072 1470.7 181.092" stroke="url(#paint35_linear_148_584)" stroke-opacity="0.5" stroke-width="1.0094" stroke-miterlimit="10"/>
<path d="M-500.704 110.5C-491.443 113 -241.639 86.392 -32.5889 83.3C23.3421 82.472 69.8964 83.408 106.185 86.424C192.682 93.612 211.918 112.732 253.774 133.764C294.568 154.256 328.188 176.808 435.391 190.14C542.574 203.468 711.488 171.008 877.773 141.412C1055.89 109.708 1215.02 75.48 1291 81.82C1430.66 93.476 1464.01 174.672 1467.82 182.588" stroke="url(#paint36_linear_148_584)" stroke-opacity="0.5" stroke-width="1.0094" stroke-miterlimit="10"/>
<path d="M-504.009 110.844C-492.429 113.968 -246.994 87.816 -38.2725 85.344C17.9485 84.68 63.4008 85.82 98.4519 88.96C181.836 96.424 198.753 115.332 244.108 135.956C287.627 155.748 322.601 177.388 429.881 189.664C538.282 202.064 705.901 169.624 871.587 141.784C1050.65 111.7 1207.25 79.58 1284.04 86.352C1421.79 98.496 1458.33 177.268 1464.96 184.076" stroke="url(#paint37_linear_148_584)" stroke-opacity="0.5" stroke-width="1.0094" stroke-miterlimit="10"/>
<path d="M-507.315 111.184C-493.415 114.932 -252.349 89.24 -43.9759 87.388C12.535 86.884 56.8854 88.236 90.6798 91.496C170.932 99.24 185.47 117.92 234.403 138.148C280.57 157.236 317.072 177.964 424.313 189.188C534.048 200.668 700.391 168.248 865.381 142.16C1045.49 113.684 1199.44 83.68 1277.08 90.888C1412.94 103.504 1452.65 179.868 1462.12 185.572" stroke="url(#paint38_linear_148_584)" stroke-opacity="0.5" stroke-width="1.0094" stroke-miterlimit="10"/>
<path d="M-510.621 111.524C-494.42 115.896 -257.704 90.672 -49.679 89.428C7.12198 89.088 50.3703 90.644 82.9274 94.028C160.067 102.044 172.131 120.5 224.698 140.336C273.417 158.716 311.601 178.528 418.764 188.708C529.872 199.26 694.978 166.864 859.175 142.532C1040.46 115.664 1191.65 87.768 1270.1 95.42C1404.06 108.488 1446.96 182.464 1459.24 187.06" stroke="url(#paint39_linear_148_584)" stroke-opacity="0.5" stroke-width="1.0094" stroke-miterlimit="10"/>
<path d="M-513.927 111.868C-495.406 116.864 -263.04 92.1079 -55.3824 91.4719C1.72789 91.2959 43.8356 93.0559 75.1554 96.5639C149.163 104.852 158.694 123.076 214.992 142.528C266.167 160.204 306.206 179.084 413.196 188.232C525.754 197.852 689.681 165.496 852.949 142.908C1035.51 117.648 1183.86 91.8559 1263.12 99.9599C1395.23 113.464 1441.26 185.068 1456.38 188.56" stroke="url(#paint40_linear_148_584)" stroke-opacity="0.5" stroke-width="1.0094" stroke-miterlimit="10"/>
<path d="M-517.253 112.208C-496.412 117.828 -268.415 93.5479 -61.0861 93.5119C-3.68583 93.5039 37.3199 95.4639 67.4024 99.0959C138.278 107.656 145.18 125.648 205.306 144.716C258.82 161.688 300.909 179.628 407.667 187.752C521.752 196.432 684.537 164.132 846.762 143.28C1030.74 119.628 1176.08 95.9279 1256.18 104.492C1386.45 118.42 1435.59 187.664 1453.53 190.048" stroke="url(#paint41_linear_148_584)" stroke-opacity="0.5" stroke-width="1.0094" stroke-miterlimit="10"/>
<path d="M-520.559 112.552C-497.397 118.8 -273.751 94.9959 -66.7891 95.5599C-9.09882 95.7159 30.8049 97.8759 59.6307 101.636C127.374 110.464 131.55 128.232 195.601 146.912C251.377 163.18 295.631 180.164 402.099 187.28C517.789 195.012 679.472 162.788 840.537 143.66C1026.06 121.624 1168.29 100.004 1249.18 109.032C1377.63 123.368 1429.87 190.268 1450.64 191.548" stroke="url(#paint42_linear_148_584)" stroke-opacity="0.5" stroke-width="1.0094" stroke-miterlimit="10"/>
<path d="M-523.865 112.892C-498.403 119.764 -279.068 96.444 -72.4925 97.6C-14.4929 97.924 24.2701 100.284 51.8779 104.168C116.47 113.264 117.843 130.808 185.896 149.1C243.837 164.676 290.43 180.68 396.55 186.8C513.903 193.568 674.562 161.452 834.331 144.032C1021.53 123.616 1160.54 104.064 1242.22 113.564C1368.87 128.296 1424.21 192.864 1447.79 193.036" stroke="url(#paint43_linear_148_584)" stroke-opacity="0.5" stroke-width="1.0094" stroke-miterlimit="10"/>
<path d="M-527.17 113.236C-499.389 120.732 -284.403 97.9 -78.1955 99.644C-19.9059 100.136 17.7552 102.692 44.1063 106.704C105.567 116.06 104.039 133.392 176.191 151.292C236.201 166.18 285.288 181.184 390.983 186.324C510.036 192.112 669.748 160.14 828.106 144.408C1017.15 125.628 1152.77 108.124 1235.22 118.104C1360.1 133.22 1418.48 195.468 1444.89 194.536" stroke="url(#paint44_linear_148_584)" stroke-opacity="0.5" stroke-width="1.0094" stroke-miterlimit="10"/>
<path d="M-530.477 113.576C-500.375 121.696 -289.74 99.3559 -83.8796 101.684C-25.2807 102.348 11.2591 105.096 36.3729 109.236C94.7012 118.852 90.1772 135.984 166.524 153.48C228.526 167.692 280.223 181.664 385.473 185.844C506.286 190.64 665.108 158.84 821.939 144.78C1012.93 127.652 1145.09 112.168 1228.3 122.636C1351.46 138.124 1412.84 198.064 1442.09 196.024" stroke="url(#paint45_linear_148_584)" stroke-opacity="0.5" stroke-width="1.0094" stroke-miterlimit="10"/>
<path d="M-533.782 113.916C-501.36 122.66 -295.075 100.816 -89.5826 103.728C-30.6937 104.564 4.72473 107.5 28.6012 111.772C83.7975 121.648 76.1802 138.592 156.819 155.672C220.754 169.216 275.138 182.132 379.905 185.368C502.516 189.152 660.546 157.572 815.714 145.152C1008.78 129.7 1137.36 116.208 1221.32 127.168C1342.76 143.016 1407.14 200.66 1439.21 197.512" stroke="url(#paint46_linear_148_584)" stroke-opacity="0.5" stroke-width="1.0094" stroke-miterlimit="10"/>
<path d="M-537.089 114.26C-502.347 123.628 -300.393 102.284 -95.2866 105.772C-36.0883 106.78 -1.79122 109.904 20.848 114.308C72.9316 124.44 62.1243 141.212 147.113 157.864C212.885 170.752 270.092 182.584 374.356 184.892C498.784 187.644 656.079 156.332 809.507 145.528C1004.79 131.776 1129.67 120.248 1214.34 131.704C1334.09 147.908 1401.45 203.26 1436.35 199.008" stroke="url(#paint47_linear_148_584)" stroke-opacity="0.5" stroke-width="1.0094" stroke-miterlimit="10"/>
<path d="M-540.414 114.6C-503.372 124.596 -305.748 103.748 -101.009 107.812C-41.5208 108.992 -8.32576 112.304 13.0761 116.84C62.0278 127.22 47.9919 143.844 137.408 160.052C204.977 172.296 265.046 183.012 368.788 184.412C495.053 186.112 651.69 155.12 803.263 145.9C1000.85 133.884 1121.97 124.276 1207.35 136.236C1325.43 152.784 1395.73 205.856 1433.45 200.496" stroke="url(#paint48_linear_148_584)" stroke-opacity="0.5" stroke-width="1.0094" stroke-miterlimit="10"/>
<path d="M-543.72 114.944C-504.357 125.564 -311.083 105.224 -106.693 109.86C-46.8951 111.216 -14.8214 114.712 5.32381 119.38C51.1822 130.012 33.7823 146.508 127.722 162.248C197.032 173.864 260.019 183.432 363.259 183.936C491.361 184.56 647.418 153.94 797.076 146.276C997.078 136.032 1114.35 128.3 1200.39 140.776C1316.85 157.66 1390.05 208.46 1430.59 201.996" stroke="url(#paint49_linear_148_584)" stroke-opacity="0.5" stroke-width="1.0094" stroke-miterlimit="10"/>
<path d="M-547.026 115.284C-505.343 126.528 -316.419 106.7 -112.396 111.9C-52.3086 113.432 -21.3175 117.108 -2.42895 121.912C40.3168 132.788 19.5336 149.18 118.017 164.436C189.028 175.436 254.973 183.828 357.71 183.456C487.629 182.984 643.184 152.796 790.87 146.648C993.347 138.224 1106.74 132.316 1193.43 145.308C1308.3 162.524 1384.36 211.056 1427.74 203.484" stroke="url(#paint50_linear_148_584)" stroke-opacity="0.5" stroke-width="1.0094" stroke-miterlimit="10"/>
<path d="M-550.332 115.628C-506.329 127.496 -321.774 108.184 -118.099 113.944C-57.7023 115.652 -27.8131 119.508 -10.2006 124.448C29.4711 135.568 5.22729 151.88 108.312 166.628C181.005 177.028 249.908 184.216 352.142 182.98C483.859 181.392 638.95 151.684 784.645 147.024C989.635 140.464 1099.12 136.328 1186.45 149.844C1299.76 167.384 1378.68 213.656 1424.86 204.98" stroke="url(#paint51_linear_148_584)" stroke-opacity="0.5" stroke-width="1.0094" stroke-miterlimit="10"/>
<path d="M-553.638 115.968C-507.335 128.46 -327.111 109.668 -123.803 115.984C-63.1157 117.868 -34.3093 121.904 -17.9534 126.98C18.6443 138.344 -9.11815 154.596 98.6258 168.816C172.981 178.628 244.823 184.58 346.613 182.5C480.089 179.772 634.755 150.608 778.459 147.396C985.962 142.756 1091.58 140.332 1179.49 154.376C1291.27 172.232 1372.99 216.252 1422.02 206.468" stroke="url(#paint52_linear_148_584)" stroke-opacity="0.5" stroke-width="1.0094" stroke-miterlimit="10"/>
<path d="M-556.943 116.312C-508.32 129.428 -332.466 111.156 -129.486 118.032C-68.5094 120.096 -40.7856 124.304 -25.7057 129.52C7.83742 141.124 -23.4823 157.348 88.9402 171.012C164.958 180.252 239.701 184.944 341.065 182.028C476.262 178.144 630.54 149.576 772.253 147.776C982.269 145.108 1084.04 144.34 1172.53 158.916C1282.8 177.088 1367.31 218.856 1419.16 207.968" stroke="url(#paint53_linear_148_584)" stroke-opacity="0.5" stroke-width="1.0094" stroke-miterlimit="10"/>
<path d="M-560.269 116.652C-509.326 130.396 -337.841 112.648 -135.21 120.072C-73.9427 122.316 -47.2822 126.7 -33.4783 132.052C-2.95113 143.892 -37.8862 160.112 79.215 173.2C156.876 181.88 234.499 185.284 335.496 181.548C472.356 176.484 626.248 148.564 766.027 148.144C978.499 147.508 1076.52 148.328 1165.53 163.448C1274.34 181.928 1361.59 221.452 1416.28 209.456" stroke="url(#paint54_linear_148_584)" stroke-opacity="0.5" stroke-width="1.0094" stroke-miterlimit="10"/>
<path d="M-563.575 116.992C-510.312 131.36 -343.215 114.14 -140.913 122.112C-79.3559 124.54 -53.7587 129.092 -41.2501 134.584C-13.739 146.664 -52.2894 162.9 69.5097 175.388C148.834 183.524 229.279 185.616 329.928 181.068C468.392 174.812 621.898 147.584 759.802 148.516C974.632 149.968 1069.02 152.316 1158.55 167.98C1265.91 186.764 1355.9 224.048 1413.4 210.948" stroke="url(#paint55_linear_148_584)" stroke-opacity="0.5" stroke-width="1.0094" stroke-miterlimit="10"/>
<path d="M-566.881 117.336C-511.317 132.328 -348.59 115.64 -146.596 124.156C-84.7495 126.764 -60.1964 131.492 -48.9831 137.12C-24.4686 149.44 -66.6537 165.716 59.8434 177.584C140.85 185.184 224.04 185.952 324.418 180.596C464.41 173.128 617.51 146.64 753.635 148.896C970.708 152.492 1061.61 156.304 1151.63 172.52C1257.57 191.608 1350.26 226.652 1410.6 212.444" stroke="url(#paint56_linear_148_584)" stroke-opacity="0.5" stroke-width="1.0094" stroke-miterlimit="10"/>
<path d="M-570.187 117.676C-512.303 133.292 -353.964 117.136 -152.3 126.2C-90.163 128.992 -66.6345 133.888 -56.7553 139.656C-35.2181 152.216 -81.0377 168.556 50.1187 179.776C132.845 186.852 218.685 186.272 318.831 180.12C460.273 171.432 612.947 145.716 747.39 149.272C966.532 155.068 1054.17 160.288 1144.61 177.056C1249.18 196.444 1344.52 229.252 1407.68 213.94" stroke="url(#paint57_linear_148_584)" stroke-opacity="0.5" stroke-width="1.0094" stroke-miterlimit="10"/>
<path d="M-573.493 118.02C-513.289 134.26 -359.339 118.644 -158.003 128.244C-95.5953 131.22 -73.0914 136.288 -64.5075 142.192C-45.9283 154.992 -95.3826 171.412 40.4331 181.968C124.881 188.532 213.311 186.592 313.302 179.644C456.136 169.72 608.307 144.812 741.204 149.648C962.24 157.688 1046.8 164.264 1137.67 181.592C1240.89 201.276 1338.85 231.852 1404.83 215.432" stroke="url(#paint58_linear_148_584)" stroke-opacity="0.5" stroke-width="1.0094" stroke-miterlimit="10"/>
<path d="M-576.799 118.36C-514.275 135.224 -364.733 120.148 -163.706 130.284C-101.009 133.444 -79.5103 138.684 -72.2796 144.724C-56.6391 157.768 -109.728 174.284 30.7276 184.156C116.934 190.216 207.858 186.904 307.734 179.164C451.882 167.996 603.474 143.92 734.978 150.02C957.677 160.348 1039.44 168.236 1130.67 186.128C1232.56 206.108 1333.15 234.452 1401.95 216.924" stroke="url(#paint59_linear_148_584)" stroke-opacity="0.5" stroke-width="1.0094" stroke-miterlimit="10"/>
<path d="M-580.105 118.704C-515.261 136.196 -370.146 121.66 -169.39 132.328C-106.422 135.676 -85.9291 141.084 -80.0131 147.26C-67.3112 160.548 -123.996 177.18 21.0608 186.348C109.085 191.912 202.406 187.216 302.224 178.688C447.59 166.268 598.563 143.04 728.811 150.396C952.96 163.052 1032.17 172.204 1123.75 190.664C1224.34 210.936 1327.5 237.052 1399.13 218.42" stroke="url(#paint60_linear_148_584)" stroke-opacity="0.5" stroke-width="1.0094" stroke-miterlimit="10"/>
<path d="M-583.43 119.044C-516.286 137.16 -375.579 123.168 -175.113 134.372C-111.874 137.908 -92.3672 143.484 -87.8045 149.796C-78.0026 163.332 -138.283 180.092 11.3168 188.54C101.178 193.612 196.819 187.528 296.617 178.212C443.143 164.536 593.382 142.168 722.547 150.772C947.914 165.78 1024.82 176.168 1116.73 195.2C1216.05 215.768 1321.76 239.652 1396.23 219.912" stroke="url(#paint61_linear_148_584)" stroke-opacity="0.5" stroke-width="1.0094" stroke-miterlimit="10"/>
<path d="M-586.736 119.384C-517.272 138.124 -381.07 124.728 -180.816 136.412C-117.326 140.152 -98.7857 145.884 -95.557 152.328C-88.6551 166.116 -152.493 183.012 1.63096 190.728C93.367 195.32 191.232 187.836 291.088 177.732C438.716 162.796 588.142 141.296 716.36 151.14C942.694 168.52 1017.59 180.124 1109.77 199.728C1207.85 220.588 1316.1 242.244 1393.37 221.4" stroke="url(#paint62_linear_148_584)" stroke-opacity="0.5" stroke-width="1.0094" stroke-miterlimit="10"/>
<path d="M-590.042 119.728C-518.258 139.092 -386.425 126.196 -186.52 138.456C13.405 150.716 -240.981 182.688 -8.0742 192.92C224.833 203.156 497.025 132.968 710.135 151.516C937.203 171.28 1010.36 184.084 1102.79 204.264C1199.65 225.416 1310.39 244.844 1390.51 222.892" stroke="url(#paint63_linear_148_584)" stroke-opacity="0.5" stroke-width="1.0094" stroke-miterlimit="10"/>
</g>
</g>
<defs>
<linearGradient id="paint0_linear_148_584" x1="1807.97" y1="-55.4498" x2="1696.23" y2="529.993" gradientUnits="userSpaceOnUse">
<stop stop-color="#E10005"/>
<stop offset="0.190625" stop-color="#FFDF0F"/>
<stop offset="0.461458" stop-color="#80C41C"/>
<stop offset="0.607292" stop-color="#0047CC"/>
<stop offset="0.810417" stop-color="#B80856"/>
<stop offset="1" stop-color="#FF9BBC"/>
</linearGradient>
<linearGradient id="paint1_linear_148_584" x1="1804.6" y1="-52.4249" x2="1698.24" y2="519.286" gradientUnits="userSpaceOnUse">
<stop stop-color="#E10005"/>
<stop offset="0.190625" stop-color="#FFDF0F"/>
<stop offset="0.461458" stop-color="#80C41C"/>
<stop offset="0.607292" stop-color="#0047CC"/>
<stop offset="0.810417" stop-color="#B80856"/>
<stop offset="1" stop-color="#FF9BBC"/>
</linearGradient>
<linearGradient id="paint2_linear_148_584" x1="1801.36" y1="-49.4293" x2="1700.07" y2="509.008" gradientUnits="userSpaceOnUse">
<stop stop-color="#E10005"/>
<stop offset="0.190625" stop-color="#FFDF0F"/>
<stop offset="0.461458" stop-color="#80C41C"/>
<stop offset="0.607292" stop-color="#0047CC"/>
<stop offset="0.810417" stop-color="#B80856"/>
<stop offset="1" stop-color="#FF9BBC"/>
</linearGradient>
<linearGradient id="paint3_linear_148_584" x1="1798.31" y1="-46.4498" x2="1701.84" y2="499.088" gradientUnits="userSpaceOnUse">
<stop stop-color="#E10005"/>
<stop offset="0.190625" stop-color="#FFDF0F"/>
<stop offset="0.461458" stop-color="#80C41C"/>
<stop offset="0.607292" stop-color="#0047CC"/>
<stop offset="0.810417" stop-color="#B80856"/>
<stop offset="1" stop-color="#FF9BBC"/>
</linearGradient>
<linearGradient id="paint4_linear_148_584" x1="1795.47" y1="-43.4934" x2="1703.51" y2="489.633" gradientUnits="userSpaceOnUse">
<stop stop-color="#E10005"/>
<stop offset="0.190625" stop-color="#FFDF0F"/>
<stop offset="0.461458" stop-color="#80C41C"/>
<stop offset="0.607292" stop-color="#0047CC"/>
<stop offset="0.810417" stop-color="#B80856"/>
<stop offset="1" stop-color="#FF9BBC"/>
</linearGradient>
<linearGradient id="paint5_linear_148_584" x1="1793.9" y1="-40.5485" x2="1706.22" y2="480.694" gradientUnits="userSpaceOnUse">
<stop stop-color="#E10005"/>
<stop offset="0.190625" stop-color="#FFDF0F"/>
<stop offset="0.461458" stop-color="#80C41C"/>
<stop offset="0.607292" stop-color="#0047CC"/>
<stop offset="0.810417" stop-color="#B80856"/>
<stop offset="1" stop-color="#FF9BBC"/>
</linearGradient>
<linearGradient id="paint6_linear_148_584" x1="1792.49" y1="-37.6252" x2="1708.78" y2="472.316" gradientUnits="userSpaceOnUse">
<stop stop-color="#E10005"/>
<stop offset="0.190625" stop-color="#FFDF0F"/>
<stop offset="0.461458" stop-color="#80C41C"/>
<stop offset="0.607292" stop-color="#0047CC"/>
<stop offset="0.810417" stop-color="#B80856"/>
<stop offset="1" stop-color="#FF9BBC"/>
</linearGradient>
<linearGradient id="paint7_linear_148_584" x1="1791.15" y1="-34.7296" x2="1711.1" y2="464.542" gradientUnits="userSpaceOnUse">
<stop stop-color="#E10005"/>
<stop offset="0.190625" stop-color="#FFDF0F"/>
<stop offset="0.461458" stop-color="#80C41C"/>
<stop offset="0.607292" stop-color="#0047CC"/>
<stop offset="0.810417" stop-color="#B80856"/>
<stop offset="1" stop-color="#FF9BBC"/>
</linearGradient>
<linearGradient id="paint8_linear_148_584" x1="1789.78" y1="-31.8604" x2="1713.09" y2="457.381" gradientUnits="userSpaceOnUse">
<stop stop-color="#E10005"/>
<stop offset="0.190625" stop-color="#FFDF0F"/>
<stop offset="0.461458" stop-color="#80C41C"/>
<stop offset="0.607292" stop-color="#0047CC"/>
<stop offset="0.810417" stop-color="#B80856"/>
<stop offset="1" stop-color="#FF9BBC"/>
</linearGradient>
<linearGradient id="paint9_linear_148_584" x1="1788.41" y1="-29.004" x2="1714.79" y2="450.876" gradientUnits="userSpaceOnUse">
<stop stop-color="#E10005"/>
<stop offset="0.190625" stop-color="#FFDF0F"/>
<stop offset="0.461458" stop-color="#80C41C"/>
<stop offset="0.607292" stop-color="#0047CC"/>
<stop offset="0.810417" stop-color="#B80856"/>
<stop offset="1" stop-color="#FF9BBC"/>
</linearGradient>
<linearGradient id="paint10_linear_148_584" x1="1787.03" y1="-26.1756" x2="1716.21" y2="445.025" gradientUnits="userSpaceOnUse">
<stop stop-color="#E10005"/>
<stop offset="0.190625" stop-color="#FFDF0F"/>
<stop offset="0.461458" stop-color="#80C41C"/>
<stop offset="0.607292" stop-color="#0047CC"/>
<stop offset="0.810417" stop-color="#B80856"/>
<stop offset="1" stop-color="#FF9BBC"/>
</linearGradient>
<linearGradient id="paint11_linear_148_584" x1="1785.66" y1="-23.3788" x2="1717.36" y2="439.83" gradientUnits="userSpaceOnUse">
<stop stop-color="#E10005"/>
<stop offset="0.190625" stop-color="#FFDF0F"/>
<stop offset="0.461458" stop-color="#80C41C"/>
<stop offset="0.607292" stop-color="#0047CC"/>
<stop offset="0.810417" stop-color="#B80856"/>
<stop offset="1" stop-color="#FF9BBC"/>
</linearGradient>
<linearGradient id="paint12_linear_148_584" x1="1784.27" y1="-20.5948" x2="1718.26" y2="435.202" gradientUnits="userSpaceOnUse">
<stop stop-color="#E10005"/>
<stop offset="0.190625" stop-color="#FFDF0F"/>
<stop offset="0.461458" stop-color="#80C41C"/>
<stop offset="0.607292" stop-color="#0047CC"/>
<stop offset="0.810417" stop-color="#B80856"/>
<stop offset="1" stop-color="#FF9BBC"/>
</linearGradient>
<linearGradient id="paint13_linear_148_584" x1="1782.92" y1="-17.8258" x2="1719.04" y2="430.975" gradientUnits="userSpaceOnUse">
<stop stop-color="#E10005"/>
<stop offset="0.190625" stop-color="#FFDF0F"/>
<stop offset="0.461458" stop-color="#80C41C"/>
<stop offset="0.607292" stop-color="#0047CC"/>
<stop offset="0.810417" stop-color="#B80856"/>
<stop offset="1" stop-color="#FF9BBC"/>
</linearGradient>
<linearGradient id="paint14_linear_148_584" x1="1781.54" y1="-15.0731" x2="1719.63" y2="427.185" gradientUnits="userSpaceOnUse">
<stop stop-color="#E10005"/>
<stop offset="0.190625" stop-color="#FFDF0F"/>
<stop offset="0.461458" stop-color="#80C41C"/>
<stop offset="0.607292" stop-color="#0047CC"/>
<stop offset="0.810417" stop-color="#B80856"/>
<stop offset="1" stop-color="#FF9BBC"/>
</linearGradient>
<linearGradient id="paint15_linear_148_584" x1="1780.17" y1="-12.3456" x2="1720.04" y2="423.883" gradientUnits="userSpaceOnUse">
<stop stop-color="#E10005"/>
<stop offset="0.190625" stop-color="#FFDF0F"/>
<stop offset="0.461458" stop-color="#80C41C"/>
<stop offset="0.607292" stop-color="#0047CC"/>
<stop offset="0.810417" stop-color="#B80856"/>
<stop offset="1" stop-color="#FF9BBC"/>
</linearGradient>
<linearGradient id="paint16_linear_148_584" x1="1778.82" y1="-9.62918" x2="1720.3" y2="421.086" gradientUnits="userSpaceOnUse">
<stop stop-color="#E10005"/>
<stop offset="0.190625" stop-color="#FFDF0F"/>
<stop offset="0.461458" stop-color="#80C41C"/>
<stop offset="0.607292" stop-color="#0047CC"/>
<stop offset="0.810417" stop-color="#B80856"/>
<stop offset="1" stop-color="#FF9BBC"/>
</linearGradient>
<linearGradient id="paint17_linear_148_584" x1="1777.46" y1="-6.9344" x2="1720.39" y2="418.801" gradientUnits="userSpaceOnUse">
<stop stop-color="#E10005"/>
<stop offset="0.190625" stop-color="#FFDF0F"/>
<stop offset="0.461458" stop-color="#80C41C"/>
<stop offset="0.607292" stop-color="#0047CC"/>
<stop offset="0.810417" stop-color="#B80856"/>
<stop offset="1" stop-color="#FF9BBC"/>
</linearGradient>
<linearGradient id="paint18_linear_148_584" x1="1776.09" y1="-4.25162" x2="1720.29" y2="417.057" gradientUnits="userSpaceOnUse">
<stop stop-color="#E10005"/>
<stop offset="0.190625" stop-color="#FFDF0F"/>
<stop offset="0.461458" stop-color="#80C41C"/>
<stop offset="0.607292" stop-color="#0047CC"/>
<stop offset="0.810417" stop-color="#B80856"/>
<stop offset="1" stop-color="#FF9BBC"/>
</linearGradient>
<linearGradient id="paint19_linear_148_584" x1="1774.7" y1="-1.59337" x2="1720.02" y2="415.786" gradientUnits="userSpaceOnUse">
<stop stop-color="#E10005"/>
<stop offset="0.190625" stop-color="#FFDF0F"/>
<stop offset="0.461458" stop-color="#80C41C"/>
<stop offset="0.607292" stop-color="#0047CC"/>
<stop offset="0.810417" stop-color="#B80856"/>
<stop offset="1" stop-color="#FF9BBC"/>
</linearGradient>
<linearGradient id="paint20_linear_148_584" x1="1773.33" y1="1.05308" x2="1719.63" y2="414.958" gradientUnits="userSpaceOnUse">
<stop stop-color="#E10005"/>
<stop offset="0.190625" stop-color="#FFDF0F"/>
<stop offset="0.461458" stop-color="#80C41C"/>
<stop offset="0.607292" stop-color="#0047CC"/>
<stop offset="0.810417" stop-color="#B80856"/>
<stop offset="1" stop-color="#FF9BBC"/>
</linearGradient>
<linearGradient id="paint21_linear_148_584" x1="1771.97" y1="3.67964" x2="1719.15" y2="414.54" gradientUnits="userSpaceOnUse">
<stop stop-color="#E10005"/>
<stop offset="0.190625" stop-color="#FFDF0F"/>
<stop offset="0.461458" stop-color="#80C41C"/>
<stop offset="0.607292" stop-color="#0047CC"/>
<stop offset="0.810417" stop-color="#B80856"/>
<stop offset="1" stop-color="#FF9BBC"/>
</linearGradient>
<linearGradient id="paint22_linear_148_584" x1="1770.58" y1="3.7514" x2="1715.74" y2="422.485" gradientUnits="userSpaceOnUse">
<stop stop-color="#E10005"/>
<stop offset="0.190625" stop-color="#FFDF0F"/>
<stop offset="0.461458" stop-color="#80C41C"/>
<stop offset="0.607292" stop-color="#0047CC"/>
<stop offset="0.810417" stop-color="#B80856"/>
<stop offset="1" stop-color="#FF9BBC"/>
</linearGradient>
<linearGradient id="paint23_linear_148_584" x1="1769.23" y1="3.02017" x2="1711.34" y2="433.275" gradientUnits="userSpaceOnUse">
<stop stop-color="#E10005"/>
<stop offset="0.190625" stop-color="#FFDF0F"/>
<stop offset="0.461458" stop-color="#80C41C"/>
<stop offset="0.607292" stop-color="#0047CC"/>
<stop offset="0.810417" stop-color="#B80856"/>
<stop offset="1" stop-color="#FF9BBC"/>
</linearGradient>
<linearGradient id="paint24_linear_148_584" x1="1767.87" y1="1.98285" x2="1706.46" y2="445.182" gradientUnits="userSpaceOnUse">
<stop stop-color="#E10005"/>
<stop offset="0.190625" stop-color="#FFDF0F"/>
<stop offset="0.461458" stop-color="#80C41C"/>
<stop offset="0.607292" stop-color="#0047CC"/>
<stop offset="0.810417" stop-color="#B80856"/>
<stop offset="1" stop-color="#FF9BBC"/>
</linearGradient>
<linearGradient id="paint25_linear_148_584" x1="1766.46" y1="0.87507" x2="1701.28" y2="457.488" gradientUnits="userSpaceOnUse">
<stop stop-color="#E10005"/>
<stop offset="0.190625" stop-color="#FFDF0F"/>
<stop offset="0.461458" stop-color="#80C41C"/>
<stop offset="0.607292" stop-color="#0047CC"/>
<stop offset="0.810417" stop-color="#B80856"/>
<stop offset="1" stop-color="#FF9BBC"/>
</linearGradient>
<linearGradient id="paint26_linear_148_584" x1="1765.07" y1="-0.272712" x2="1695.91" y2="470.067" gradientUnits="userSpaceOnUse">
<stop stop-color="#E10005"/>
<stop offset="0.190625" stop-color="#FFDF0F"/>
<stop offset="0.461458" stop-color="#80C41C"/>
<stop offset="0.607292" stop-color="#0047CC"/>
<stop offset="0.810417" stop-color="#B80856"/>
<stop offset="1" stop-color="#FF9BBC"/>
</linearGradient>
<linearGradient id="paint27_linear_148_584" x1="1763.76" y1="-1.45232" x2="1690.41" y2="482.887" gradientUnits="userSpaceOnUse">
<stop stop-color="#E10005"/>
<stop offset="0.190625" stop-color="#FFDF0F"/>
<stop offset="0.461458" stop-color="#80C41C"/>
<stop offset="0.607292" stop-color="#0047CC"/>
<stop offset="0.810417" stop-color="#B80856"/>
<stop offset="1" stop-color="#FF9BBC"/>
</linearGradient>
<linearGradient id="paint28_linear_148_584" x1="1762.4" y1="-2.66661" x2="1684.67" y2="495.906" gradientUnits="userSpaceOnUse">
<stop stop-color="#E10005"/>
<stop offset="0.190625" stop-color="#FFDF0F"/>
<stop offset="0.461458" stop-color="#80C41C"/>
<stop offset="0.607292" stop-color="#0047CC"/>
<stop offset="0.810417" stop-color="#B80856"/>
<stop offset="1" stop-color="#FF9BBC"/>
</linearGradient>
<linearGradient id="paint29_linear_148_584" x1="1761.03" y1="-3.92385" x2="1678.71" y2="509.09" gradientUnits="userSpaceOnUse">
<stop stop-color="#E10005"/>
<stop offset="0.190625" stop-color="#FFDF0F"/>
<stop offset="0.461458" stop-color="#80C41C"/>
<stop offset="0.607292" stop-color="#0047CC"/>
<stop offset="0.810417" stop-color="#B80856"/>
<stop offset="1" stop-color="#FF9BBC"/>
</linearGradient>
<linearGradient id="paint30_linear_148_584" x1="1759.64" y1="-5.20196" x2="1672.54" y2="522.401" gradientUnits="userSpaceOnUse">
<stop stop-color="#E10005"/>
<stop offset="0.190625" stop-color="#FFDF0F"/>
<stop offset="0.461458" stop-color="#80C41C"/>
<stop offset="0.607292" stop-color="#0047CC"/>
<stop offset="0.810417" stop-color="#B80856"/>
<stop offset="1" stop-color="#FF9BBC"/>
</linearGradient>
<linearGradient id="paint31_linear_148_584" x1="1758.28" y1="-6.50996" x2="1666.23" y2="535.815" gradientUnits="userSpaceOnUse">
<stop stop-color="#E10005"/>
<stop offset="0.190625" stop-color="#FFDF0F"/>
<stop offset="0.461458" stop-color="#80C41C"/>
<stop offset="0.607292" stop-color="#0047CC"/>
<stop offset="0.810417" stop-color="#B80856"/>
<stop offset="1" stop-color="#FF9BBC"/>
</linearGradient>
<linearGradient id="paint32_linear_148_584" x1="1480.63" y1="42.3582" x2="1347.22" y2="687.166" gradientUnits="userSpaceOnUse">
<stop stop-color="#E10005"/>
<stop offset="0.190625" stop-color="#FFDF0F"/>
<stop offset="0.461458" stop-color="#80C41C"/>
<stop offset="0.607292" stop-color="#0047CC"/>
<stop offset="0.810417" stop-color="#B80856"/>
<stop offset="1" stop-color="#FF9BBC"/>
</linearGradient>
<linearGradient id="paint33_linear_148_584" x1="1476.98" y1="47.6538" x2="1353.62" y2="668.619" gradientUnits="userSpaceOnUse">
<stop stop-color="#E10005"/>
<stop offset="0.190625" stop-color="#FFDF0F"/>
<stop offset="0.461458" stop-color="#80C41C"/>
<stop offset="0.607292" stop-color="#0047CC"/>
<stop offset="0.810417" stop-color="#B80856"/>
<stop offset="1" stop-color="#FF9BBC"/>
</linearGradient>
<linearGradient id="paint34_linear_148_584" x1="1473.65" y1="52.9356" x2="1359.98" y2="649.941" gradientUnits="userSpaceOnUse">
<stop stop-color="#E10005"/>
<stop offset="0.190625" stop-color="#FFDF0F"/>
<stop offset="0.461458" stop-color="#80C41C"/>
<stop offset="0.607292" stop-color="#0047CC"/>
<stop offset="0.810417" stop-color="#B80856"/>
<stop offset="1" stop-color="#FF9BBC"/>
</linearGradient>
<linearGradient id="paint35_linear_148_584" x1="1470.7" y1="58.1935" x2="1366.33" y2="631.165" gradientUnits="userSpaceOnUse">
<stop stop-color="#E10005"/>
<stop offset="0.190625" stop-color="#FFDF0F"/>
<stop offset="0.461458" stop-color="#80C41C"/>
<stop offset="0.607292" stop-color="#0047CC"/>
<stop offset="0.810417" stop-color="#B80856"/>
<stop offset="1" stop-color="#FF9BBC"/>
</linearGradient>
<linearGradient id="paint36_linear_148_584" x1="1467.82" y1="63.4289" x2="1372.34" y2="612.298" gradientUnits="userSpaceOnUse">
<stop stop-color="#E10005"/>
<stop offset="0.190625" stop-color="#FFDF0F"/>
<stop offset="0.461458" stop-color="#80C41C"/>
<stop offset="0.607292" stop-color="#0047CC"/>
<stop offset="0.810417" stop-color="#B80856"/>
<stop offset="1" stop-color="#FF9BBC"/>
</linearGradient>
<linearGradient id="paint37_linear_148_584" x1="1464.96" y1="68.3126" x2="1377.5" y2="594.332" gradientUnits="userSpaceOnUse">
<stop stop-color="#E10005"/>
<stop offset="0.190625" stop-color="#FFDF0F"/>
<stop offset="0.461458" stop-color="#80C41C"/>
<stop offset="0.607292" stop-color="#0047CC"/>
<stop offset="0.810417" stop-color="#B80856"/>
<stop offset="1" stop-color="#FF9BBC"/>
</linearGradient>
<linearGradient id="paint38_linear_148_584" x1="1462.12" y1="70.8984" x2="1379.29" y2="583.241" gradientUnits="userSpaceOnUse">
<stop stop-color="#E10005"/>
<stop offset="0.190625" stop-color="#FFDF0F"/>
<stop offset="0.461458" stop-color="#80C41C"/>
<stop offset="0.607292" stop-color="#0047CC"/>
<stop offset="0.810417" stop-color="#B80856"/>
<stop offset="1" stop-color="#FF9BBC"/>
</linearGradient>
<linearGradient id="paint39_linear_148_584" x1="1459.24" y1="73.4515" x2="1380.87" y2="572.228" gradientUnits="userSpaceOnUse">
<stop stop-color="#E10005"/>
<stop offset="0.190625" stop-color="#FFDF0F"/>
<stop offset="0.461458" stop-color="#80C41C"/>
<stop offset="0.607292" stop-color="#0047CC"/>
<stop offset="0.810417" stop-color="#B80856"/>
<stop offset="1" stop-color="#FF9BBC"/>
</linearGradient>
<linearGradient id="paint40_linear_148_584" x1="1456.38" y1="75.9793" x2="1382.29" y2="561.322" gradientUnits="userSpaceOnUse">
<stop stop-color="#E10005"/>
<stop offset="0.190625" stop-color="#FFDF0F"/>
<stop offset="0.461458" stop-color="#80C41C"/>
<stop offset="0.607292" stop-color="#0047CC"/>
<stop offset="0.810417" stop-color="#B80856"/>
<stop offset="1" stop-color="#FF9BBC"/>
</linearGradient>
<linearGradient id="paint41_linear_148_584" x1="1453.53" y1="78.3419" x2="1382.34" y2="554.38" gradientUnits="userSpaceOnUse">
<stop stop-color="#E10005"/>
<stop offset="0.190625" stop-color="#FFDF0F"/>
<stop offset="0.461458" stop-color="#80C41C"/>
<stop offset="0.607292" stop-color="#0047CC"/>
<stop offset="0.810417" stop-color="#B80856"/>
<stop offset="1" stop-color="#FF9BBC"/>
</linearGradient>
<linearGradient id="paint42_linear_148_584" x1="1450.64" y1="80.4647" x2="1380.23" y2="553.968" gradientUnits="userSpaceOnUse">
<stop stop-color="#E10005"/>
<stop offset="0.190625" stop-color="#FFDF0F"/>
<stop offset="0.461458" stop-color="#80C41C"/>
<stop offset="0.607292" stop-color="#0047CC"/>
<stop offset="0.810417" stop-color="#B80856"/>
<stop offset="1" stop-color="#FF9BBC"/>
</linearGradient>
<linearGradient id="paint43_linear_148_584" x1="1447.79" y1="82.5546" x2="1378.15" y2="553.607" gradientUnits="userSpaceOnUse">
<stop stop-color="#E10005"/>
<stop offset="0.190625" stop-color="#FFDF0F"/>
<stop offset="0.461458" stop-color="#80C41C"/>
<stop offset="0.607292" stop-color="#0047CC"/>
<stop offset="0.810417" stop-color="#B80856"/>
<stop offset="1" stop-color="#FF9BBC"/>
</linearGradient>
<linearGradient id="paint44_linear_148_584" x1="1444.89" y1="84.6203" x2="1375.94" y2="553.41" gradientUnits="userSpaceOnUse">
<stop stop-color="#E10005"/>
<stop offset="0.190625" stop-color="#FFDF0F"/>
<stop offset="0.461458" stop-color="#80C41C"/>
<stop offset="0.607292" stop-color="#0047CC"/>
<stop offset="0.810417" stop-color="#B80856"/>
<stop offset="1" stop-color="#FF9BBC"/>
</linearGradient>
<linearGradient id="paint45_linear_148_584" x1="1442.09" y1="86.6531" x2="1373.78" y2="553.388" gradientUnits="userSpaceOnUse">
<stop stop-color="#E10005"/>
<stop offset="0.190625" stop-color="#FFDF0F"/>
<stop offset="0.461458" stop-color="#80C41C"/>
<stop offset="0.607292" stop-color="#0047CC"/>
<stop offset="0.810417" stop-color="#B80856"/>
<stop offset="1" stop-color="#FF9BBC"/>
</linearGradient>
<linearGradient id="paint46_linear_148_584" x1="1439.21" y1="88.6592" x2="1371.45" y2="553.58" gradientUnits="userSpaceOnUse">
<stop stop-color="#E10005"/>
<stop offset="0.190625" stop-color="#FFDF0F"/>
<stop offset="0.461458" stop-color="#80C41C"/>
<stop offset="0.607292" stop-color="#0047CC"/>
<stop offset="0.810417" stop-color="#B80856"/>
<stop offset="1" stop-color="#FF9BBC"/>
</linearGradient>
<linearGradient id="paint47_linear_148_584" x1="1436.35" y1="90.6335" x2="1369.06" y2="554.044" gradientUnits="userSpaceOnUse">
<stop stop-color="#E10005"/>
<stop offset="0.190625" stop-color="#FFDF0F"/>
<stop offset="0.461458" stop-color="#80C41C"/>
<stop offset="0.607292" stop-color="#0047CC"/>
<stop offset="0.810417" stop-color="#B80856"/>
<stop offset="1" stop-color="#FF9BBC"/>
</linearGradient>
<linearGradient id="paint48_linear_148_584" x1="1433.45" y1="92.5716" x2="1366.54" y2="554.743" gradientUnits="userSpaceOnUse">
<stop stop-color="#E10005"/>
<stop offset="0.190625" stop-color="#FFDF0F"/>
<stop offset="0.461458" stop-color="#80C41C"/>
<stop offset="0.607292" stop-color="#0047CC"/>
<stop offset="0.810417" stop-color="#B80856"/>
<stop offset="1" stop-color="#FF9BBC"/>
</linearGradient>
<linearGradient id="paint49_linear_148_584" x1="1430.59" y1="94.4838" x2="1363.96" y2="555.736" gradientUnits="userSpaceOnUse">
<stop stop-color="#E10005"/>
<stop offset="0.190625" stop-color="#FFDF0F"/>
<stop offset="0.461458" stop-color="#80C41C"/>
<stop offset="0.607292" stop-color="#0047CC"/>
<stop offset="0.810417" stop-color="#B80856"/>
<stop offset="1" stop-color="#FF9BBC"/>
</linearGradient>
<linearGradient id="paint50_linear_148_584" x1="1427.74" y1="96.3559" x2="1361.32" y2="556.985" gradientUnits="userSpaceOnUse">
<stop stop-color="#E10005"/>
<stop offset="0.190625" stop-color="#FFDF0F"/>
<stop offset="0.461458" stop-color="#80C41C"/>
<stop offset="0.607292" stop-color="#0047CC"/>
<stop offset="0.810417" stop-color="#B80856"/>
<stop offset="1" stop-color="#FF9BBC"/>
</linearGradient>
<linearGradient id="paint51_linear_148_584" x1="1424.86" y1="98.1964" x2="1358.54" y2="558.553" gradientUnits="userSpaceOnUse">
<stop stop-color="#E10005"/>
<stop offset="0.190625" stop-color="#FFDF0F"/>
<stop offset="0.461458" stop-color="#80C41C"/>
<stop offset="0.607292" stop-color="#0047CC"/>
<stop offset="0.810417" stop-color="#B80856"/>
<stop offset="1" stop-color="#FF9BBC"/>
</linearGradient>
<linearGradient id="paint52_linear_148_584" x1="1422.02" y1="99.9967" x2="1355.69" y2="560.425" gradientUnits="userSpaceOnUse">
<stop stop-color="#E10005"/>
<stop offset="0.190625" stop-color="#FFDF0F"/>
<stop offset="0.461458" stop-color="#80C41C"/>
<stop offset="0.607292" stop-color="#0047CC"/>
<stop offset="0.810417" stop-color="#B80856"/>
<stop offset="1" stop-color="#FF9BBC"/>
</linearGradient>
<linearGradient id="paint53_linear_148_584" x1="1419.16" y1="101.628" x2="1352.54" y2="563.087" gradientUnits="userSpaceOnUse">
<stop stop-color="#E10005"/>
<stop offset="0.190625" stop-color="#FFDF0F"/>
<stop offset="0.461458" stop-color="#80C41C"/>
<stop offset="0.607292" stop-color="#0047CC"/>
<stop offset="0.810417" stop-color="#B80856"/>
<stop offset="1" stop-color="#FF9BBC"/>
</linearGradient>
<linearGradient id="paint54_linear_148_584" x1="1416.28" y1="101.719" x2="1347.43" y2="570.707" gradientUnits="userSpaceOnUse">
<stop stop-color="#E10005"/>
<stop offset="0.190625" stop-color="#FFDF0F"/>
<stop offset="0.461458" stop-color="#80C41C"/>
<stop offset="0.607292" stop-color="#0047CC"/>
<stop offset="0.810417" stop-color="#B80856"/>
<stop offset="1" stop-color="#FF9BBC"/>
</linearGradient>
<linearGradient id="paint55_linear_148_584" x1="1413.4" y1="101.798" x2="1342.2" y2="578.612" gradientUnits="userSpaceOnUse">
<stop stop-color="#E10005"/>
<stop offset="0.190625" stop-color="#FFDF0F"/>
<stop offset="0.461458" stop-color="#80C41C"/>
<stop offset="0.607292" stop-color="#0047CC"/>
<stop offset="0.810417" stop-color="#B80856"/>
<stop offset="1" stop-color="#FF9BBC"/>
</linearGradient>
<linearGradient id="paint56_linear_148_584" x1="1410.6" y1="101.871" x2="1336.91" y2="586.821" gradientUnits="userSpaceOnUse">
<stop stop-color="#E10005"/>
<stop offset="0.190625" stop-color="#FFDF0F"/>
<stop offset="0.461458" stop-color="#80C41C"/>
<stop offset="0.607292" stop-color="#0047CC"/>
<stop offset="0.810417" stop-color="#B80856"/>
<stop offset="1" stop-color="#FF9BBC"/>
</linearGradient>
<linearGradient id="paint57_linear_148_584" x1="1407.68" y1="101.928" x2="1331.34" y2="595.348" gradientUnits="userSpaceOnUse">
<stop stop-color="#E10005"/>
<stop offset="0.190625" stop-color="#FFDF0F"/>
<stop offset="0.461458" stop-color="#80C41C"/>
<stop offset="0.607292" stop-color="#0047CC"/>
<stop offset="0.810417" stop-color="#B80856"/>
<stop offset="1" stop-color="#FF9BBC"/>
</linearGradient>
<linearGradient id="paint58_linear_148_584" x1="1404.83" y1="101.978" x2="1325.71" y2="604.185" gradientUnits="userSpaceOnUse">
<stop stop-color="#E10005"/>
<stop offset="0.190625" stop-color="#FFDF0F"/>
<stop offset="0.461458" stop-color="#80C41C"/>
<stop offset="0.607292" stop-color="#0047CC"/>
<stop offset="0.810417" stop-color="#B80856"/>
<stop offset="1" stop-color="#FF9BBC"/>
</linearGradient>
<linearGradient id="paint59_linear_148_584" x1="1401.95" y1="102.009" x2="1319.85" y2="613.392" gradientUnits="userSpaceOnUse">
<stop stop-color="#E10005"/>
<stop offset="0.190625" stop-color="#FFDF0F"/>
<stop offset="0.461458" stop-color="#80C41C"/>
<stop offset="0.607292" stop-color="#0047CC"/>
<stop offset="0.810417" stop-color="#B80856"/>
<stop offset="1" stop-color="#FF9BBC"/>
</linearGradient>
<linearGradient id="paint60_linear_148_584" x1="1399.13" y1="102.031" x2="1313.87" y2="622.969" gradientUnits="userSpaceOnUse">
<stop stop-color="#E10005"/>
<stop offset="0.190625" stop-color="#FFDF0F"/>
<stop offset="0.461458" stop-color="#80C41C"/>
<stop offset="0.607292" stop-color="#0047CC"/>
<stop offset="0.810417" stop-color="#B80856"/>
<stop offset="1" stop-color="#FF9BBC"/>
</linearGradient>
<linearGradient id="paint61_linear_148_584" x1="1396.23" y1="102.034" x2="1307.6" y2="632.951" gradientUnits="userSpaceOnUse">
<stop stop-color="#E10005"/>
<stop offset="0.190625" stop-color="#FFDF0F"/>
<stop offset="0.461458" stop-color="#80C41C"/>
<stop offset="0.607292" stop-color="#0047CC"/>
<stop offset="0.810417" stop-color="#B80856"/>
<stop offset="1" stop-color="#FF9BBC"/>
</linearGradient>
<linearGradient id="paint62_linear_148_584" x1="1393.37" y1="102.022" x2="1301.16" y2="643.318" gradientUnits="userSpaceOnUse">
<stop stop-color="#E10005"/>
<stop offset="0.190625" stop-color="#FFDF0F"/>
<stop offset="0.461458" stop-color="#80C41C"/>
<stop offset="0.607292" stop-color="#0047CC"/>
<stop offset="0.810417" stop-color="#B80856"/>
<stop offset="1" stop-color="#FF9BBC"/>
</linearGradient>
<linearGradient id="paint63_linear_148_584" x1="1390.51" y1="101.997" x2="1294.47" y2="654.13" gradientUnits="userSpaceOnUse">
<stop stop-color="#E10005"/>
<stop offset="0.190625" stop-color="#FFDF0F"/>
<stop offset="0.461458" stop-color="#80C41C"/>
<stop offset="0.607292" stop-color="#0047CC"/>
<stop offset="0.810417" stop-color="#B80856"/>
<stop offset="1" stop-color="#FF9BBC"/>
</linearGradient>
</defs>
</svg>
