<svg xmlns="http://www.w3.org/2000/svg" fill="none" viewBox="0 0 149 42"><g clip-path="url(#a)"><path d="M68.233 23.28a10.704 10.704 0 0 0-1.247 0c-.812.052-1.62.08-2.41-.168-.436-.136-.814-.368-1.06-.763-.28-.454-.466-.955-.666-1.446-.193-.476-.36-.964-.585-1.427a16 16 0 0 0-.66-1.387c-.355-.659-.76-1.277-1.362-1.741 0-.025-.013-.04-.039-.04l-.16-.076c0-.028-.012-.04-.04-.027a1.72 1.72 0 0 0-.582-.16c-.234-.08-.475-.018-.682.052-.523.179-.937.537-1.279.964-.406.504-.7 1.08-.971 1.663-.042.092-.117.174-.105.286h-.001c-.028-.001-.04.01-.036.038-.297.6-.522 1.232-.765 1.853-.108.276-.255.54-.295.839-.049.113-.102.224-.144.34-.108.298-.187.61-.318.896-.161.35-.283.715-.436 1.067-.21.482-.41.97-.693 1.414-.226.357-.512.394-.838.14-.02-.015-.047-.017-.07-.024-.002-.058-.034-.093-.085-.111-.005-.075-.047-.122-.11-.155-.146-.294-.307-.582-.43-.886-.203-.496-.383-1-.572-1.503.016-.033.041-.069-.021-.081-.029-.065-.055-.13-.083-.194-.038-.209-.125-.4-.195-.596-.314-.889-.57-1.795-.853-2.693-.182-.625-.362-1.251-.55-1.875a44.702 44.702 0 0 0-.75-2.325 17.833 17.833 0 0 0-.612-1.499c-.217-.463-.467-.913-.83-1.271a2.846 2.846 0 0 0-1.1-.7c-.743-.248-1.444-.167-2.096.249-.776.494-1.309 1.212-1.758 1.998-.392.683-.697 1.41-.982 2.143a27.88 27.88 0 0 0-1.138 3.495c-.132.51-.228 1.029-.34 1.544-.063.303-.15.599-.205.905-.113.639-.264 1.27-.355 1.912-.068.49-.19.97-.218 1.466-.06.064-.056.14-.044.217l-.014.122c-.048.057-.039.124-.034.19l-.01.122a.18.18 0 0 0-.023.151 23.952 23.952 0 0 0-.205 1.532c-.03.034-.03.072-.014.111a.293.293 0 0 0-.021.164c-.054.055-.04.122-.033.188a1.472 1.472 0 0 0-.008.086c-.047.056-.042.122-.038.188l-.009.084c-.026.033-.037.069-.026.111-.027.064-.02.17-.099.175-.093.008-.065-.107-.1-.164-.022-.037-.034-.083-.05-.123-.02-.174-.084-.335-.108-.51-.088-.654-.209-1.303-.318-1.954l-.321-1.92c.012-.033.009-.06-.02-.084-.006-.05-.01-.1-.017-.15.002-.013.007-.027.005-.04-.15-1.021-.304-2.044-.451-3.066a765.59 765.59 0 0 1-.534-3.78c-.106-.767-.206-1.535-.309-2.303.017-.171-.036-.334-.058-.5-.106-.782-.217-1.564-.34-2.345-.11-.697-.214-1.396-.369-2.085-.124-.774-.315-1.536-.505-2.296-.074-.294-.136-.593-.26-.873-.018-.178-.034-.358-.178-.493L35 6.15c.04-.074-.004-.14-.024-.205a18.628 18.628 0 0 0-.495-1.382c-.404-1.01-.885-1.979-1.562-2.838-.452-.572-.971-1.08-1.641-1.378-1.407-.622-2.71-.413-3.886.58-.63.533-1.071 1.215-1.474 1.919-.574 1-.983 2.077-1.352 3.169-.398 1.178-.718 2.378-1.016 3.584-.108.435-.236.865-.303 1.31a.128.128 0 0 0-.025.115c-.033.035-.05.072-.039.12-.006.038-.012.077-.02.115-.031.018-.031.048-.027.081-.245.951-.487 1.902-.737 2.852-.346 1.32-.691 2.642-1.053 3.96-.314 1.14-.64 2.277-.978 3.411a57.09 57.09 0 0 1-.93 2.897c-.02.057-.01.14-.11.132-.192-.513-.421-1.01-.626-1.518-.22-.544-.379-1.114-.571-1.67-.181-.528-.33-1.066-.546-1.58.006-.102-.043-.188-.078-.277-.093-.227-.192-.45-.272-.684-.162-.476-.339-.945-.582-1.386a.453.453 0 0 0-.124-.233.785.785 0 0 0-.187-.358c-.047-.191-.17-.338-.283-.491l.04.156-.04-.156c-.03-.055-.059-.112-.09-.166-.005-.04-.022-.07-.061-.082l-.03-.036c.006-.04-.015-.064-.048-.081a4.612 4.612 0 0 0-1.068-1.195c-.834-.667-1.9-.693-2.754-.053a4.39 4.39 0 0 0-1.13 1.221c-.16.26-.328.512-.466.786-.316.633-.5 1.314-.708 1.986a306.736 306.736 0 0 0-.809 2.756 16.254 16.254 0 0 1-.75 2.125 8.624 8.624 0 0 1-.914 1.621c-.27.37-.593.685-.928.989a4.82 4.82 0 0 1-1.04.704 7.371 7.371 0 0 1-1.23.472c-.42.127-.84.235-1.269.31-.846.147-1.7.219-2.557.244-.065.001-.142-.025-.206.047.314.305.693.45 1.11.516.16.11.339.128.525.117.14.093.3.049.45.061.59.049 1.181.075 1.774.044.278-.014.569.01.83-.066.386-.11.781-.184 1.16-.342.302-.127.616-.236.905-.388a6.42 6.42 0 0 0 1.481-1.101c.327-.318.628-.654.904-1.017.203-.265.383-.543.567-.822.301-.453.571-.926.795-1.417.362-.8.647-1.631.958-2.453.326-.86.696-1.705 1.05-2.554.115-.279.235-.554.354-.833.018-.006.03-.017.025-.039l.006-.01c.048-.012.062-.05.086-.091.107-.185.204-.182.345-.018.132.155.196.346.271.526.361.867.69 1.744.925 2.655.025.095.012.227.13.288-.002.025-.013.051-.005.073.195.605.371 1.217.533 1.834.207.782.434 1.56.683 2.329.27.84.635 1.642 1.063 2.414.06.106.073.263.223.313-.008.054.025.095.053.137.281.441.595.856.98 1.211.282.258.592.48.965.57.626.151 1.207.032 1.74-.345.363-.258.633-.599.86-.965.165-.267.32-.548.446-.842.156-.364.364-.705.487-1.085.167-.266.256-.566.373-.856.247-.61.497-1.22.719-1.841.254-.715.513-1.43.752-2.151.086-.26.187-.515.273-.774.17-.51.27-1.045.47-1.543.23-.571.41-1.16.578-1.746.242-.854.482-1.711.71-2.57.184-.698.387-1.39.583-2.084l.007-.081c.047-.028.033-.075.036-.117.035-.016.04-.044.035-.079l.009-.076c.176-.398.26-.825.395-1.235.256-.776.517-1.55.823-2.309.143-.358.314-.707.471-1.06.153-.341.3-.685.503-1.001.051-.015.055-.068.081-.1.297-.362.562-.337.73.017.144.305.257.628.32.959.091.49.152.988.218 1.483.07.531.046 1.073.156 1.603a.244.244 0 0 0 .01.156c-.013.057-.016.113.015.165l.039.618c-.008.08-.017.16.023.236.007.117.011.233.017.35-.001.147-.007.293-.004.44.001.092-.024.195.07.264.064.903.162 1.802.278 2.7.003.079 0 .157.008.233.078.743.159 1.485.234 2.228.083.81.142 1.624.267 2.43-.006.012-.005.023.003.032l.008.083a3.415 3.415 0 0 1 .034.352c.02.135-.073.284.055.402.075.459.073.926.172 1.383.1.462.11.936.2 1.402.134.687.215 1.383.355 2.07.125.613.214 1.234.364 1.842.053.213.048.443.12.648.067.192.12.38.131.582.002.044-.009.095.058.1l-.003.011.01.006c-.008.047 0 .086.046.113l-.005.042c-.012.047-.006.09.033.122-.008.11.04.207.063.308.022.07-.053.166.06.21.122.497.236.996.388 1.488.201.65.326 1.325.562 1.966.186.505.351 1.017.482 1.541.038.149.056.32.183.438.008.055.012.11.051.153.007.055.002.111.044.154l.02.073c-.02.149.066.27.111.402.106.3.18.615.36.886-.02.093.054.154.085.228.372.882.784 1.743 1.38 2.5.558.707 1.209 1.281 2.138 1.417.897.132 1.701-.066 2.363-.726.503-.5.785-1.124.998-1.785.354-1.102.46-2.25.548-3.396.057-.746.086-1.495.148-2.243.056-.674.084-1.35.125-2.026l-.006-.055a.393.393 0 0 0 .037-.281.416.416 0 0 0 .02-.205c.049-.097.032-.2.032-.304l.01-.205c.044-.086.029-.176.024-.267l.158-1.846a97.35 97.35 0 0 1 .443-4.155c.069-.541.144-1.083.216-1.622.028-.05.062-.1.04-.163.003-.038.006-.077.011-.114.011-.038.027-.074.033-.113a32.36 32.36 0 0 1 .46-2.409c.102-.444.202-.892.299-1.338.073-.334.145-.668.252-.993.033-.1.063-.222.172-.235.12-.012.122.122.163.207.198.413.318.856.484 1.28.162.469.317.941.493 1.406.115.307.203.623.31.93.072.207.083.447.257.613l.156.419c.01.07.008.145.034.208.187.431.337.879.52 1.31.368.875.768 1.736 1.266 2.546.148.242.28.499.486.702l.003.008c.02.096.086.16.157.22l.008.01c.008.07.042.117.116.13.032.055.057.117.1.163.393.44.799.866 1.317 1.165.604.347 1.234.579 1.949.483.495-.065.946-.228 1.331-.556a5.275 5.275 0 0 0 1.173-1.429c.148-.262.28-.528.413-.8.141-.284.286-.564.355-.878h-.005c.053-.017.052-.058.04-.102a2.5 2.5 0 0 0 .258-.623c.14-.455.311-.9.419-1.367.051-.22.107-.438.162-.657.014-.022.038-.04.042-.064.175-.721.389-1.433.61-2.142.105-.342.238-.675.37-1.01.152-.39.304-.778.553-1.119l.199.038c.018.144.14.227.206.342.39.692.8 1.37 1.178 2.067.311.574.648 1.133.98 1.696.254.433.564.81.992 1.095.62.411 1.335.497 2.033.602a3 3 0 0 0 1.154-.042c.43-.103.879-.124 1.295-.297.356-.149.687-.327.937-.63.055-.06.081-.11-.05-.118ZM19.93 26.23c-.019-.07-.03-.14-.058-.204.027.064.04.136.058.204.11.214.22.431.334.644-.114-.213-.223-.428-.334-.644Zm23.546 5.785Z" fill="#fff"/></g><path d="M85.887 11.516h-7.883v20.461h4.092V26.26h3.19c5.265 0 8.756-3.009 8.756-7.583 0-4.302-3.25-7.16-8.155-7.16Zm-.15 10.983h-3.64v-7.222h3.64c2.558 0 4.273 1.385 4.273 3.4 0 2.287-1.716 3.822-4.273 3.822Zm20.555-4.875v9.238c-1.023 1.234-2.226 1.896-3.309 1.896-2.077 0-3.25-1.324-3.25-3.671v-7.463H95.79v7.703c0 4.213 2.528 7.011 6.349 7.011 1.625 0 2.979-.572 4.152-1.504v1.143h3.942V17.624h-3.942Zm7.095-7.01v21.363h3.942V10.614h-3.942Zm9.75 16.398-3.641-.03c.301 4.183 3.49 5.356 6.65 5.356 3.64 0 6.409-1.565 6.409-4.754 0-2.768-2.077-3.791-4.303-4.182l-2.588-.422c-1.384-.24-1.775-.872-1.775-1.414 0-.692.722-1.203 2.226-1.203 1.385 0 2.618.42 2.709 1.715h3.64c-.331-4.123-3.761-4.845-6.349-4.845-3.64 0-6.138 1.776-6.138 4.724 0 2.708 2.137 3.852 4.243 4.213l3.099.541c.993.181 1.474.662 1.474 1.234 0 .813-1.053 1.204-2.557 1.204-1.685 0-2.859-.512-3.099-2.137Zm18.303-9.749c-4.393 0-7.402 3.28-7.402 7.553s3.039 7.522 7.643 7.522c3.159 0 5.717-1.565 6.68-4.273h-4.363c-.512.632-1.234.813-2.287.813-2.257 0-3.34-1.264-3.641-2.919h10.532c.752-4.965-2.227-8.696-7.162-8.696Zm.03 3.34c1.836 0 3.009.843 3.22 2.678h-6.529c.361-1.504 1.384-2.678 3.309-2.678Z" fill="#fff"/><defs><clipPath id="a"><path d="M0 0h68.328v42H0z" fill="#fff"/></clipPath></defs></svg>