<svg xmlns="http://www.w3.org/2000/svg" fill="none" viewBox="0 0 619 639"><g clip-path="url(#a)"><path d="M454.239 194.256h-72.245s16.141-23.387 28.857-23.387c12.717 0 16.474 15.591 16.474 15.591s8.946-7.272 17.291-5.981c8.345 1.291 9.623 13.777 9.623 13.777Zm-248.584 140.58h-72.232s16.103-23.439 28.883-23.439c12.78 0 16.473 15.592 16.473 15.592s8.946-7.285 17.291-5.981c8.346 1.304 9.585 13.828 9.585 13.828Zm-10.326-122.918H54.634s19.26-43.017 39.938-45.714c20.678-2.697 30.467 31.95 30.467 31.95s13.304-12.256 23.758-12.256c10.454 0 18.519 16.128 18.519 16.128s20.844-11.016 28.013 9.892Zm155.034-98.457h-95.057s16.333-31.17 34.046-31.669c17.713-.498 27.017 23.579 27.017 23.579s27.553-22.058 33.994 8.09Z" fill="#fff"/><path d="M105.639 498.343c-7.297.256-15.438.665-21.483-4.064-5.585-4.371-10.569-10.888-9.828-18.365.218-2.134.703-3.45 2.99-2.556 3.477 1.381 6.16 5.227 8.576 7.924a74.946 74.946 0 0 0 10.122 9.598c2.556 1.993 5.406 3.719 8.051 5.648l.997.729.371.281h.204a.356.356 0 0 1 .307.153.404.404 0 0 1 .013.39.412.412 0 0 1-.32.224v.038Z" fill="#80C41C"/><path d="M105.997 497.858c-6.39-.115-13.342.179-18.467-4.179a29.796 29.796 0 0 1-5.968-7.234c-.742-1.214-2.965-4.818-2.045-6.249 1.674-2.556 9.317 7.974 10.377 8.946a31.448 31.448 0 0 0 14.173 7.361l.997.728a34.908 34.908 0 0 1-10.646-4.089c-4.562-2.71-7.093-6.722-10.658-10.48-.767-.818-3.093-3.54-3.962-1.84-.575 1.112 1.572 4.639 2.032 5.393a29.558 29.558 0 0 0 5.636 6.888c5.112 4.473 12.013 4.307 18.48 4.576a.386.386 0 0 1 .051.179Z" fill="#fff"/><path d="M109.665 502.791c0 .281-.115.562-.179.843a.228.228 0 0 1-.053.093.254.254 0 0 1-.087.061.32.32 0 0 1-.384-.154.198.198 0 0 1-.019-.083c0-.029.007-.057.019-.083v-.115l.077-.256v-.089c-1.278-4.831-1.789-9.853-3.157-14.684-1.278-4.614-2.914-9.138-3.834-13.841-.588-2.978-2.645-17.892 3.911-16.013 2.914.83 4.908 5.035 6.007 7.553a30.515 30.515 0 0 1 2.389 10.671c.486 9.125-2.849 17.394-4.69 26.097Z" fill="#80C41C"/><path d="M111.774 484.247a35.932 35.932 0 0 0-1.061-10.109c-.294-1.138-1.712-6.62-3.578-6.48-1.189.077-1.393 2.441-1.495 3.221-.422 3.31.651 6.697 1.278 9.93a135.545 135.545 0 0 1 2.415 19.886c0 .421-.128.856-.166 1.278-.039.421-.09.703-.141 1.06-.007.12-.007.239 0 .358v.281a.306.306 0 0 0 .384.154l.115-.818v.664c0-.23.089-.46.127-.69v-1.265a148.65 148.65 0 0 0 2.122-17.47Zm-2.224 15.042a118.662 118.662 0 0 0-1.124-11.668c-.435-3.131-1.023-6.211-1.687-9.291a32.157 32.157 0 0 1-.831-5.278c-.064-1.355.14-6.39 2.722-3.272 1.866 2.262 2.326 7.08 2.556 9.853a49.61 49.61 0 0 1-.179 9.24c-.358 3.489-.933 6.991-1.457 10.416Z" fill="#fff"/><path d="M113.601 522.817h-.268c-6.671-.332-15.566.294-21.113-4.128-4.102-3.259-8.128-9.713-6.837-15.17 1.47-6.173 9.802 1.278 12 3.016a204.1 204.1 0 0 1 16.359 15.95l.089.115c.051.102-.089.191-.23.217Z" fill="#80C41C"/><path d="m113.832 522.625-1.163-.715a168.855 168.855 0 0 1-12.78-8.883c-1.048-.792-8.563-7.476-9.688-5.112-.677 1.445 1.802 4.384 2.556 5.381a20.644 20.644 0 0 0 5.112 4.537c4.448 2.773 9.854 3.361 14.889 4.703.237.047.472.107.703.179l.128.076c.153 0 .294-.089.243-.166Zm-13.215-3.834a20.863 20.863 0 0 1-5.75-3.898c-1.126-1.06-5.113-5.112-4.027-6.696.563-.869 1.023-.409 2.084.115.49.24.964.513 1.418.818 1.125.728 2.147 1.584 3.195 2.415a148.17 148.17 0 0 0 15.132 10.659c-4.039-1.176-8.231-1.662-12.052-3.336v-.077Z" fill="#fff"/><path d="M125.794 509.066a39.63 39.63 0 0 1-11.502 19.988l-.128.076a.33.33 0 0 1-.345-.128.278.278 0 0 1 0-.383l.332-.345c1.112-9.074 2.326-18.097 3.259-27.196.217-2.147 1.904-15.796 6.096-13.572 2.556 1.367 2.76 6.965 2.978 9.483a39.985 39.985 0 0 1-.69 12.077Z" fill="#80C41C"/><path d="M123.365 496.912c-.23-.767-.626-1.547-1.47-1.01-1.623 1.01-2.274 7.438-2.556 9.215-1.124 7.31-2.849 14.352-4.613 21.521-.153.601-.294 1.201-.447 1.815l-.409.549a.279.279 0 0 0 .345.115 1.322 1.322 0 0 1 0-.178l.549-.729a46.784 46.784 0 0 0 6.646-12.895 44.651 44.651 0 0 0 1.942-8.946c.345-2.837.869-6.671.013-9.457Zm-8.562 30.8c-.077.127-.167.23-.256.358.094-.248.17-.49.23-.729a133.233 133.233 0 0 0 4.09-16.614c.485-2.863.792-5.751 1.38-8.588.243-1.201.831-4.626 1.827-5.176.997-.55.972.78 1.074 1.546.077.55.077 1.56.089 2.084a46.006 46.006 0 0 1-8.434 27.119Z" fill="#fff"/><path d="M115.454 548.62h-1.278l-.076-3.515c-.167-4.741-.358-9.483-.639-14.224a166.455 166.455 0 0 0-.639-8.051 1.726 1.726 0 0 1 0-.269c0-.217 0-.434-.09-.651a6.62 6.62 0 0 0-.089-.703 57.358 57.358 0 0 0-4.576-17.432 97.976 97.976 0 0 0-2.747-5.432l-.294-.511a.343.343 0 0 0-.077-.128c-.089-.191-.192-.358-.294-.537-.102-.178-.14-.255-.23-.396-3.08-5.431-6.62-10.62-9.968-15.86a382.733 382.733 0 0 1-2.863-4.498 3.036 3.036 0 0 1-.166-.269c-.077-.102-.14-.217-.217-.332-4.205-6.646-8.346-13.342-12.716-19.86-.167-.23.23-.447.383-.217 2.952 4.332 6.007 8.575 9.048 12.856.396.563.793 1.151 1.201 1.713a320.497 320.497 0 0 1 2.39 3.387 358.551 358.551 0 0 1 4.678 6.824 190.984 190.984 0 0 1 12.281 19.873c.269.524.512 1.048.767 1.572.256.524.32.665.448.984.127.32.357.767.523 1.15a61.466 61.466 0 0 1 4.486 21.023c0 .499.077 1.01.103 1.521v1.917c0 .435 0 .856.063 1.278.192 4.742.32 9.483.422 14.212.051 1.546.115 3.054.166 4.575Z" fill="#80C41C"/><path d="M75.62 462.725c-3.656-4.907-8.346-15.054-2.953-20.32a5.729 5.729 0 0 1 7.668-.562c2.85 2.057 4.128 5.943 5.112 9.163 2.467 8.601 4.102 17.355 7.182 25.79 0 0 .256.716.333.895.076.179-.218.255-.282.076l-.306-.817c-5.917-4.218-12.422-8.397-16.755-14.225Z" fill="#80C41C"/><path d="m92.578 476.809-.09-.141a62.21 62.21 0 0 1-3.424-6.39 124.743 124.743 0 0 1-5.253-14.058c-.588-1.84-3.208-10.876-6.39-7.272-1.367 1.521-1.175 4.205-.958 6.058a22.826 22.826 0 0 0 2.811 8.461c2.901 5.214 7.4 9.163 12.129 12.677l.613.55c0 .077.09.14.128.23l.09.14a.165.165 0 0 0 .076.064.211.211 0 0 0 .172.006.217.217 0 0 0 .122-.121.28.28 0 0 0-.026-.204Zm-1.431-.997a48.585 48.585 0 0 1-10.224-10.313 26.148 26.148 0 0 1-3.348-6.838 20.758 20.758 0 0 1-.716-3.323c-.13-.845-.18-1.701-.153-2.556.063-1.853.83-3.834 1.93-4.076 1.354-.243 1.801.549 2.696 2.108a16 16 0 0 1 .805 1.623c.6 1.393 1.06 2.85 1.52 4.282.755 2.39 1.522 4.767 2.39 7.118a68.684 68.684 0 0 0 1.88 4.729 63.015 63.015 0 0 0 4 7.783l-.78-.537Z" fill="#fff"/><path d="M533.987 476.464c-.614 4.869-1.534 9.7-2.556 14.492-.55 2.735-1.138 5.458-1.687 8.192-.614 3.004-1.508 6.058-.69 9.1.017.14.017.281 0 .422a.36.36 0 0 1-.627-.103 1.735 1.735 0 0 1 0-.204v-.064a11.62 11.62 0 0 1-1.048-2.556 64.606 64.606 0 0 1-2.428-7.042 61.652 61.652 0 0 1-2.364-15.029 51.314 51.314 0 0 1 1.393-13.458c.869-3.527 2.096-8.805 4.741-11.502 2.39-2.44 4.384 1.47 5.112 3.464 1.47 4.486.716 9.674.154 14.288Z" fill="#80C41C"/><path d="M529.616 466.125c-1.777 0-3.067 5.738-3.694 8.217a49.598 49.598 0 0 0-1.52 11.95 64.211 64.211 0 0 0 3.68 21.227c.09.269.179.562.281.831v.064a1.218 1.218 0 0 0 0 .191.378.378 0 0 0 .286.247.362.362 0 0 0 .195-.018.36.36 0 0 0 .158-.114c-.115-.6-.204-1.188-.281-1.789-.076-.6-.115-1.073-.153-1.61-.486-5.828.358-11.783 1.086-17.573.959-6.786 2.326-21.61-.038-21.623Zm-1.278 40.346c.089.793.217 1.572.371 2.339-.179-.562-.371-1.125-.537-1.7a70.765 70.765 0 0 1-3.349-18.723 51.042 51.042 0 0 1 .78-10.709 48.287 48.287 0 0 1 1.38-5.598c.256-.767 1.547-5.572 2.633-5.329.779.166.958 4.486.971 4.575v2.556c0 1.789-.14 3.579-.294 5.355-.332 3.834-.894 7.668-1.354 11.502a66.653 66.653 0 0 0-.601 15.732Z" fill="#fff"/><path d="M561.949 489.921c-3.259 6.39-8.754 11.234-14.416 15.336-3.041 2.237-6.185 4.333-9.278 6.493a50.645 50.645 0 0 0-8.013 6.16l-.307.332a13.513 13.513 0 0 0-1.661 2.287.179.179 0 0 1-.153.103c-.027.096-.061.19-.103.281a.063.063 0 0 1-.064.064.064.064 0 0 1-.063-.064v-.32a.202.202 0 0 1 0-.242.885.885 0 0 0 0-.103 2.232 2.232 0 0 1 0-.306c.92-7.438 6.121-14.953 10.517-20.679 4.397-5.725 9.828-10.786 16.614-13.406 1.713-.651 5.598-2.466 7.323-1.073 1.726 1.393.307 3.783-.396 5.137Z" fill="#80C41C"/><path d="M556.914 489.947c-1.546-1.547-6.109 2.275-7.246 3.169a76.318 76.318 0 0 0-9.445 9.176 68.011 68.011 0 0 0-12.051 17.445l-.154.204v.32a.435.435 0 0 0 0 .102.207.207 0 0 0 0 .256c.09-.09.154-.192.231-.269a38.548 38.548 0 0 1 1.776-2.044l.307-.333a149.212 149.212 0 0 1 14.058-12.46 69.718 69.718 0 0 0 9.393-9.125c.677-.856 4.435-5.138 3.131-6.441Zm-1.419 3.361c-3.834 6.39-10.517 11.042-16.179 15.694a77.182 77.182 0 0 0-10.735 10.224 72.433 72.433 0 0 1 11.144-15.694 97.053 97.053 0 0 1 7.668-7.885 38.529 38.529 0 0 1 4.652-3.719 15.16 15.16 0 0 1 3.144-1.7c2.16-.613.958 2.032.306 3.08Z" fill="#fff"/><path d="M527.239 535.75a.357.357 0 0 1-.332.179l.089.115a.122.122 0 0 1 .036.083.114.114 0 0 1-.01.045.103.103 0 0 1-.026.038.1.1 0 0 1-.077.035.097.097 0 0 1-.076-.035c-6.032-6.134-11.835-13.585-14.838-21.726a33.701 33.701 0 0 1-2.16-10.696c-.064-2.556-.191-7.541 1.943-9.368 4.307-3.668 8.243 11.885 8.818 14.224 1.074 4.281 1.776 8.639 2.761 12.92 1.086 4.703 2.556 9.317 3.91 13.918a.285.285 0 0 1 .014.139.303.303 0 0 1-.052.129Z" fill="#80C41C"/><path d="M527.239 535.737c-.23-.396-.46-.779-.678-1.188a72.836 72.836 0 0 1-7.693-20.895 66.413 66.413 0 0 0-2.863-10.876c-.358-.856-1.431-4.179-2.85-2.556-.741.882-.128 7.157.166 8.78.723 3.692 1.9 7.28 3.502 10.684a75.674 75.674 0 0 0 9.879 16.039l.332.434a.113.113 0 0 0 .036-.083.117.117 0 0 0-.009-.045.126.126 0 0 0-.027-.038l-.076-.102a.404.404 0 0 0 .281-.154Zm-8.742-13.355a53.253 53.253 0 0 1-4.14-10.364 38.745 38.745 0 0 1-.908-4.358 24.688 24.688 0 0 1-.294-3.476c0-2.837.256-3.579.729-3.681.473-.102.703.256 1.533 1.943a18.525 18.525 0 0 1 1.214 3.463c.435 1.674.831 3.361 1.189 5.048.728 3.387 1.418 6.799 2.403 10.109a55.813 55.813 0 0 0 5.993 13.585 86.106 86.106 0 0 1-7.719-12.269Z" fill="#fff"/><path d="M546.575 520.836a21.15 21.15 0 0 1-3.949 8.218c-3.578 4.945-8.154 9.048-12.064 13.725-.575.69-1.15 1.406-1.7 2.135-.064.076-.511 1.111-.498 1.022.012-.09.063-.409.191-1.074.639-3.271 2.684-13.15 5.253-18.211a43.638 43.638 0 0 1 5.713-8.946c1.099-1.278 3.706-3.962 5.661-3.374 1.955.588 1.7 4.933 1.393 6.505Z" fill="#80C41C"/><path d="M543.393 518.868c-2.096-1.278-7.489 8.333-8.218 9.585a60.763 60.763 0 0 0-6.083 14.697c-.179.575-.32 1.15-.473 1.738l-.204 1.074s.46-.933.511-1.023l.281-.383 1.419-1.751c2.338-3.502 4.754-6.978 7.029-10.544a56.996 56.996 0 0 0 4.357-8.013c.205-.651 2.301-4.843 1.381-5.38Zm-.601 2.709c-2.978 8.384-9.048 14.991-13.687 22.442l-.23.358.191-.652a69.995 69.995 0 0 1 4.921-12.243 68.323 68.323 0 0 1 4.14-6.901 34.268 34.268 0 0 1 2.556-3.592c.435-.472 1.662-1.725 2.084-1.52.421.204.217 1.533.025 2.083v.025Z" fill="#fff"/><path d="M567.598 451.632c-6.224 14.289-22.544 20.947-29.624 34.724v.064c-.217.421-.422.843-.626 1.278a.287.287 0 0 1-.085.113.287.287 0 0 1-.271.044.281.281 0 0 1-.117-.081.205.205 0 0 1 0-.23l.153-.319c1.099-8.588 4.627-17.432 8.729-25.011 3.579-6.594 8.473-12.78 15.247-16.218 1.674-.856 4.933-2.671 6.799-1.278 1.866 1.394.562 5.138-.205 6.914Z" fill="#80C41C"/><path d="M562.001 452.246c-.793-.588-1.994.115-2.672.473a23.83 23.83 0 0 0-4.715 3.22 39.225 39.225 0 0 0-7.528 8.946 80.95 80.95 0 0 0-8.882 17.982 77.681 77.681 0 0 0-1.278 4.358c0 .178-.077.357-.128.536.032.034.072.06.116.075a.29.29 0 0 0 .357-.139c.192-.434.396-.83.588-1.278l.064-.115a47.424 47.424 0 0 1 4.435-8.14 111.164 111.164 0 0 1 9.316-11.042c1.317-1.368 13.061-12.883 10.327-14.876Zm-.997 3.297c-1.892 3.361-4.818 6.109-7.387 8.946-2.569 2.837-5.189 5.738-7.668 8.652a53.875 53.875 0 0 0-5.444 7.438 41.959 41.959 0 0 0-3.413 6.876 58.727 58.727 0 0 1 2.441-7.144v-.09a106.66 106.66 0 0 1 6.032-12.013.843.843 0 0 0 .077-.153 49.473 49.473 0 0 1 6.889-9.598 27.702 27.702 0 0 1 4.894-4.166c2.045-1.278 3.834-2.186 4.345-1.534.512.652-.204 1.802-.728 2.786h-.038Z" fill="#fff"/><path d="M545.872 468.374c-1.866 4.039-3.655 8.116-5.419 12.218a569.443 569.443 0 0 0-2.479 5.751l-.064.115-.882 2.083c-2.696 6.275-5.661 12.691-7.31 19.336a57.495 57.495 0 0 0-1.482 10.735c0 .371 0 .742-.064 1.125v.613a2.853 2.853 0 0 0 0 .346c-.115 3.131-.064 6.275 0 9.329.089 4.268.447 8.499.856 12.78a1.916 1.916 0 0 0 0 .371v1.405c.141 1.368.268 2.723.371 4.09h-1.278a82.486 82.486 0 0 1-1.572-12.576 1.997 1.997 0 0 1 0-.268c0-.409-.026-.835-.077-1.278v-1.521c0-1.278-.077-2.428-.102-3.629a89.567 89.567 0 0 1 1.495-21.075c0-.191.09-.37.141-.562a.825.825 0 0 1 0-.243c0-.127 0-.268.089-.409l.166-.639c.103-.383.218-.766.333-1.15l.102-.332a137.337 137.337 0 0 1 7.182-17.355c.473-1.023.959-2.045 1.444-3.068l.805-1.686 1.278-2.556v-.09c1.994-4.013 4.064-7.987 6.033-12.013.268-.179.524-.038.434.153Z" fill="#80C41C"/><path d="m587.1 548.62-66.89.307-66.903.115-133.807.217-133.807-.217-66.903-.103-66.903-.319 66.903-.307 66.903-.115 133.807-.217 133.807.217 66.903.115 66.89.307Z" fill="#263238"/><path d="M268.38 321.698c13.841 37.727 49.676 110.892 76.284 121.998 22.582 9.419 76.475 10.569 92.565 9.866 8.512-.37-6.39-72.756-15.489-72.603-9.342.153-51.976-1.099-58.66-2.377-6.684-1.278-43.299-46.353-66.111-70.29-28.793-30.059-39.963-17.496-28.589 13.406Z" fill="#AD6359"/><path d="M426.379 452.987c8.588.946 48.858 2.071 59.977-.166 11.118-2.236 42.646-11.016 41.79-19.707-.856-8.69-10.288-6.85-10.288-6.85s12.78-5.815 11.068-14.48c-1.713-8.664-16.231-5.342-16.231-5.342s12.627-6.926 10.365-15.451c-2.262-8.524-16.384-2.722-16.384-2.722s11.847-5.789 7.029-12.038c-5.802-7.502-26.442 5.635-38.903 7.195-2.837.357-57.867 3.067-57.867 3.067l9.444 66.494Z" fill="#AD6359"/><path d="M507.903 387.796c-15.195 9.624-23.515 11.208-41.228 11.234-.345 0-.422.511-.064.55 17.355 1.546 28.116 1.073 41.79-11.081.678-.588.243-1.163-.498-.703Zm5.981 17.854c-16.614 8.626-25.662 10.416-44.206 11.821-.268 0-.256.46 0 .46 18.314.154 28.998-.575 44.513-11.374.703-.485.46-1.303-.307-.907Zm3.029 20.652c-16.729 7.183-26.519 9.573-44.73 8.614a.336.336 0 0 0-.365.3.338.338 0 0 0 .301.365c18.441 2.786 30.672-.115 44.934-8.755.997-.587.908-.984-.14-.524Z" fill="#263238"/><path d="M405.625 386.301s16.486-15.336 25.214-20.524c8.729-5.189 48.347-12.41 50.405-3.937 2.645 10.927-19.4 19.618-30.749 22.455 0 0 6.147 25.291-8.332 34.953-14.48 9.662-36.538-32.947-36.538-32.947Z" fill="#AD6359"/><path d="M480.988 365.086c-4.78 11.707-19.924 14.48-30.736 18.058a1.043 1.043 0 0 0-.433.247 1.037 1.037 0 0 0-.317.915c.024.167.089.325.188.461 1.879 10.761 1.38 26.506-6.825 34.621a.26.26 0 0 0-.032.365.262.262 0 0 0 .365.032c9.981-7.502 11.732-22.928 8.946-34.596 11.144-3.502 26.199-6.939 28.972-20.064 0-.077-.102-.115-.128-.039Z" fill="#263238"/><path d="m291.384 386.876 73.524-15.336s-51.759-56.884-77.601-76.514c-26.927-20.448-38.813-16.128-23.31 25.893 15.617 42.289 27.387 65.957 27.387 65.957Z" fill="#FBBA0C"/><path d="M299.742 362.735a3.841 3.841 0 0 1-1.648-.575 3.099 3.099 0 0 1-1.432-2.722 4.238 4.238 0 0 0-2.671-3.834 4.329 4.329 0 0 0-2.224-.128c-.692.103-1.379.244-2.057.422.703.153 1.355.242 2.057.37a4.356 4.356 0 0 1 1.687.524 3.164 3.164 0 0 1 1.508 2.646 4.154 4.154 0 0 0 2.556 3.834c.701.3 1.475.384 2.224.242.703-.166 1.355-.242 2.019-.409a14.845 14.845 0 0 0-2.019-.37Zm-39.669-63.683a3.54 3.54 0 0 1-1.7-.575 3.265 3.265 0 0 1-.843-.831c.089.652.191 1.342.332 2.058a4.152 4.152 0 0 0 2.211.179 16.138 16.138 0 0 0 2.006-.422c-.66-.173-1.33-.31-2.006-.409Zm65.05 30.672a3.829 3.829 0 0 1-.498 1.495 3.07 3.07 0 0 1-1.114 1.115 3.073 3.073 0 0 1-1.519.419 4.08 4.08 0 0 0-3.834 2.556 3.257 3.257 0 0 0-.204 2.211c.115.69.204 1.355.357 2.006a16.7 16.7 0 0 0 .422-2.006 3.84 3.84 0 0 1 .575-1.649 3.059 3.059 0 0 1 2.748-1.418 4.17 4.17 0 0 0 3.834-2.671c.132-.365.201-.75.204-1.138l-.971-.92Zm-31.183-17.739a3.667 3.667 0 0 1-1.572.767 3.03 3.03 0 0 1-2.914-.894 4.19 4.19 0 0 0-4.562-.78 3.923 3.923 0 0 0-1.687 1.483c-.384.575-.818 1.111-1.15 1.725.613-.371 1.15-.78 1.725-1.15a3.304 3.304 0 0 1 1.559-.818 3.085 3.085 0 0 1 2.965.728 4.05 4.05 0 0 0 4.473.946 4.11 4.11 0 0 0 1.776-1.431c.371-.576.78-1.112 1.112-1.739-.664.384-1.201.793-1.725 1.163Zm56.04 47.005a3.523 3.523 0 0 1-1.559.78 3.03 3.03 0 0 1-2.914-.895 4.204 4.204 0 0 0-4.562-.779 3.92 3.92 0 0 0-1.687 1.482c-.384.575-.818 1.112-1.163 1.725.626-.37 1.163-.779 1.738-1.15a3.247 3.247 0 0 1 1.559-.818 3.103 3.103 0 0 1 2.965.729 4.058 4.058 0 0 0 4.473.946 4.129 4.129 0 0 0 1.777-1.432c.37-.588.779-1.125 1.111-1.738-.664.383-1.201.792-1.789 1.15h.051Z" fill="#243591"/><path d="M293.735 373.176c1.713-.575 3.502-.895 5.253-1.278l5.393-1.278a539.468 539.468 0 0 1 10.953-2.428c7.31-1.547 14.62-3.119 21.956-4.55 2.019-.383 4.038-.767 6.057-1.112 2.02-.345 4.295-.562 6.39-.92.141 0 .154.179 0 .205-1.789.434-3.565 1.022-5.354 1.469-1.79.448-3.694.895-5.56 1.278-3.646.81-7.301 1.589-10.965 2.339-7.208 1.47-14.416 2.965-21.662 4.281l-6.058 1.087c-2.121.383-4.255.894-6.39 1.086-.064.038-.128-.179-.013-.179Z" fill="#263238"/><path d="m327.078 379.451-35.694 7.425s-11.796-23.668-27.4-65.945c-6.569-17.892-8.218-28.87-5.866-34.109l68.96 92.629Z" fill="#000" opacity=".1"/><path d="M316.944 548.62H203.368c-.933-3.655-1.84-7.259-2.748-10.799-1.035-4.064-2.057-8.039-3.028-11.911-.218-.856-.448-1.725-.665-2.556l-2.198-8.665c-.435-1.712-.869-3.387-1.278-5.112-.409-1.725-.856-3.361-1.278-4.984-.115-.435-.217-.869-.332-1.278l-.345-1.393c-.141-.575-.282-1.125-.422-1.674-.166-.588-.307-1.163-.448-1.738a135.09 135.09 0 0 1-.817-3.221c-.409-1.559-.793-3.08-1.176-4.562-.154-.639-.332-1.278-.486-1.93-.268-1.035-.537-2.032-.779-3.029l-.486-1.943c-.677-2.556-1.278-5.048-1.866-7.335-.166-.601-.307-1.202-.46-1.777-.243-.984-.498-1.942-.728-2.863a52.007 52.007 0 0 1-.422-1.674 339.782 339.782 0 0 1-1.355-5.316c-.115-.409-.217-.818-.319-1.202-.256-1.035-.499-1.955-.703-2.773-.09-.332-.154-.652-.243-.945-.09-.294-.166-.627-.23-.895a7.854 7.854 0 0 0-.154-.575c-.051-.166-.14-.55-.191-.78-.051-.23-.064-.243-.09-.345-.179-.677-.255-1.022-.255-1.022h110.496s3.629 12.537 9.457 32.768c1.176 4.115 2.466 8.562 3.834 13.278 3.847 13.483 8.371 29.279 13.291 46.251Z" fill="#286EB6"/><path d="M221.95 548.62h-2.824a3417.097 3417.097 0 0 1-12.218-52.27c-.946-4.26-1.887-8.52-2.824-12.78a38.17 38.17 0 0 0-.256-1.189.174.174 0 0 1 .122-.211.169.169 0 0 1 .13.017c.04.023.069.061.08.105l.115.383a9653.41 9653.41 0 0 1 3.834 13.713 2813.19 2813.19 0 0 1 13.841 52.232Z" fill="#263238"/><path d="m286.758 456.323-4.87 24.41-4 20.026-6.811 34.122-.703 3.489-1.163 5.828-.882 4.422h-64.974c-.92-3.668-1.84-7.272-2.735-10.799-1.035-4.064-2.057-8.039-3.028-11.911-.218-.856-.448-1.725-.665-2.556l-2.198-8.665c-.435-1.712-.869-3.387-1.278-5.112-.409-1.725-.856-3.361-1.278-4.984-.115-.435-.217-.869-.332-1.278l-.345-1.393c-.141-.575-.282-1.125-.422-1.674-.166-.588-.307-1.163-.448-1.738a135.09 135.09 0 0 1-.817-3.221c-.409-1.559-.793-3.08-1.176-4.562-.166-.665-.332-1.278-.486-1.93-.268-1.035-.537-2.032-.779-3.029l-.486-1.943c-.677-2.556-1.278-5.048-1.866-7.335-.166-.601-.307-1.202-.46-1.777-.243-.984-.498-1.942-.728-2.863a52.007 52.007 0 0 1-.422-1.674 339.782 339.782 0 0 1-1.355-5.316c-.115-.409-.217-.818-.319-1.202-.256-1.035-.499-1.955-.703-2.773-.09-.332-.154-.652-.243-.945-.09-.294-.166-.627-.23-.895a7.854 7.854 0 0 0-.154-.575c-.051-.166-.14-.55-.191-.78-.051-.23-.064-.243-.09-.345-.179-.677-.255-1.022-.255-1.022h106.892Z" fill="#263238"/><path d="M286.77 456.246c0 .601-.46 7.195-1.521 17.24-.306 2.94-.664 6.16-1.073 9.611a482.842 482.842 0 0 1-2.454 17.828c-1.7 11.093-3.91 23.183-6.786 35.017a291.683 291.683 0 0 1-3.336 12.601H128.963c1.687-21.726 3.233-41.394 4.447-56.896 1.713-21.803 2.812-35.452 2.812-35.452h129.372l21.176.051Z" fill="#286EB6"/><path d="M286.476 469.384a510.71 510.71 0 0 1-.703 15.336 247.887 247.887 0 0 1-1.571 16.499c0 .204 0 .409-.077.613a420.545 420.545 0 0 1-2.313 15.4c-.818 4.78-1.419 9.93-3.54 14.339a14.068 14.068 0 0 1-3.336 4.512 9.831 9.831 0 0 1-4.562 2.351c-.278.071-.56.122-.844.153h-.243a.325.325 0 0 1 .154.294c-.064 1.713 0 3.451-.205 5.112v.218c-.179 1.482-.447 2.952-.716 4.422h-2.453v-.09c.421-1.61.792-3.233 1.188-4.869.396-1.636.984-3.272 1.368-4.959a.342.342 0 0 1 .115-.153 7.594 7.594 0 0 1-7.362-4.626 13.207 13.207 0 0 1-.115-6.697c.448-2.927.869-5.841 1.278-8.767.831-5.355 1.917-10.672 2.863-16.001.141-.805.294-1.636.435-2.441 1.917-10.85 3.91-21.726 6.313-32.474.089-.447.192-.894.294-1.278.102-.383.537-.217.511.077-.064.716-.14 1.444-.23 2.172a328.548 328.548 0 0 1-1.482 12.333c-.69 4.831-1.163 9.675-1.841 14.493-.23 1.636-.46 3.284-.703 4.92-1.111 7.924-2.262 15.847-3.616 23.745-.627 3.668-2.914 10.224 2.364 11.387a5.455 5.455 0 0 0 3.578-.447 11.208 11.208 0 0 0 4.908-6.198c1.495-4.205 2.032-8.844 2.811-13.215a425.068 425.068 0 0 0 2.301-14.505c.852-6.049 1.751-12.094 2.696-18.135l1.457-9.24.69-4.268c.116-.371.588-.371.588-.013Zm-126.215 37.982a72.307 72.307 0 0 0 17.586-2.364c2.658-.69 5.278-1.534 7.872-2.39a20.45 20.45 0 0 0 7.106-3.566c4-3.45 5.866-8.882 7.591-13.7a129.325 129.325 0 0 0 4.614-16.614c0-.281.472-.192.485.077a64.709 64.709 0 0 1-2.402 18.889c-1.432 5.214-3.362 11.042-7.579 14.697-4.435 3.834-10.454 5.188-16.128 5.891a74.023 74.023 0 0 1-19.17-.268.323.323 0 0 1-.227-.105.324.324 0 0 1 .252-.547Zm-9.892-38.557c-.306 7.992-.639 15.979-.997 23.962-.852 18.617-1.75 37.233-2.696 55.849h-2.671a7623.503 7623.503 0 0 1 3.834-55.938c.596-7.966 1.201-15.928 1.815-23.886a.353.353 0 0 1 .226-.327.362.362 0 0 1 .465.202.362.362 0 0 1 .024.138Z" fill="#263238"/><path d="m311.334 515.354-193.502-14.672s38.927-154.28 115.799-210.998c19.643-14.492 41.152-5.188 50.839 5.636 24.589 27.516 27.439 219.42 26.864 220.034Z" fill="#FBBA0C"/><path d="M224.404 358.939a3.689 3.689 0 0 1-1.649-.575 3.044 3.044 0 0 1-1.431-2.722 3.994 3.994 0 0 0-1.532-3.097 4.001 4.001 0 0 0-3.376-.737c-.688.099-1.371.236-2.044.409.69.166 1.354.243 2.044.383a4.16 4.16 0 0 1 1.7.524 3.172 3.172 0 0 1 1.508 2.633 4.166 4.166 0 0 0 2.556 3.834 3.983 3.983 0 0 0 2.224.243c.703-.166 1.355-.243 2.006-.422-.658-.2-1.328-.358-2.006-.473Zm75.338 3.834a3.828 3.828 0 0 1-1.649-.575 3.089 3.089 0 0 1-1.431-2.722 4.243 4.243 0 0 0-2.671-3.834 4.33 4.33 0 0 0-2.224-.128c-.693.104-1.38.245-2.057.422.703.153 1.354.243 2.057.37a4.383 4.383 0 0 1 1.687.524 3.175 3.175 0 0 1 1.508 2.646 4.152 4.152 0 0 0 2.556 3.834c.701.3 1.475.385 2.224.243.703-.166 1.355-.243 2.019-.409a14.768 14.768 0 0 0-2.019-.409v.038Zm-36.219 127.685a3.663 3.663 0 0 1-1.674-.575 3.143 3.143 0 0 1-1.457-2.722 4.107 4.107 0 0 0-2.671-3.834 4.237 4.237 0 0 0-2.211-.128c-.651.128-1.354.217-2.006.383.66.175 1.33.308 2.006.397a4.391 4.391 0 0 1 1.675.536 3.126 3.126 0 0 1 1.571 2.633 4.054 4.054 0 0 0 2.556 3.834c.711.312 1.5.401 2.263.256.651-.154 1.278-.256 2.019-.409-.754-.166-1.419-.243-2.071-.371Zm-3.45-191.406a3.55 3.55 0 0 1-1.7-.575 3.27 3.27 0 0 1-1.431-2.709 4.017 4.017 0 0 0-2.633-3.745 3.836 3.836 0 0 0-2.262-.166c-.665.128-1.355.217-2.019.409.664.166 1.354.243 2.019.422a3.958 3.958 0 0 1 1.687.498 3.164 3.164 0 0 1 1.559 2.62 4.233 4.233 0 0 0 2.556 3.834c.724.279 1.512.35 2.275.204a15.955 15.955 0 0 0 2.006-.421 18.623 18.623 0 0 0-2.057-.371Zm-50.481 174.473a4.18 4.18 0 0 1-1.687-.563 3.146 3.146 0 0 1-1.432-2.722 4.134 4.134 0 0 0-2.671-3.834 4.37 4.37 0 0 0-2.236-.166c-.69.166-1.355.243-2.006.422.66.172 1.33.305 2.006.396a3.616 3.616 0 0 1 1.7.537 3.14 3.14 0 0 1 1.559 2.632 4.063 4.063 0 0 0 2.556 3.834 3.932 3.932 0 0 0 2.249.218c.665-.128 1.278-.218 2.019-.422-.779-.115-1.418-.205-2.057-.332Zm-68.003 18.007a4.184 4.184 0 0 1-1.687-.563 3.172 3.172 0 0 1-1.431-2.722 4.118 4.118 0 0 0-2.671-3.834 4.334 4.334 0 0 0-2.224-.166c-.703.166-1.354.243-2.019.422.663.178 1.338.311 2.019.396a3.752 3.752 0 0 1 1.687.537 3.16 3.16 0 0 1 1.572 2.632 4.049 4.049 0 0 0 2.556 3.834c.713.29 1.495.366 2.25.218.68-.102 1.354-.243 2.019-.422-.78-.115-1.432-.192-2.096-.332h.025Zm101.448-78.265a3.99 3.99 0 0 1-1.649-.537 3.12 3.12 0 0 1-1.431-2.709 4.167 4.167 0 0 0-2.671-3.834 3.743 3.743 0 0 0-2.224-.166c-.703.166-1.354.242-2.057.409.675.185 1.363.322 2.057.409a4.132 4.132 0 0 1 1.687.498 3.156 3.156 0 0 1 1.521 2.633 4.19 4.19 0 0 0 2.556 3.834 3.748 3.748 0 0 0 2.224.204 19.436 19.436 0 0 0 2.057-.396c-.741-.102-1.393-.179-2.096-.345h.026Zm51.286 37.944a3.43 3.43 0 0 1-1.648-.575 3.074 3.074 0 0 1-1.445-2.71 4.163 4.163 0 0 0-2.671-3.834 4.44 4.44 0 0 0-2.262-.115c-.651.115-1.278.205-2.006.358.652.174 1.313.311 1.981.409a3.834 3.834 0 0 1 1.725.537 3.084 3.084 0 0 1 1.521 2.632 4.148 4.148 0 0 0 2.556 3.834 3.957 3.957 0 0 0 2.275.243c.69-.166 1.354-.243 2.006-.409a13.065 13.065 0 0 0-2.057-.37h.025Zm-124.477-32.615a3.378 3.378 0 0 1-1.661-.575 3.074 3.074 0 0 1-1.432-2.709 4.155 4.155 0 0 0-2.671-3.834 4.453 4.453 0 0 0-2.262-.128c-.664.128-1.278.204-2.019.371.664.175 1.339.312 2.019.408a3.94 3.94 0 0 1 1.725.537 3.073 3.073 0 0 1 1.521 2.633 4.152 4.152 0 0 0 2.556 3.834 3.966 3.966 0 0 0 2.275.243c.69-.166 1.355-.243 2.007-.409a14.578 14.578 0 0 0-2.084-.371h.026Zm120.72-7.361c-.467.382-1 .677-1.572.869a3.194 3.194 0 0 1-2.965-.792 4.149 4.149 0 0 0-4.486-.933 3.838 3.838 0 0 0-1.751 1.431c-.383.575-.792 1.112-1.163 1.725.627-.37 1.163-.779 1.738-1.15a4.169 4.169 0 0 1 1.56-.78 3.332 3.332 0 0 1 2.965.895 4.144 4.144 0 0 0 4.562.792 4.34 4.34 0 0 0 1.687-1.482c.358-.575.78-1.099 1.099-1.725-.601.37-1.125.779-1.7 1.15h.026Zm-68.578-102.713c-.127-.703-.217-1.367-.37-2.019a19.556 19.556 0 0 0-.422 2.019 4.103 4.103 0 0 1-.524 1.687 3.074 3.074 0 0 1-2.633 1.521 4.2 4.2 0 0 0-3.834 2.556 4.06 4.06 0 0 0-.242 2.249c.166.665.242 1.278.421 2.019.205-.703.281-1.354.409-2.019a3.448 3.448 0 0 1 .575-1.674 3.14 3.14 0 0 1 2.722-1.444 4.12 4.12 0 0 0 3.771-2.671c.25-.715.294-1.485.127-2.224ZM205.95 426.98a17.115 17.115 0 0 0-.409-2.007c-.154.652-.256 1.278-.409 2.007a4.054 4.054 0 0 1-.499 1.687 3.059 3.059 0 0 1-2.633 1.521 4.238 4.238 0 0 0-3.834 2.556 4.304 4.304 0 0 0-.204 2.223c.095.689.227 1.371.396 2.045.19-.67.331-1.354.422-2.045a3.493 3.493 0 0 1 .575-1.648 3.054 3.054 0 0 1 2.709-1.444 4.21 4.21 0 0 0 3.834-2.671 4.043 4.043 0 0 0 .052-2.224Zm-22.174-67.862a16.277 16.277 0 0 0-.396-2.006c-.166.651-.256 1.278-.422 2.006a3.912 3.912 0 0 1-.498 1.687 3.048 3.048 0 0 1-2.62 1.521 4.266 4.266 0 0 0-3.834 2.556 4.376 4.376 0 0 0-.205 2.236c.1.689.236 1.371.409 2.045.184-.672.325-1.355.422-2.045.041-.591.239-1.16.575-1.648a3.054 3.054 0 0 1 2.71-1.444 4.218 4.218 0 0 0 2.322-.754 4.218 4.218 0 0 0 1.512-1.917 3.925 3.925 0 0 0 .025-2.237Zm110.496 145.858a17.148 17.148 0 0 0-.409-2.019c-.153.664-.255 1.278-.409 2.019a4.163 4.163 0 0 1-.498 1.687 3.08 3.08 0 0 1-2.633 1.521 4.23 4.23 0 0 0-3.834 2.556 4.33 4.33 0 0 0-.204 2.224c0 .166 0 .345.089.511h.639c0-.192.064-.371.089-.562a3.546 3.546 0 0 1 .576-1.649 3.071 3.071 0 0 1 2.683-1.342 4.203 4.203 0 0 0 3.834-2.671 4.05 4.05 0 0 0 .077-2.275ZM266.105 377.01c-.166-.665-.243-1.278-.409-2.019a17.78 17.78 0 0 0-.409 2.019 4.093 4.093 0 0 1-.537 1.725 3.062 3.062 0 0 1-2.632 1.534 4.049 4.049 0 0 0-3.834 2.556 3.439 3.439 0 0 0-.205 2.211c.128.703.205 1.355.371 2.019.176-.664.313-1.338.409-2.019a4.215 4.215 0 0 1 .575-1.636 3.079 3.079 0 0 1 2.709-1.431 4.153 4.153 0 0 0 3.834-2.671 4.78 4.78 0 0 0 .128-2.288Zm-86.393 119.979c-.153-.703-.243-1.355-.409-2.007-.178.66-.314 1.33-.409 2.007a3.46 3.46 0 0 1-.537 1.687 2.983 2.983 0 0 1-2.619 1.52 4.209 4.209 0 0 0-3.834 2.556 3.834 3.834 0 0 0-.243 2.045v.23c0 .103 0 .23.064.333h.677c0-.103 0-.205.089-.307a.652.652 0 0 1 0-.153 3.227 3.227 0 0 1 .512-1.534 3.049 3.049 0 0 1 2.709-1.444 4.095 4.095 0 0 0 2.334-.737 4.095 4.095 0 0 0 1.5-1.934 4.178 4.178 0 0 0 .166-2.288v.026Zm-38.148-59.274c-.153-.703-.243-1.355-.409-2.019a17.107 17.107 0 0 0-.409 2.019 3.512 3.512 0 0 1-.537 1.687 2.995 2.995 0 0 1-2.556 1.521 2.873 2.873 0 0 0-.473 0l-.69 1.853a2.906 2.906 0 0 1 1.202-.205 4.104 4.104 0 0 0 3.834-2.671 4.185 4.185 0 0 0 .038-2.185Zm119.978-98.93a3.829 3.829 0 0 1-1.571.78 3.072 3.072 0 0 1-2.914-.908 4.178 4.178 0 0 0-4.55-.779 4.04 4.04 0 0 0-1.7 1.482c-.37.575-.818 1.112-1.15 1.725.614-.37 1.15-.779 1.725-1.15a3.32 3.32 0 0 1 1.56-.818 3.07 3.07 0 0 1 2.965.742 4.048 4.048 0 0 0 4.485.933 4.018 4.018 0 0 0 1.764-1.432c.383-.575.78-1.112 1.125-1.738-.627.383-1.163.792-1.739 1.163Zm31.12-26.135-.384.102a3.026 3.026 0 0 1-2.913-.894 4.194 4.194 0 0 0-4.563-.78 3.927 3.927 0 0 0-1.687 1.482c-.383.576-.818 1.112-1.15 1.726.613-.371 1.15-.78 1.725-1.15a3.309 3.309 0 0 1 1.559-.818 3.085 3.085 0 0 1 2.965.728 4.054 4.054 0 0 0 4.473.946c.117-.038.228-.09.333-.154-.077-.396-.192-.728-.358-1.188Zm-85.626 75.517a3.164 3.164 0 0 1-1.559.78 3.051 3.051 0 0 1-2.927-.895 4.152 4.152 0 0 0-4.562-.78 3.899 3.899 0 0 0-1.687 1.47c-.358.575-.818 1.112-1.151 1.738.614-.383 1.151-.792 1.726-1.163a3.534 3.534 0 0 1 1.572-.818 3.059 3.059 0 0 1 2.952.741 4.053 4.053 0 0 0 4.473.946 4.135 4.135 0 0 0 1.776-1.444c.371-.575.78-1.112 1.112-1.725-.626.37-1.163.779-1.725 1.15Zm-36.934 72.744a3.338 3.338 0 0 1-4.525-.09 4.061 4.061 0 0 0-4.524-.818 4.416 4.416 0 0 0-1.687 1.47 15.944 15.944 0 0 0-1.163 1.738 14.084 14.084 0 0 0 1.739-1.163 3.696 3.696 0 0 1 1.559-.818 3.146 3.146 0 0 1 2.926.78 4.184 4.184 0 0 0 4.512.958 4.265 4.265 0 0 0 1.738-1.444c.358-.575.818-1.112 1.15-1.725-.575.281-1.15.741-1.725 1.112Zm59.618 43.158a3.338 3.338 0 0 1-4.524-.09 4.077 4.077 0 0 0-4.524-.818 4.505 4.505 0 0 0-1.687 1.47c-.42.554-.804 1.135-1.15 1.738a14.948 14.948 0 0 0 1.725-1.15c.44-.404.977-.686 1.559-.818a3.142 3.142 0 0 1 2.927.767 4.181 4.181 0 0 0 4.511.958 4.235 4.235 0 0 0 1.738-1.431c.358-.575.818-1.112 1.151-1.738-.614.319-1.151.741-1.726 1.112Zm23.324-50.673a3.697 3.697 0 0 1-1.61.78 3.193 3.193 0 0 1-2.914-.895 4.036 4.036 0 0 0-4.576-.792 4.125 4.125 0 0 0-1.674 1.482c-.383.537-.779 1.061-1.163 1.687a15.692 15.692 0 0 0 1.738-1.15 5.63 5.63 0 0 1 1.56-.831 3.202 3.202 0 0 1 2.964.793 4.03 4.03 0 0 0 6.25-.499c.358-.575.779-1.112 1.099-1.725-.524.332-1.048.741-1.674 1.15Zm57.51 23.388a3.274 3.274 0 0 1-1.559-.87 4.096 4.096 0 0 0-4.524-.779 3.688 3.688 0 0 0-1.687 1.47 15.7 15.7 0 0 0-1.151 1.738c.614-.384 1.151-.78 1.726-1.163a4.056 4.056 0 0 1 1.572-.857 3.073 3.073 0 0 1 2.913.78 4.332 4.332 0 0 0 2.761 1.278c.013-.562-.051-1.074-.051-1.597Z" fill="#243591"/><path d="M279.243 322.618c-11.285.167-26.084-20.256-30.442-35.119-.281-1.022 11.502-36.551 13.112-43.835.332-1.508 43.312 21.176 43.312 21.176s-7.86 14.275-10.582 26.991c-.218 1.074-4.537 30.621-15.4 30.787Z" fill="#AD6359"/><path d="M305.225 264.827s-7.86 14.288-10.595 27.004c0 .256-.319 2.096-.856 4.78-21.292-6.799-32.193-23.183-37.343-34.378 2.556-8.052 4.843-15.617 5.482-18.57.333-1.495 43.312 21.164 43.312 21.164Z" fill="#263238"/><path d="M252.622 195.074c-6.39 16.154-1.278 64.616 9.611 76.181 15.86 16.781 43.707 20.448 58.456.959 14.288-18.876 6.645-81.92-5.764-92.629-18.263-15.771-52.935-8.333-62.303 15.489Z" fill="#AD6359"/><path d="M293.94 221.324c-1.355.601-2.71.946-4.103 1.419-1.584.524-2.786 1.099-4.46.639a2.226 2.226 0 0 1-1.393-2.339c.371-2.083 2.147-3.208 4.013-3.911a8.092 8.092 0 0 1 5.866-.166 2.393 2.393 0 0 1 .077 4.358Zm1.163 6.978c0-.115-.23.192-.217.319.575 3.247.677 7.042-2.109 8.55-.089 0 0 .205 0 .179 3.566-1.022 3.387-6.032 2.326-9.048Z" fill="#263238"/><path d="M291.704 225.324c-5.279.345-4.192 10.902.703 10.569 4.894-.332 3.731-10.863-.703-10.569Zm22.237.575c0-.128.268.128.281.269.23 3.284 1.06 6.99 4.128 7.77.089 0 .102.192 0 .192-3.668-.141-4.716-5.087-4.409-8.231Z" fill="#263238"/><path d="M316.51 222.193c5.214-.946 6.709 9.56 1.878 10.429-4.831.869-6.249-9.636-1.878-10.429Zm3.297-6.594c-1.483-.09-2.85-.422-4.307-.652-1.649-.269-2.991-.32-4.269-1.508a2.268 2.268 0 0 1-.538-1.342 2.267 2.267 0 0 1 .385-1.393c1.278-1.687 3.412-1.853 5.406-1.61a8.216 8.216 0 0 1 5.291 2.556 2.396 2.396 0 0 1 .314 2.621 2.406 2.406 0 0 1-2.282 1.328Zm-25.624 42.378c.869.677 1.751 1.649 2.952 1.623a8.485 8.485 0 0 0 3.425-1.176.11.11 0 0 1 .075-.022.116.116 0 0 1 .072.03.122.122 0 0 1 .036.069.122.122 0 0 1-.017.077 4.443 4.443 0 0 1-3.975 2.198 3.475 3.475 0 0 1-2.811-2.62c-.128-.192.115-.281.243-.179Zm2.428-10.147a11.154 11.154 0 0 0 7.936 4.179c1.346.121 2.703.044 4.026-.23.257-.027.51-.083.754-.166l.703-.179a.834.834 0 0 0 .588-.805 1.427 1.427 0 0 0 0-.32v-.294c-.192-2.556-.831-6.39-.831-6.39.971.371 5.879 1.994 5.662.69-1.764-10.824-3.745-22.85-7.796-33.228a.309.309 0 0 0-.529-.061.305.305 0 0 0-.059.202c1.278 10.467 4.422 20.64 5.892 31.119a19.688 19.688 0 0 0-5.419-1.048c-.345.141 1.367 7.323 1.367 8.473a.736.736 0 0 1 0 .115c-4.179.985-7.489 0-11.898-2.377-.383-.166-.626.077-.396.32Z" fill="#263238"/><path d="M306.963 250.667a13.399 13.399 0 0 1-4.87 4.639 5.95 5.95 0 0 1-3.578.601c-2.684-.422-3.003-2.812-2.735-4.908.154-1.115.437-2.209.844-3.259a17.261 17.261 0 0 0 10.339 2.927Z" fill="#263238"/><path d="M302.093 255.306a5.95 5.95 0 0 1-3.578.601c-2.684-.422-3.003-2.812-2.735-4.908 2.824 0 5.828 1.611 6.313 4.307Z" fill="#FF97B8"/><path d="M249.414 238.986c9.061-2.556 13.585-33.024 13.585-33.024s0 12.895 2.365 12.576c2.364-.32 12.268-17.892 13.355-30.416 0 0 11.502 7.744 23.004 11.131 11.502 3.387 24.18 2.556 24.18.639 0-5.802-5.355-20.972-13.253-26.327-9.112-6.16-22.11-12.115-40.896-4.882-18.787 7.234-23.567 19.183-26.314 28.589-2.748 9.406.651 42.609 3.974 41.714Z" fill="#263238"/><path d="M260.38 237.286s-9.79-16.192-17.074-12.78c-7.285 3.413-.639 26.34 7.399 29.969a8.393 8.393 0 0 0 6.549.563 8.4 8.4 0 0 0 4.953-4.32l-1.827-13.432Z" fill="#AD6359"/><path d="M245.376 231.011c-.128 0-.166.166 0 .217 5.623 2.723 8.307 8.295 10.07 13.982-1.584-2.249-3.834-3.579-6.85-1.725-.153.102 0 .345.141.319a5.2 5.2 0 0 1 5.559 2.173 24.986 24.986 0 0 1 2.403 4.779c.243.524 1.188.32 1.035-.294v-.14c.55-7.349-4.486-18.033-12.358-19.311Z" fill="#263238"/><path d="M302.669 169.476a70.062 70.062 0 0 0-18.864-7.886c-7.45-1.75-31.438-2.441-37.662 1.713-6.224 4.153-10.109 26.429-10.608 29.701-.498 3.271-1.15 23.246 5.521 28.793 6.671 5.546 10.94-28.116 23.477-38.021 12.537-9.904 38.136-14.3 38.136-14.3Z" fill="#E10005"/><path d="M302.681 169.488s-25.623 4.32-38.135 14.289c-12.512 9.968-16.806 43.579-23.49 38.033-2.939-2.454-4.14-5.751-4.882-11.157 2.556-9.675 8.167-24.525 17.496-34.238 8.742-9.086 22.506-12.69 36.819-12.78a79.26 79.26 0 0 1 12.192 5.853Z" fill="#000" opacity=".1"/><path d="M240.89 242.015c1.597-8.946 13.278-31.95 24.282-44.73 11.004-12.78 40.052-17.803 43.976-17.164 9.495 1.572 12.422 4.819 14.058 4.116 1.636-.703-7.476-8.946-9.994-10.812-2.518-1.866-9.342-6.467-13.508-6.812-4.167-.345-30.046-.473-40.513 9.406-10.467 9.879-26.902 39.132-25.317 47.286.37 1.943 2.747 3.412 3.259 6.173.677 3.604.984 7.668 1.776 10.224.639 2.083 1.84 3.118 1.981 2.313Z" fill="#E10005"/><path d="M268.073 191.342a46.025 46.025 0 0 1-5.725-5.227 33.392 33.392 0 0 1-4.703-6.237.172.172 0 0 0-.029-.063.162.162 0 0 0-.053-.044.157.157 0 0 0-.135-.001.156.156 0 0 0-.084.105.158.158 0 0 0 .032.131c1 2.503 2.403 4.826 4.154 6.876a21.511 21.511 0 0 0 6.288 4.895.257.257 0 0 0 .343-.282.262.262 0 0 0-.088-.153Zm-26.314 41.689c-.179-.665-.549-1.278-.792-1.943a11.197 11.197 0 0 1-.601-2.313 20.869 20.869 0 0 0-.549-4.46 16.653 16.653 0 0 0-1.79-3.221 5.984 5.984 0 0 1-1.38-3.834c0-.192-.281-.23-.294 0-.307 2.735 1.278 4.856 2.262 7.272.614 1.533.396 3.195.741 4.792a7.003 7.003 0 0 0 1.969 4.001c.217.089.498-.052.434-.294Zm4.128-9.381a39.441 39.441 0 0 1-2.198-3.323 27.58 27.58 0 0 1-1.572-3.553c-.447-1.201-.792-2.441-1.214-3.642-.499-1.431-1.163-2.811-1.598-4.256 0-.191-.332 0-.268.115.434 1.508.626 3.08 1.01 4.601a31.68 31.68 0 0 0 1.278 3.834 19.11 19.11 0 0 0 1.776 3.451 9.713 9.713 0 0 0 2.62 2.875.096.096 0 0 0 .134.032.096.096 0 0 0 .032-.134Zm4.192-8.422a26 26 0 0 1-4.294-6.032c-1.086-2.16-2.058-4.397-2.991-6.633 0-.141-.332-.089-.281.089a30.678 30.678 0 0 0 2.364 7.144 16.201 16.201 0 0 0 1.981 3.08 17.017 17.017 0 0 0 3.004 2.556c.14.115.345-.063.217-.204Zm4.46-8.013a8.948 8.948 0 0 1-2.134-2.658c-.665-1.099-1.278-2.198-1.917-3.323a228.251 228.251 0 0 1-1.789-3.221 8.925 8.925 0 0 1-1.278-3.476.158.158 0 0 0-.056-.079.148.148 0 0 0-.091-.03.151.151 0 0 0-.147.109 9.266 9.266 0 0 0 .651 3.617 23.805 23.805 0 0 0 1.662 3.732 30.551 30.551 0 0 0 2.172 3.374 6.011 6.011 0 0 0 2.684 2.3c.243.077.435-.204.243-.345Zm3.694-10.403c-.742-.907-1.483-1.815-2.16-2.773-.678-.959-1.278-1.943-1.892-2.94a88.773 88.773 0 0 1-1.878-3.169.148.148 0 0 0-.08-.078.155.155 0 0 0-.112.001.148.148 0 0 0-.089.136.181.181 0 0 0 .012.056 23.774 23.774 0 0 0 1.278 3.438 27.854 27.854 0 0 0 1.866 3.131c.67.993 1.4 1.945 2.186 2.85a9.283 9.283 0 0 0 2.709 2.339c.037.016.079.02.119.012a.2.2 0 0 0 .106-.056.207.207 0 0 0 .043-.225 17.584 17.584 0 0 0-2.108-2.722Zm17.265-9.841a35.023 35.023 0 0 0-5.265-6.747 39.11 39.11 0 0 0-6.467-5.432c-.14-.089-.345.077-.217.217 3.834 4.077 7.898 8.013 11.719 12.141a.173.173 0 0 0 .043.038.148.148 0 0 0 .111.013.143.143 0 0 0 .106-.122.157.157 0 0 0-.004-.057.154.154 0 0 0-.026-.051Zm6.25-7.105a18.825 18.825 0 0 0-2.735-3.221 40.857 40.857 0 0 0-7.234-5.112c-.166-.089-.345.115-.191.243 2.172 1.789 4.358 3.553 6.39 5.47 1.032.93 2.01 1.92 2.926 2.965.92 1.061 1.572 2.287 2.428 3.374a.116.116 0 0 0 .193-.016.117.117 0 0 0 .012-.074 10.491 10.491 0 0 0-1.789-3.629Zm7.847-2.735a19.283 19.283 0 0 0-2.556-3.182 22.66 22.66 0 0 0-6.147-4.55c-.154-.077-.281.166-.154.268a43.584 43.584 0 0 1 5.713 5.112c.882.946 1.713 1.93 2.556 2.901.843.972 1.508 2.147 2.441 3.029.077.064.179 0 .153-.115a21.25 21.25 0 0 0-2.006-3.463Zm5.879-3.898c-.857-.856-1.764-1.687-2.671-2.556a11.862 11.862 0 0 0-2.94-2.096c-.166-.064-.255.153-.14.268a310.599 310.599 0 0 1 4.971 5.036 30.523 30.523 0 0 1 3.681 5.406c.01.022.028.039.051.047a.085.085 0 0 0 .07-.003.092.092 0 0 0 .048-.051.094.094 0 0 0-.003-.07 11.501 11.501 0 0 0-3.067-5.981Zm6.901-.703a18.856 18.856 0 0 0-5.598-4.371c-.153-.076-.294.166-.153.256a22.944 22.944 0 0 1 5.01 4.677 32.195 32.195 0 0 1 3.731 5.79c0 .102.23.076.205 0a15.536 15.536 0 0 0-3.195-6.352Zm8.396 4.933a12.898 12.898 0 0 0-.626-1.444 15.823 15.823 0 0 0-1.738-2.658 33.56 33.56 0 0 0-4.678-4.46c-.153-.128-.332.115-.191.242a26.106 26.106 0 0 1 4.345 4.537 21.897 21.897 0 0 1 1.674 2.556c.243.435.447.895.652 1.355.166.443.371.871.613 1.278a.159.159 0 0 0 .057.058.15.15 0 0 0 .078.021.149.149 0 0 0 .077-.021.159.159 0 0 0 .057-.058 4.473 4.473 0 0 0-.32-1.406Zm5.342 1.061a22.06 22.06 0 0 0-1.431-2.185 19.203 19.203 0 0 0-1.674-1.994c-.614-.652-1.278-1.278-1.853-1.943-.141-.153-.358 0-.205.218a15.66 15.66 0 0 1 1.7 2.083c.485.69.984 1.367 1.482 2.057l1.47 2.058c.457.736.952 1.449 1.482 2.134a.13.13 0 0 0 .148.009.13.13 0 0 0 .057-.137 11.496 11.496 0 0 0-1.176-2.3Z" fill="#263238"/><path d="M220.34 335.501c6.863 39.618 29.126 116.962 50.379 136.439 15.796 14.48 100.31 19.553 111.659 20.946 8.46 1.048 9.776-70.29.792-71.785-9.214-1.521-73.498-10.224-79.862-12.665-6.365-2.441-34.289-53.369-52.398-80.948-22.953-34.826-36.206-24.423-30.57 8.013Z" fill="#AD6359"/><path d="M384.448 493.679c18.212 3.949 57.51 6.39 78.444 3.834 27.579-3.221 63.286-27.107 59.388-33.765-4.294-7.349-20.448-2.888-35.49.409-23.783 5.214-31.298-2.083-39.081-9.125-31.95-28.896-67.006-34.046-67.006-34.046s-15.067 68.616 3.745 72.693Z" fill="#AD6359"/><path d="M446.214 459.888c-8.039-7.284 22.838 0 31.656-8.665 8.818-8.664-2.556-14.058-14.301-15.412-40.551-4.818-48.002-21.892-75.977-16.41-27.976 5.483 58.622 40.487 58.622 40.487Z" fill="#AD6359"/><path d="M425.382 457.754c-.166.064-.268-.217-.102-.294a38.954 38.954 0 0 1 11.374-2.939 97.311 97.311 0 0 1 11.758 0c4.013.166 8.013.409 12.026.409 2.045 0 4.064-.154 6.109-.32 2.044-.166 3.961-.588 5.93-.613.242 0 .255.319.089.434a16.301 16.301 0 0 1-5.483 1.905 40.275 40.275 0 0 1-5.533.587c-4.075.152-8.155.053-12.218-.293-3.975-.282-7.962-.55-11.949-.473" fill="#263238"/><path d="m307.857 409.548 18.889 2.556c6.288.843 12.589 1.712 18.864 2.62l18.863 2.671 9.431 1.278 4.703.677 2.352.332 1.176.167 1.086.127-.511.09a38.504 38.504 0 0 1 8.946-2.352 46.48 46.48 0 0 1 9.138-.447 57.764 57.764 0 0 1 17.713 4.051c5.61 2.198 10.965 4.793 16.486 6.825a65.203 65.203 0 0 0 8.384 2.556c2.862.664 5.789 1.163 8.715 1.661a177.244 177.244 0 0 1 17.586 3.438 30.832 30.832 0 0 1 8.486 3.527 8.647 8.647 0 0 1 3.259 3.681 7.154 7.154 0 0 1 0 4.946 9.018 9.018 0 0 1-2.901 3.834 16.33 16.33 0 0 1-4.052 2.287 32.776 32.776 0 0 1-8.844 1.981 68.652 68.652 0 0 1-17.892-.894l.09-.192 2.914 2.76-3.067-2.556-.371-.204h.371a71.048 71.048 0 0 0 17.738.115 33.343 33.343 0 0 0 8.448-2.224c2.556-1.112 5.112-2.875 5.994-5.418a5.578 5.578 0 0 0 0-3.834 7.006 7.006 0 0 0-2.684-2.825 28.75 28.75 0 0 0-8.039-3.08c-5.687-1.393-11.578-2.249-17.457-3.195-2.94-.473-5.892-.946-8.857-1.61a67.892 67.892 0 0 1-8.703-2.556c-5.674-2.032-11.08-4.601-16.614-6.697a54.373 54.373 0 0 0-16.921-4.026 43.789 43.789 0 0 0-8.677.346 35.87 35.87 0 0 0-8.333 2.108l-.307.115h-.204l-1.278-.153-1.189-.166-2.364-.358-4.703-.716c-3.144-.473-6.275-1.009-9.406-1.521l-18.799-3.143a1579.422 1579.422 0 0 1-18.774-3.234c-6.186-1.073-12.448-2.172-18.685-3.348Z" fill="#263238"/><path d="m288.496 384.397-55.184 50.941s-16.231-75.185-17.189-107.62c-.985-33.804 9.431-40.96 34.621-3.937 25.304 37.254 37.752 60.616 37.752 60.616Z" fill="#FBBA0C"/><path d="M261.006 339.156a3.853 3.853 0 0 1-1.035.409 3.072 3.072 0 0 1-2.914-.908 4.184 4.184 0 0 0-4.55-.779 4.032 4.032 0 0 0-1.699 1.482c-.371.575-.818 1.112-1.151 1.725.614-.37 1.151-.779 1.726-1.15a3.313 3.313 0 0 1 1.559-.818 3.071 3.071 0 0 1 2.965.741 4.043 4.043 0 0 0 4.486.933 3.645 3.645 0 0 0 1.188-.766l-.575-.869Zm5.112 37.828c-.166-.664-.243-1.278-.409-2.019a17.825 17.825 0 0 0-.409 2.019 4.097 4.097 0 0 1-.537 1.726 3.067 3.067 0 0 1-2.632 1.533 4.049 4.049 0 0 0-3.834 2.556 3.439 3.439 0 0 0-.205 2.211c.128.703.205 1.355.371 2.019.177-.664.313-1.338.409-2.019a4.225 4.225 0 0 1 .562-1.61 3.075 3.075 0 0 1 2.709-1.431 4.156 4.156 0 0 0 3.834-2.671 4.768 4.768 0 0 0 .128-2.288l.013-.026Zm-44.129-68.462c-.128-.703-.218-1.368-.371-2.019a19.556 19.556 0 0 0-.422 2.019 4.103 4.103 0 0 1-.524 1.687 3.061 3.061 0 0 1-2.632 1.521 4.145 4.145 0 0 0-1.278.217 66.866 66.866 0 0 0-.218 1.853 2.904 2.904 0 0 1 1.572-.383 4.12 4.12 0 0 0 3.77-2.671 4.036 4.036 0 0 0 .103-2.224Zm21.023 104.796a3.99 3.99 0 0 1-1.649-.537 3.12 3.12 0 0 1-1.431-2.709 4.162 4.162 0 0 0-2.671-3.834 3.743 3.743 0 0 0-2.224-.166c-.703.166-1.355.242-2.057.409.675.185 1.362.322 2.057.409a4.132 4.132 0 0 1 1.687.498 3.153 3.153 0 0 1 1.521 2.633 4.19 4.19 0 0 0 2.556 3.834 3.748 3.748 0 0 0 2.224.204 19.436 19.436 0 0 0 2.057-.396c-.716-.153-1.367-.23-2.07-.396v.051Zm-18.608-54.328a3.68 3.68 0 0 1-1.648-.575 3.046 3.046 0 0 1-1.432-2.722 4.26 4.26 0 0 0-2.671-3.834l-.319-.102c0 .536.14 1.073.217 1.623a3.132 3.132 0 0 1 1.073 2.313 4.164 4.164 0 0 0 2.556 3.834 3.983 3.983 0 0 0 2.224.243c.703-.166 1.355-.243 2.007-.422-.66-.178-1.33-.315-2.007-.409v.051Z" fill="#243591"/><path d="M276.048 378.288c-1.444 1.061-2.761 2.326-4.103 3.515l-4.166 3.655a514.338 514.338 0 0 0-8.332 7.502c-5.509 5.112-11.042 10.083-16.461 15.233a200.827 200.827 0 0 0-4.435 4.282c-1.457 1.457-2.952 3.169-4.473 4.69-.102.089 0 .217.154.128 1.393-1.202 2.901-2.301 4.306-3.502a224.848 224.848 0 0 0 4.282-3.757 634.987 634.987 0 0 0 8.281-7.579c5.381-5.01 10.799-10.007 16.077-15.131 1.47-1.432 2.927-2.876 4.41-4.307 1.482-1.432 3.195-2.94 4.588-4.576.038-.051-.064-.153-.128-.153Zm-5.265-29.394c0-.141-.294 0-.256.102a58.521 58.521 0 0 0 3.029 8.205c-.728-1.125-1.431-2.262-2.16-3.374-2.377-3.604-4.805-7.169-7.169-10.786a.131.131 0 0 0-.077-.044.124.124 0 0 0-.086.016.126.126 0 0 0-.056.068.133.133 0 0 0 .001.088c3.694 6.568 7.106 13.304 11.004 19.77 3.898 6.467 10.978 17.47 13.189 20.985-1.38 1.7-3.502 3.514-5.023 5.316-.14.167.141.358.294.218 1.815-1.662 4.307-3.323 6.071-5.266.217-.242-7.579-13.789-14.442-24.576-1.341-3.667-2.76-7.259-4.319-10.722Z" fill="#263238"/><path d="M244.916 424.628c-3.591 3.834-7.297 7.668-11.029 11.336l-1.01 1.01-.409-1.432a403.894 403.894 0 0 1-4.064-15.77l-1.815-7.949-1.661-7.975a356.442 356.442 0 0 1-2.799-16.052c-.805-5.38-1.444-10.786-1.751-16.217l6.953 31.771 3.45 15.872 3.349 15.912-1.419-.435c4.026-3.412 8.052-6.812 12.205-10.071Z" fill="#263238"/><path d="M217.95 378.288c.601 1.138 1.074 2.288 1.559 3.438l1.445 3.412c.46 1.15.958 2.275 1.444 3.425.485 1.15.996 2.262 1.431 3.464a20.566 20.566 0 0 1-4.051-6.39 23.521 23.521 0 0 1-1.828-7.349Zm77.779-74.124a88.923 88.923 0 0 1-2.057 9.036 45.086 45.086 0 0 1-2.774 7.872c-2.249 4.55-6.147 8.601-11.732 9.419a19.404 19.404 0 0 1-14.479-4.371c-4.295-3.361-7.49-7.898-10.391-12.281a112.842 112.842 0 0 1-5.022-8.346c-.78-1.444-1.572-2.875-2.288-4.358-.715-1.482-1.278-2.977-2.134-4.409-.064-.115-.307 0-.256.077 1.496 3.348 5.969 13.917 7.541 16.614 2.85 4.831 5.993 9.789 10.415 13.559a21.725 21.725 0 0 0 15.4 5.572 16.03 16.03 0 0 0 13.036-8.562 32.642 32.642 0 0 0 3.105-9.189c.742-3.502 1.278-7.042 1.713-10.582.013-.128-.064-.128-.077-.051Z" fill="#263238"/><path d="M360.396 118.279a30.027 30.027 0 0 1 3.732-1.598c1.312-.487 2.683-.8 4.077-.933.431-.038.865.01 1.278.141.14.04.273.101.396.179l.243.179c.166.115.294.243.447.358.537.485 1.009.984 1.482 1.495.921 1.035 1.726 2.109 2.556 3.221l-1.009-.358a30.49 30.49 0 0 1 4.166-.882c.72-.097 1.446-.149 2.173-.153a9.03 9.03 0 0 1 1.15.089c.213.028.423.08.626.153.216.083.425.181.626.294a7.14 7.14 0 0 1 1.636 1.572c.447.563.844 1.15 1.278 1.738a26.253 26.253 0 0 1 1.943 3.707c-.895-1.061-1.764-2.148-2.671-3.157-.46-.511-.921-1.01-1.406-1.457a6.659 6.659 0 0 0-1.457-1.137 3.96 3.96 0 0 0-1.636-.167c-.652.054-1.3.143-1.942.269a56.073 56.073 0 0 0-3.924.907l-.639.179-.371-.537a58.17 58.17 0 0 0-2.377-3.144 17.152 17.152 0 0 0-1.278-1.456c-.102-.09-.217-.218-.319-.294l-.141-.128a1.946 1.946 0 0 0-.715-.141 19.343 19.343 0 0 0-3.834.371c-1.457.179-2.812.447-4.09.69Zm14.684 39.72a44.665 44.665 0 0 1 5.023-3.438 23.454 23.454 0 0 1 5.712-2.556 5.232 5.232 0 0 1 1.905-.166c.214.025.424.076.626.153l.421.192c.282.128.499.269.742.396a31.552 31.552 0 0 1 2.62 1.777 66.713 66.713 0 0 1 4.69 3.974l-1.598-.23a46.79 46.79 0 0 1 5.866-2.556c1.03-.35 2.08-.636 3.144-.856a11.923 11.923 0 0 1 1.726-.217c.319-.019.639-.019.958 0 .338.061.671.146.997.255a10.89 10.89 0 0 1 2.875 1.841 28.947 28.947 0 0 1 2.314 2.185 39.886 39.886 0 0 1 3.923 4.895c-1.623-1.278-3.195-2.646-4.844-3.834-.818-.614-1.635-1.278-2.479-1.738a9.826 9.826 0 0 0-2.492-1.278 5.686 5.686 0 0 0-2.441.23c-.943.262-1.869.582-2.773.958-1.853.729-3.719 1.598-5.496 2.48l-.894.447-.703-.677c-1.406-1.355-2.914-2.671-4.396-3.937a28.054 28.054 0 0 0-2.262-1.763c-.192-.115-.384-.256-.563-.345l-.255-.141h-.103a3.003 3.003 0 0 0-1.086 0 30.156 30.156 0 0 0-5.546 1.687 256.897 256.897 0 0 0-5.611 2.262ZM139.992 262.936a31.995 31.995 0 0 1 3.438-2.186 15.36 15.36 0 0 1 3.834-1.597 3.711 3.711 0 0 1 1.278-.064c.14.024.277.062.409.115l.281.141c.179.089.32.191.486.281.594.393 1.166.82 1.712 1.278 1.074.869 2.045 1.789 3.042 2.748l-1.061-.179a29.885 29.885 0 0 1 3.962-1.547 16.129 16.129 0 0 1 2.121-.511 8.217 8.217 0 0 1 1.151-.102c.212-.012.426-.012.639 0 .224.052.446.116.664.191a7.405 7.405 0 0 1 1.879 1.278c.537.486 1.022.997 1.495 1.509a26.537 26.537 0 0 1 2.556 3.348c-1.061-.908-2.083-1.828-3.157-2.671a16.138 16.138 0 0 0-1.623-1.278 6.808 6.808 0 0 0-1.623-.882 3.719 3.719 0 0 0-1.635.102c-.636.159-1.264.351-1.879.575a35.994 35.994 0 0 0-3.719 1.547l-.601.268-.447-.46a63.825 63.825 0 0 0-2.863-2.722 18.19 18.19 0 0 0-1.469-1.278l-.371-.243-.166-.102a2.176 2.176 0 0 0-.729 0 20.14 20.14 0 0 0-3.731.997c-1.342.498-2.595.984-3.873 1.444Zm-33.292-5.393a44.95 44.95 0 0 1 3.834-4.78 23.776 23.776 0 0 1 4.69-4.141 5.124 5.124 0 0 1 1.764-.728c.217-.021.435-.021.652 0l.46.064c.294 0 .549.102.831.153 1.021.253 2.027.56 3.016.92 1.955.703 3.834 1.534 5.661 2.403l-1.584.255a45.26 45.26 0 0 1 4.843-4.128c.88-.645 1.802-1.23 2.761-1.75a11.04 11.04 0 0 1 1.572-.729c.304-.103.616-.185.933-.243.344-.019.69-.019 1.035 0a11.06 11.06 0 0 1 3.284.895c.978.424 1.933.897 2.863 1.418a39.867 39.867 0 0 1 5.201 3.502c-1.942-.779-3.834-1.572-5.776-2.249-.959-.345-1.93-.677-2.888-.92a10.1 10.1 0 0 0-2.748-.46 5.84 5.84 0 0 0-2.249.958 24.529 24.529 0 0 0-2.378 1.738c-1.546 1.278-3.067 2.556-4.511 4l-.716.69-.869-.434a84.463 84.463 0 0 0-5.38-2.454c-.873-.39-1.77-.727-2.684-1.009a3.9 3.9 0 0 0-.639-.167h-.383a2.847 2.847 0 0 0-1.048.333 29.479 29.479 0 0 0-4.793 3.233c-1.648 1.061-3.182 2.352-4.754 3.63Zm220.864-109.295a45.225 45.225 0 0 1 3.77-4.78 23.971 23.971 0 0 1 4.703-4.153 5.108 5.108 0 0 1 1.764-.716c.212-.02.426-.02.639 0h.46c.307 0 .562.102.831.154 1.025.253 2.036.56 3.028.92 1.943.703 3.834 1.533 5.649 2.402l-1.585.256a45.297 45.297 0 0 1 4.857-4.128 25.915 25.915 0 0 1 2.748-1.764 12.793 12.793 0 0 1 1.584-.715c.3-.105.608-.187.92-.243a5.602 5.602 0 0 1 1.036 0c1.135.121 2.244.423 3.284.894.997.422 1.943.908 2.863 1.406a40.401 40.401 0 0 1 5.201 3.515c-1.942-.78-3.834-1.572-5.776-2.25a27.24 27.24 0 0 0-2.889-.92 9.583 9.583 0 0 0-2.735-.46 5.624 5.624 0 0 0-2.262.959 22.797 22.797 0 0 0-2.364 1.738c-1.559 1.278-3.08 2.556-4.511 4l-.729.69-.869-.434c-1.751-.882-3.578-1.7-5.367-2.467a27.88 27.88 0 0 0-2.684-.997 4.877 4.877 0 0 0-.639-.166h-.396a3.21 3.21 0 0 0-1.048.32 30.36 30.36 0 0 0-4.767 3.105c-1.61 1.278-3.144 2.556-4.716 3.834Z" fill="#fff"/><path d="M608.021 77.715c-.243 8.946-8.741 20.142-20.065 19.924-11.323-.217-18.684-10.224-21.317-11.949-.818-.511-4.102-.984-8.281-1.393-4.179-.409-9.266-.588-13.547-.652h-.46c-4.281 0-9.317.23-13.534.652-4.217.422-7.476.882-8.294 1.393-2.633 1.687-9.994 11.72-21.317 11.95-11.323.23-19.822-10.979-20.065-19.925-.243-8.946 6.39-20.205 15.924-21.227 9.534-1.023 18.007 7.067 22.851 9.84 1.559.895 5.048 1.38 9.304 1.598 3.361.179 10.109.268 15.732.306 5.623.039 11.783-.14 14.991-.306 4.255-.218 7.744-.703 9.304-1.598 4.843-2.773 13.278-10.863 22.85-9.84 9.572 1.022 16.154 12.269 15.924 21.227Z" fill="#455A64"/><path d="M561.297 67.85v16.767a99.724 99.724 0 0 0-2.939-.32c-4.23-.422-9.265-.588-13.547-.652h-.46c-4.281 0-9.316.23-13.534.652-1.048.102-2.032.204-2.952.32V67.849l1.355.077c3.361.179 10.109.268 15.732.306 5.623.039 11.783-.14 14.991-.306l1.354-.077Z" fill="#37474F"/><path d="M556.85 63.542H532.3v42.596h24.55V63.542ZM639 120.758v54.865s-134.088.447-136.235 1.879l-.614.447c-5.942 2.632-7.016 23.962-6.901 30.186h-48.449c.23-10.991 1.278-49.228 4.512-55.912 2.453-5.112 13.342-15.745 23.655-22.864a65.143 65.143 0 0 1 3.183-2.096 50.784 50.784 0 0 1 2.556-1.533 24.28 24.28 0 0 1 9.278-3.4c2.607-.191 129.755-1.508 149.015-1.572Z" fill="#455A64"/><path d="M450.878 185.451c-.13-6.912.298-13.823 1.278-20.666a58.896 58.896 0 0 1 2.326-10.224l.46-1.278c.09-.204.141-.409.243-.639.102-.23.243-.485.371-.69a17.794 17.794 0 0 1 1.623-2.236 46.576 46.576 0 0 1 3.591-3.834 140.148 140.148 0 0 1 15.924-13.394 91.46 91.46 0 0 1 4.307-2.926 27.463 27.463 0 0 1 4.639-2.492c.23-.077.498-.141.715-.192l.652-.115c.422-.077.856-.128 1.278-.192a45.863 45.863 0 0 1 2.556-.268 37.133 37.133 0 0 1 5.189 0c-1.713.23-3.4.549-5.112.92-.831.179-1.661.371-2.479.588l-1.278.332-.614.166-.511.192a28.85 28.85 0 0 0-4.217 2.645c-1.381.984-2.723 2.032-4.065 3.093-2.683 2.109-5.29 4.32-7.872 6.556-2.582 2.237-5.112 4.537-7.527 6.914-1.202 1.189-2.39 2.403-3.464 3.655a16.776 16.776 0 0 0-1.418 1.905 20.505 20.505 0 0 0-.946 2.147 68.222 68.222 0 0 0-2.646 9.764c-1.163 6.632-2.108 13.431-3.003 20.269Z" fill="#fff" opacity=".3"/><path d="M473.064 142.689a57.512 57.512 0 0 1 8.103-7.374 52.616 52.616 0 0 1 4.55-3.08 15.613 15.613 0 0 1 5.112-2.173c-.817.389-1.592.86-2.314 1.406-.741.511-1.469 1.061-2.198 1.598l-4.332 3.271c-2.952 2.16-5.828 4.358-8.921 6.352Z" fill="#fff" opacity=".3"/><path d="M571.266 116.554h-53.369v65.868h53.369v-65.868Zm-70.993 82.801h-59.401v22.621h59.401v-22.621Zm62.187-93.217h-35.745v10.416h35.745v-10.416Z" fill="#37474F"/><path d="M562.448 116.554h-35.733v-3.719l35.733 1.239v2.48Z" fill="#263238"/><path d="M469.361 238.986s-85.201 114.109-21.3 143.582a50.951 50.951 0 0 0 42.6 0c63.901-29.473-21.3-143.582-21.3-143.582Z" fill="#E10005"/><path d="M469.361 238.986s-85.201 114.109-21.3 143.582a50.951 50.951 0 0 0 42.6 0c63.901-29.473-21.3-143.582-21.3-143.582Z" fill="#fff" opacity=".6"/><path d="M469.361 240.207s41.38 53.032 37.781 101.4c-3.598 48.368-49.288 43.585-66.361 28.115-41.717-37.772 28.58-129.515 28.58-129.515Z" fill="#E10005"/><path d="M469.361 240.207s-70.297 91.743-28.58 129.515c17.073 15.488 62.753 20.262 66.361-28.115 3.608-48.377-37.781-101.4-37.781-101.4Z" fill="#fff" opacity=".7"/><path d="M469.361 242.767s34.365 66.707 26.63 102.32c-7.735 35.613-56.403 30.784-64.047 1.631-10.531-40.278 37.417-103.951 37.417-103.951Z" fill="#E10005"/><path d="M468.851 373.384c15.224 0 24.99-4.318 26.767-2.733 2.487 2.241-8.2 14.723-26.767 14.723-16.599 0-28.388-12.345-27.049-15.324 1.339-2.979 12.308 3.334 27.049 3.334Z" fill="#E10005"/><path d="M469.361 242.767s34.365 66.707 26.63 102.32c-7.735 35.613-56.403 30.784-64.047 1.631-10.531-40.278 37.417-103.951 37.417-103.951Z" fill="#fff" opacity=".8"/><path d="M468.851 373.384c15.224 0 24.99-4.318 26.767-2.733 2.487 2.241-8.2 14.723-26.767 14.723-16.599 0-28.388-12.345-27.049-15.324 1.339-2.979 12.308 3.334 27.049 3.334Z" fill="#fff" opacity=".8"/><path d="M462.136 335.576c26.721-2.469 30.256 28.005 2.424 30.575-27.833 2.569-24.189-28.544-2.424-30.575Z" fill="#fff" opacity=".5"/><path d="M456.607 334.009c10.194.482 13.055-17.31 0-13.739-9.402 2.569-7.835 13.374 0 13.739Z" fill="#fff" opacity=".4"/><path d="M467.739 374.632c7.434.565 12.381-1.084 12.755.966.373 2.05-3.644 7.562-15.023 5.375-9.603-1.849-10.477-7.297 2.268-6.341Z" fill="#fff" opacity=".5"/></g><defs><clipPath id="a"><path d="M0 0h639v639H0z" fill="#fff"/></clipPath></defs></svg>