<?xml version="1.0" standalone="no"?>
<!DOCTYPE svg PUBLIC "-//W3C//DTD SVG 20010904//EN"
 "http://www.w3.org/TR/2001/REC-SVG-20010904/DTD/svg10.dtd">
<svg version="1.0" xmlns="http://www.w3.org/2000/svg"
 width="109.000000pt" height="109.000000pt" viewBox="0 0 109.000000 109.000000"
 preserveAspectRatio="xMidYMid meet">
<metadata>
Created by potrace 1.14, written by Peter Selinger 2001-2017
</metadata>
<g transform="translate(0.000000,109.000000) scale(0.100000,-0.100000)"
fill="#000000" stroke="none">
<path d="M439 800 c-23 -13 -45 -69 -78 -200 -16 -63 -34 -126 -40 -140 l-10
-25 -7 24 c-15 51 -60 126 -77 129 -29 6 -53 -24 -71 -87 -22 -80 -47 -109
-99 -118 -31 -5 -37 -8 -22 -13 26 -9 82 4 105 25 10 9 31 46 46 81 30 72 34
71 60 -16 22 -77 44 -110 71 -110 30 0 52 45 98 195 34 112 62 181 66 160 2
-15 6 -43 13 -115 30 -274 75 -420 133 -428 32 -5 52 34 58 109 11 132 16 171
26 221 l11 52 23 -61 c31 -80 52 -112 82 -119 34 -9 61 19 79 85 21 73 29 80
48 43 21 -41 52 -61 84 -56 32 6 41 14 19 15 -10 1 -21 3 -27 4 -5 1 -14 3
-20 4 -5 0 -18 20 -28 44 -27 60 -45 74 -70 49 -11 -11 -27 -41 -37 -68 -30
-82 -39 -84 -64 -12 -50 141 -56 153 -80 156 -12 2 -31 -4 -41 -13 -20 -18
-55 -124 -66 -200 l-8 -50 -7 40 c-4 22 -10 63 -14 90 -3 28 -8 57 -10 65 -3
8 -7 38 -10 67 -7 68 -41 160 -65 173 -23 12 -50 12 -71 0z"/>
</g>
</svg>
